<?xml version="1.0" encoding="utf-8"?>
<!-- Generator: Adobe Illustrator 16.0.0, SVG Export Plug-In . SVG Version: 6.00 Build 0)  -->
<!DOCTYPE svg PUBLIC "-//W3C//DTD SVG 1.1//EN" "http://www.w3.org/Graphics/SVG/1.1/DTD/svg11.dtd">
<svg version="1.1" id="Layer_1" xmlns="http://www.w3.org/2000/svg" xmlns:xlink="http://www.w3.org/1999/xlink" x="0px" y="0px"
	 width="618px" height="331px" viewBox="0 0 618 331" enable-background="new 0 0 618 331" xml:space="preserve">
<g>
	
		<line fill="none" stroke="#262626" stroke-width="0.6667" stroke-linecap="square" stroke-linejoin="round" stroke-miterlimit="10" x1="79.9" y1="295" x2="559.025" y2="295"/>
	
		<line fill="none" stroke="#262626" stroke-width="0.6667" stroke-linecap="square" stroke-linejoin="round" stroke-miterlimit="10" x1="149.965" y1="295" x2="149.965" y2="290.209"/>
	
		<line fill="none" stroke="#262626" stroke-width="0.6667" stroke-linecap="square" stroke-linejoin="round" stroke-miterlimit="10" x1="301.426" y1="295" x2="301.426" y2="290.209"/>
	
		<line fill="none" stroke="#262626" stroke-width="0.6667" stroke-linecap="square" stroke-linejoin="round" stroke-miterlimit="10" x1="452.888" y1="295" x2="452.888" y2="290.209"/>
</g>
<g transform="translate(149.9652,301.9333)">
	<text transform="matrix(1 0 0 1 -37.9999 20.0003)" fill="#262626" font-family="'ArialMT'" font-size="21">100.315</text>
</g>
<g transform="translate(301.4264,301.9333)">
	<text transform="matrix(1 0 0 1 -32.5001 20.0003)" fill="#262626" font-family="'ArialMT'" font-size="21">100.32</text>
</g>
<g transform="translate(452.8875,301.9333)">
	<text transform="matrix(1 0 0 1 -37.9998 20.0003)" fill="#262626" font-family="'ArialMT'" font-size="21">100.325</text>
</g>
<g>
	<path fill="none" stroke="#000000" stroke-width="2.3333" stroke-linejoin="round" stroke-miterlimit="10" d="M79.843,174.178
		l0.289,1.482l1.619-1.092l1.387-1.172l1.619-3.633l1.388,0.363l1.619,0.698l1.619,0.056l1.387-2.197l1.619-0.449l1.388,0.964
		l1.619-4.787l1.387,0.662l1.619,5.397l1.388-0.615l1.619,0.381l1.619,1.914l1.387-3.957l1.619,2.539l1.388,2.992l1.619-3.151
		l1.387-0.181l1.619,1.191l1.388-1.443l1.619-2.996l1.619-3.106l1.387,1.332l1.619-1.988l1.388,0.274l1.619-0.339l1.387-2.809
		l1.619,0.449l1.388,4.589l1.619,2.67l1.387,0.031l1.619-7.262l1.619-0.56l1.388,2.842l1.619,4.396l1.387,3.213l1.619,3.147
		l1.388-5.043l1.619-4.083l1.387,2.868l1.619-0.104l1.619-1.604l1.388,1.129l1.619,0.729l1.387,0.989l1.619-2.345l1.388-1.581
		l1.619-0.025l1.387-1.025l1.619,3.623l1.619,1.455l1.388-0.464l1.619,1.647l1.387-3.887l1.619-1.649l1.388,2.585l1.619-3.333
		l1.387,2.718l1.619,1.477l1.619,2.406l1.388-1.796l1.619,1.755l1.387,2.822l1.619-4.82l1.388,0.229l1.619,1.551l1.387,2.54
		l1.619,0.962l1.619-3.953l1.388,2.048l1.619-2.041l1.387-3.031l1.619,3.195l1.388-3.602l1.619,1.371l1.387,0.63l1.619,1.135
		l1.619,2.267l1.388-3.166l1.619,2.688l1.387,0.059l1.619-1.168l1.388-2.729l1.619,1.807l1.387,2.195l1.619-3.68l1.388-1.096
		l1.619-0.367l1.619-0.786l1.387,1.722l1.619,2.069l1.388,0.347l1.619,1.688l1.387-2.771l1.619,2.395l1.388-0.473l1.619-3.206
		l1.619,3.151l1.387-1.568l1.619-1.852l1.388-3.372l1.619-2.499l1.387,4.643l1.619,3.712l1.388-0.414l1.619,0.512l1.619-3.955
		l1.387,1.214l1.619-1.1l1.388,1.705l1.619,6.883l1.387-0.365l1.619-5.367l1.388,2.68l1.619-1.047l1.619-1.377l1.387-1.472
		l1.619,1.374l1.388-0.354l1.619-5.265l1.387-1.738l1.619,0.827l1.388,2.244l1.619,2.195l1.619-4.965l1.387,0.351l1.619,0.656
		l1.388,5.958l1.619-3.093l1.387,0.729l1.619-0.324l1.388-1.036l1.619,0.178l1.619,0.414l1.387-2.31l1.619,2.615l1.388,3.132
		l1.619,2.453l1.387-3.66l1.619-4.908l1.388-9.685l1.619,2.823l1.387-0.248l1.619,4.17l1.619,1.747l1.388,2.584l1.619,0.27
		l1.387-5.512l1.619,0.685l1.389,3.445l1.617,0.583l1.389,3.245l1.617,1.367l1.618,0.107l1.39-3.753l1.617-0.486l1.389-0.013
		l1.617-1.052l1.389,1.053l1.619-1.196l1.387,2.676l1.619,2.521l1.617-2.589l1.389,0.207l1.619-0.767l1.387-6.078l1.619,2.116
		l1.387-1.628l1.619,4.531l1.387-0.119l1.619-2.432l1.619,3.154l1.387-0.549l1.619-0.911l1.387,4.477l1.619-2.431l1.389-1.536
		l1.617-0.133l1.389-1.373l1.617-0.582l1.619,1.49l1.389,1.579l1.617-0.136l1.389,1.348l1.617-0.87l1.39,0.237l1.618-0.08
		l1.388,2.045l1.618-1.23l1.618-3.107l1.389-1.404l1.618-1.421l1.389,2.681l1.617-1.483l1.389,1.684l1.619,1.411l1.387-1.873
		l1.619,1.207l1.387,0.681l1.619-1.669l1.619-0.338l1.387-1.439l1.619-1.517l1.387,3.095l1.619-1.708l1.387,1.42l1.619,4.745
		l1.388,0.844l1.618,2.549l1.619-1.875l1.388,2.119l1.618,1.957l1.388-4.928l1.618-2.142l1.388-3.452l1.619-0.437l1.388,0.056
		l1.618-2.575l1.618,0.386l1.389,3.851l1.618-0.467l1.388-0.528l1.619-0.021l1.388,1.624l1.618,0.083l1.388-0.136l1.618-0.101
		l1.619,0.027l1.388-0.09l1.618,0.174l1.388,0.614l1.618-2.862l1.388,1.848l1.619,3.981l1.388,0.396l1.618,1.764l1.618-2.546
		l1.389-0.87l1.618-2.241l1.388,9.521l1.618-1.516l1.389-3.852l1.618,1.896l1.388-2.672l1.618,2.922l1.619,0.865l1.388-0.209
		l1.618-0.748l1.388-3.15l1.618,8.211l1.388-1.905l1.619-1.861l1.387,0.817l1.619-2.365l1.388-2.73l1.618,4.369l1.619,1.586
		l1.388-3.166l1.618-2.08l1.389-0.986l1.618,2.572l1.388,1.123l1.618,2.072l1.388,2.596l1.619,6.395l1.618-1.754l1.388-2.9
		l1.618,1.611l1.388,5.365l1.619-3.273l1.387-5.736l1.619-7.512l1.388-12.188l1.618-1.779l1.619-1.307l1.387,2.67l1.619-5.624
		l1.388,2.637l1.618-1.685l1.389-0.262l1.618,3.622l1.388,3.567l1.619,2.11l1.618,0.725l1.388,9.033l1.618,5.152l1.388,0.344
		l1.619-2.914l1.387,3.941l1.619,9.586l1.388,2.643l1.618-5.26l1.619-6.582l1.387-2.957l1.619-2.563l1.388-8.699l1.618,4.167
		l1.389,0.658l1.617,2.239l1.389,4.092l1.619-0.92l1.617,1.127l1.389,2.108l1.618,0.871l1.388-6.729l1.619-6.914l1.387,4
		l1.619,7.284l1.388-1.428l1.618-7.417l1.388-3.473l1.618-3.794l1.619-7.13l1.387,4.972l0.059,0.083"/>
	<path fill="none" stroke="#000000" stroke-width="2.3333" stroke-linejoin="round" stroke-miterlimit="10" d="M79.843,77.091
		l0.289,0.403l1.619,1.259l1.387-0.101l1.619,1.105l1.388,2.149l1.619-0.992l1.619,0.989l1.387-0.506l1.619-1.66l1.388-1.938
		l1.619,3.581l1.387,2.269l1.619-3.811l1.388-2.425l1.619-0.423l1.619-1.74l1.387-0.878l1.619-3.982l1.388,2.619l1.619,9.03
		l1.387,11.862l1.619,6.758l1.388,4.128l1.619-1.463l1.619-0.308l1.387-3.479l1.619-2.883l1.388-5.652l1.619-1.856l1.387,3.953
		l1.619-3.506l1.388-4.345l1.619-3.327l1.387-0.876l1.619,2.525l1.619-2.604l1.388-1.433l1.619,1.066l1.387-0.321l1.619,1.167
		l1.388,2.7l1.619,3.134l1.387-0.114l1.619-3.264l1.619,0.63l1.388,1.814l1.619-1.568l1.387-2.562l1.619,2.288l1.388,0.219
		l1.619-1.42l1.387-3.698l1.619-1.393l1.619,4.471l1.388-0.639l1.619,2.891l1.387-1.012l1.619-0.438l1.388-1.086l1.619-1.844
		l1.387-2.386l1.619,4.862l1.619,1.951l1.388-3.166l1.619-1.851l1.387-1.246l1.619,1.081l1.388,0.602l1.619-0.863l1.387-0.217
		l1.619-1.716l1.619-2.121l1.388,1.073l1.619,0.725l1.387,2.293l1.619,3.49l1.388-0.523l1.619,0.353l1.387-0.016l1.619,0.21
		l1.619-5.932l1.388,0.55l1.619-0.953l1.387-2.972l1.619,2.812l1.388-2.082l1.619-0.471l1.387,0.462l1.619,2.1l1.388,3.208
		l1.619,0.068l1.619,3.205l1.387-0.149l1.619-0.703l1.388-2.288l1.619,0.638l1.387,0.823l1.619-1.805l1.388-3.001l1.619,1.961
		l1.619,4.092l1.387-0.432l1.619-4.131l1.388,1.068l1.619,1.093l1.387,0.442l1.619,1.294l1.388-5.144l1.619-0.534l1.619,0.147
		l1.387,0.063l1.619,4.141l1.388-1.39l1.619-0.031l1.387,0.362l1.619,1.698l1.388-2.011l1.619-0.936l1.619-2.847l1.387,3.873
		l1.619-1.007l1.388,0.119l1.619,1.625l1.387,0.544l1.619,0.32l1.388-2.429l1.619,1.033l1.619-2.544l1.387-2.274l1.619,1.524
		l1.388,0.572l1.619,0.315l1.387,0.404l1.619,0.168l1.388,4.073l1.619-1.238l1.619-2.11l1.387,2.413l1.619,0.063l1.388,0.303
		l1.619,2.349l1.387-2.069l1.619-2.674l1.388-2.317l1.619,1.497l1.387,0.174l1.619,4.386l1.619,1.269l1.388,0.296l1.619,0.884
		l1.387-2.82l1.619-0.964l1.389,1.663l1.617,1.208l1.389,0.556l1.617-3.102l1.618-0.532l1.39-1.809l1.617,2.069l1.389-0.047
		l1.617-0.296l1.389,0.562l1.619-1.98l1.387-1.575l1.619,0.224l1.617,0.768l1.389,1.914l1.619-0.729l1.387-0.708l1.619-1.422
		l1.387,0.263l1.619-0.486l1.387-1.26l1.619-1.392l1.619,4.269l1.387-1.276l1.619,0.394l1.387-0.401l1.619,0.431l1.389,2.079
		l1.617-0.27l1.389-1.159l1.617-0.5l1.619,1.452l1.389-2.107l1.617-2.085l1.389-0.034l1.617-0.048l1.39,2.726l1.618-0.287
		l1.388,1.127l1.618,1.191l1.618-0.679l1.389-2.451l1.618-1.587l1.389,1.63l1.617,0.65l1.389,2.557l1.619,4.34l1.387-1.284
		l1.619-3.705l1.387,1.882l1.619-0.632l1.619,0.213l1.387,1.701l1.619-6.24l1.387,1.773l1.619-2.237l1.387-0.185l1.619,3.509
		l1.388-0.731l1.618,1.509l1.619,2.346l1.388,0.233l1.618-2.455l1.388,2.176l1.618,10.388l1.388,14.016l1.619,10.743l1.388,1.132
		l1.618-2.55l1.618-5.151l1.389-13.094l1.618-8.306l1.388-9.01l1.619-3.583l1.388-3.529l1.618-6.235l1.388-2.347l1.618-5.764
		l1.619-2.88l1.388-2.455l1.618,2.066l1.388-0.36l1.618,2.205l1.388,0.786l1.619,2.061l1.388-2.588l1.618-0.333l1.618,3.071
		l1.389,1.096l1.618,1.458l1.388,1.149l1.618,3.782l1.389,3.667l1.618,3.683l1.388,8.502l1.618,3.263l1.619,6.959l1.388,1.744
		l1.618-1.106l1.388-2.802l1.618-5.12L463.524,83l1.618-3.759l1.388,2.124l1.618-2.188l1.389,0.799l1.618-4.154l1.618-1.565
		l1.388,2.727l1.619,2.888l1.388-0.844l1.618,0.456l1.388-1.364l1.618,0.706l1.388,2.363l1.619-0.95l1.618,2.571l1.388-2.953
		l1.618-3.995l1.388-0.749l1.619,1.103l1.388,1.84l1.618,2.922l1.389,1.071l1.618-1.339l1.618,0.104l1.388-0.65l1.618-2.637
		l1.389-1.384l1.618,3.586l1.388,1.334l1.618,0.019l1.388-2.856l1.619-2.051l1.618,0.757l1.388-1.721l1.618,2.05l1.388-0.908
		l1.619-0.178l1.387,3.792l1.619-2.625l1.389,0.796l1.617-0.479l1.619,2.821l1.388,2.511l1.618,2.132l1.389-0.27l1.618,0.381
		l1.388-1.327l1.618-0.186l1.388-1.988l1.619,2.025l1.618-1.358l1.388,1.644l1.618-1.125l1.388,1.114l1.619,0.616l1.387,0.353
		l1.619-0.81l1.389,1.822l1.617-0.923l1.389,3.336l1.617,0.1l1.619-0.104l1.388-1.663l0.058-0.101"/>
	<path fill="none" stroke="#000000" stroke-width="2.3333" stroke-linejoin="round" stroke-miterlimit="10" d="M79.843,251.725
		l0.289,0.166l1.619-1.692l1.387-1.216l1.619,0.484l1.388-0.381l1.619,1.535l1.619-1.314l1.387,0.26l1.619,1.957l1.388-0.666
		l1.619,1.199l1.387,0.27l1.619,2.568l1.388,0.125l1.619-5.181l1.619-3.767l1.387,0.029l1.619,3.584l1.388,0.574l1.619,0.486
		l1.387-2.372l1.619-1.253l1.388,3.24l1.619-0.362l1.619-0.092l1.387-0.362l1.619-3.979l1.388,2.73l1.619-0.35l1.387,1.393
		l1.619,8.822l1.388,6.707l1.619,4.201l1.387-8.4l1.619-12.521l1.619-10.567l1.388-2.448l1.619,4.635l1.387,1.073l1.619,0.81
		l1.388,3.607l1.619,1.883l1.387,0.713l1.619,2.881l1.619-2.146l1.388,0.635l1.619,1.685l1.387-1.063l1.619-0.898l1.388-1.5
		l1.619-0.399l1.387-0.188l1.619,1.41l1.619,5.616l1.388-0.663l1.619,1.688l1.387,4.634l1.619,3.239l1.388-0.94l1.619-0.025
		l1.387-5.45l1.619-4.048l1.619,0.021l1.388-1.44l1.619,2.358l1.387,2.022l1.619,1.587l1.388,0.104l1.619,0.146l1.387,0.139
		l1.619,0.631l1.619-1.559l1.388-3.244l1.619,4.266l1.387-0.271l1.619-0.134l1.388,2.188l1.619,0.518l1.387-3.629l1.619-0.605
		l1.619,4.051l1.388-6.539l1.619-0.216l1.387,2.079l1.619-1.184l1.388,1.471l1.619-0.045l1.387,1.521l1.619-0.81l1.388,0.222
		l1.619-3.041l1.619-4.062l1.387,0.2l1.619-1.449l1.388,0.063l1.619,0.309l1.387-2.116l1.619,1.19l1.388,1.354l1.619,2.5
		l1.619-1.092l1.387-0.486l1.619,2.782l1.388,2.923l1.619,1.041l1.387,2.078l1.619-0.697l1.388-2.127l1.619-2.618l1.619-0.4
		l1.387-3.584l1.619-0.748l1.388,1.238l1.619,0.225l1.387,0.146l1.619,0.096l1.388-1.332l1.619-0.377l1.619,0.865l1.387,0.68
		l1.619,2.207l1.388,1.418l1.619-1.014l1.387,0.444l1.619-0.499l1.388-2.949l1.619-1.97l1.619,2.192l1.387,0.521l1.619,0.305
		l1.388,2.383l1.619,2.976l1.387-2.567l1.619,2.014l1.388-2.896l1.619-0.953l1.619,1.687l1.387,0.139l1.619,1.308l1.388-1.092
		l1.619,2.371l1.387-0.757l1.619-1.256l1.388,0.884l1.619-1.543l1.387,1.844l1.619,1.133l1.619,0.668l1.388-0.758l1.619,1.891
		l1.387,3.712l1.619,1.161l1.389-0.614l1.617-5.021l1.389-3.092l1.617,2.397l1.618-0.976l1.39-2.045l1.617-0.561l1.389-4.18
		l1.617-0.016l1.389,3.627l1.619-3.18l1.387-0.193l1.619,3.276l1.617-1.171l1.389-1.198l1.619,1.324l1.387,2.396l1.619-0.674
		l1.387-1.191l1.619,2.402l1.387-0.935l1.619,0.141l1.619,1.9l1.387-4.666l1.619-1.399l1.387,0.27l1.619,1.882l1.389,0.985
		l1.617,0.309l1.389,0.266l1.617-2.519l1.619,1.469l1.389-1.248l1.617,2.964l1.389,1.979l1.617,0.266l1.39-0.244l1.618-0.802
		l1.388-0.295l1.618-1.507l1.618-2.18l1.389,4.158l1.618-0.685l1.389-0.468l1.617-1.877l1.389-0.754l1.619,1.215l1.387,2.611
		l1.619-0.271l1.387-0.609l1.619,1.145l1.619-4.068l1.387-2.924l1.619,4.713l1.387,5.676l1.619,4.348l1.387,0.979l1.619-0.6
		l1.388-2.897l1.618-5.967l1.619-6.871l1.388-1.024l1.618-1.802l1.388-0.094l1.618,1.021l1.388,1.449l1.619,3.912l1.388-0.593
		l1.618-2.491l1.618,0.912l1.389,1.072l1.618,0.822l1.388,6.207l1.619-5.013l1.388-0.167l1.618-1.042l1.388-0.598l1.618,3.299
		l1.619-0.867l1.388-1.747l1.618-0.826l1.388,3.129l1.618-0.238l1.388,4.293l1.619-2.609l1.388,2.034l1.618,2.749l1.618,0.711
		l1.389-1.559l1.618-2.529l1.388-0.457l1.618-0.377l1.389-4.778l1.618-2.431l1.388-0.655l1.618-4.51l1.619-1.013l1.388,0.44
		l1.618,4.111l1.388,4.417l1.618,1.113l1.388,3.599l1.619-5.896l1.387-7.065l1.619,4.053l1.388,1.367l1.618,2.146l1.619,0.352
		l1.388,1.661l1.618,0.516l1.389-1.993l1.618,0.141l1.388,0.371l1.618,1.33l1.388,0.516l1.619-2.237l1.618,1.229l1.388,0.152
		l1.618-3.529l1.388-1.223l1.619,3.143l1.387,3.697l1.619-1.006l1.388,1.766l1.618,2.832l1.619-0.2l1.387-1.489l1.619-1.49
		l1.388-3.262l1.618-2.727l1.389,2.889l1.618-0.756l1.388-0.922l1.619,2.966l1.618,4.146l1.388,1.754l1.618-1.977l1.388,8.682
		l1.619,4.228l1.387-5.343l1.619-10.994l1.388-9.18l1.618-3.379l1.619,1.865l1.387,1.755l1.619-1.083l1.388,0.848l1.618,0.779
		l1.389,3.08l1.617,1.805l1.389-2.258l1.619,2.344l1.617,1.738l1.389-2.67l1.618-1.795l1.388,5.28l1.619,4.014l1.387-0.487
		l1.619-2.303l1.388-2.178l1.618,2.232l1.388-0.476l1.618,4.157l1.619-1.298l1.387,0.114l0.059-0.039"/>
</g>
</svg>
