<?xml version="1.0" encoding="utf-8"?>
<!-- Generator: Adobe Illustrator 16.0.0, SVG Export Plug-In . SVG Version: 6.00 Build 0)  -->
<!DOCTYPE svg PUBLIC "-//W3C//DTD SVG 1.1//EN" "http://www.w3.org/Graphics/SVG/1.1/DTD/svg11.dtd">
<svg version="1.1" id="Layer_1" xmlns="http://www.w3.org/2000/svg" xmlns:xlink="http://www.w3.org/1999/xlink" x="0px" y="0px"
	 width="618px" height="331px" viewBox="0 0 618 331" enable-background="new 0 0 618 331" xml:space="preserve">
<g>
	
		<line fill="none" stroke="#262626" stroke-width="0.6667" stroke-linecap="square" stroke-linejoin="round" stroke-miterlimit="10" x1="79.908" y1="295" x2="559.034" y2="295"/>
	
		<line fill="none" stroke="#262626" stroke-width="0.6667" stroke-linecap="square" stroke-linejoin="round" stroke-miterlimit="10" x1="159.917" y1="295" x2="159.917" y2="290.209"/>
	
		<line fill="none" stroke="#262626" stroke-width="0.6667" stroke-linecap="square" stroke-linejoin="round" stroke-miterlimit="10" x1="311.378" y1="295" x2="311.378" y2="290.209"/>
	
		<line fill="none" stroke="#262626" stroke-width="0.6667" stroke-linecap="square" stroke-linejoin="round" stroke-miterlimit="10" x1="463.07" y1="295" x2="463.07" y2="290.209"/>
</g>
<g transform="translate(159.9168,301.9333)">
	<text transform="matrix(1 0 0 1 -37.9998 20.0003)" fill="#262626" font-family="'ArialMT'" font-size="21">100.335</text>
</g>
<g transform="translate(311.378,301.9333)">
	<text transform="matrix(1 0 0 1 -32.5001 20.0003)" fill="#262626" font-family="'ArialMT'" font-size="21">100.34</text>
</g>
<g transform="translate(463.0704,301.9333)">
	<text transform="matrix(1 0 0 1 -38.0001 20.0003)" fill="#262626" font-family="'ArialMT'" font-size="21">100.345</text>
</g>
<g>
	<path fill="none" stroke="#000000" stroke-width="2.3333" stroke-linejoin="round" stroke-miterlimit="10" d="M79.851,163.039
		l1.213-1.382l1.619,0.57l1.388-0.775l1.619,4.05l1.619,2.176l1.387-1.496l1.619,2.23l1.388-4.523l1.619-0.41l1.387,6.22
		l1.619,1.357l1.388-2.387l1.619,3.275l1.619-5.592l1.387-3.901l1.619-5.208l1.388,0.996l1.619,1.481l1.387-1.381l1.619,2.014
		l1.388,8.974l1.619,5.234l1.619,4.269l1.387-1.536l1.619-4.425l1.388-4.937l1.619-8.313l1.387-1.61l1.619-5.887l1.388,3.422
		l1.619-5.077l1.387,3.065l1.619,1.923l1.619,7.096l1.388,25.886l1.619,16.391l1.387-0.664l1.619-6.947l1.388-16.816l1.619-11.219
		l1.387-6.79l1.619-11.014l1.619-3.859l1.388-1.427l1.619-1.562l1.387-0.307l1.619-4.305l1.388-8.312l1.619-3.208l1.387,3.509
		l1.619-1.881l1.619,1.083l1.388,4.84l1.619,2.489l1.387,2.645l1.619,3.336l1.388,0.071l1.619,0.674l1.387,1.02l1.619,4.086
		l1.619,1.425l1.388,0.603l1.619-1.145l1.387,1.849l1.619,1.683l1.388-1.167l1.619,4.786l1.387,0.525l1.619-0.719l1.619-0.536
		l1.388-2.289l1.619,1.405l1.387,4.242l1.619,0.592l1.387-0.059l1.619-2.558l1.387,0.77l1.619-4.864l1.619-0.275l1.388,0.179
		l1.619,4.61l1.387-1.53l1.619,4.457l1.388,5.815l1.619,3.875l1.387-4.781l1.619-5.629l1.388,1.333l1.619,0.477l1.619,8.022
		l1.387,3.562l1.619-4.125l1.388-0.578l1.619-1.986l1.387-0.363l1.619-2.935l1.388-4.477l1.618,3.193l1.619-5.186l1.387-0.577
		l1.619,5.498l1.388-2.583l1.619,6.552l1.387,0.077l1.619,1.559l1.387-0.074l1.619-0.693l1.619-3.584l1.387,5.8l1.619,2.682
		l1.388-3.389l1.619-8.019l1.387-3.574l1.619,1.059l1.388,6.528l1.619,4.039l1.619,6.779l1.387,4.754l1.619-10.734l1.388-11.226
		l1.619-9.798l1.387-3.779l1.619,3.889l1.388-0.105l1.619,8.542l1.619,5.766l1.387-2.308l1.619,0.407l1.387-0.524l1.619-0.229
		l1.387-0.558l1.619,4.258l1.388,0.476l1.619-1.216l1.619-2.872l1.387-2.299l1.619,5.839l1.388,3.797l1.619,4.706l1.387,1.827
		l1.619,1.103l1.388,3.604l1.619-5.67l1.387-3.658l1.619,0.148l1.619-6.031l1.388-7.612l1.619-0.03l1.387,1.138l1.619-0.362
		l1.388-3.227l1.618,0.721l1.389-1.755l1.617-0.368l1.619-0.573l1.389-2.4l1.617,1.66l1.389-0.03l1.617,3.265l1.389,0.319
		l1.619-3.246l1.388,1.555l1.618,5.874l1.617,2.03l1.39-0.439l1.618,1.959l1.388,3.75l1.618,1.031l1.389-2.594l1.618-0.968
		l1.388,0.494l1.619-2l1.617-3.612l1.389,2.985l1.619,2.992l1.387-4.144l1.619,1.752l1.387,1.626l1.619,0.981l1.387,2.63
		l1.619-1.308l1.619-1.937l1.387-3.607l1.619,0.397l1.387-1.241l1.619-0.266l1.388-0.941l1.618-1.299l1.389,3.818l1.617-1.972
		l1.619-1.488l1.389-1.271l1.617,0.828l1.389,0.378l1.617-1.469l1.389-2.357l1.619,2.371l1.388,4.687l1.618-1.584l1.388-3.206
		l1.619,1.191l1.618-0.883l1.388,1.914l1.618-1.544l1.388,3.975l1.619,4.013l1.387,4.279l1.619-2.813l1.387-1.312l1.619-0.498
		l1.618-5.112l1.388,2.821l1.619,3.03l1.387-2.555l1.619,2l1.388-5.617l1.618,0.577l1.389-1.686l1.618,3.709l1.618,1.086
		l1.389-1.255l1.618-3.128l1.388,2.933l1.618,0.169l1.388-4.004l1.619-0.753l1.387,1.518l1.619-0.424l1.618-1.68l1.388,3.979
		l1.618,0.555l1.388,1.287l1.619-4.032l1.388,1.213l1.618-1.689l1.389-0.609l1.618-1.646l1.618-1.925l1.389,1.885l1.618,1.397
		l1.388,1.372l1.618,4.115l1.388-1.233l1.619-1.854l1.387,1.711l1.619,0.508l1.618-2.561l1.388-2.126l1.619,2.762l1.387,3.969
		l1.619-1.323l1.387-2.884l1.619,2.292l1.388,1.778l1.618,0.644l1.619-0.083l1.388-8.705l1.618,0.068l1.389,0.395l1.618,6.582
		l1.388,3.756l1.618-1.582l1.388-4.754l1.619-2.928l1.388,1.318l1.618,1.84l1.619,3.382l1.387,2.328l1.619,0.197l1.388,4.286
		l1.618-0.637l1.388-6.446l1.618,0.95l1.389,0.146l1.618-0.671l1.618,0.438l1.389,0.749l1.617-4.301l1.389,2.533l1.619,1.184
		l1.387,2.832l1.619,2.481l1.387,0.513l1.619-4.17l1.619-0.644l1.387-3.681l1.619,4.362l1.387-3.707l1.619-3.467l1.388,5.448
		l1.618,2.391l1.388,2.661l1.618-2.797l1.619-3.208l1.388-1.143l1.618-3.253l1.389,0.387l1.618-1.807l1.388,5.553l1.619,4.634
		l1.388-1.667l1.618,2.69l1.619,2.475l1.387,0.343l1.619-0.601l1.388,6.648l1.618-0.375l1.388-2.816l1.618-8.446l1.388-9.214
		l1.619-3.918l1.618,0.477l1.388-0.423l1.618,1.476l1.388,1.188l1.619,2.586l0.521-1.383"/>
	<path fill="none" stroke="#000000" stroke-width="2.3333" stroke-linejoin="round" stroke-miterlimit="10" d="M79.851,68.549
		l1.213,0.205l1.619-1.653l1.388,2.256l1.619,0.351l1.619-1.865l1.387,2.07l1.619,1.828l1.388,1.23l1.619-4.833l1.387-2.355
		l1.619,1.362l1.388,4.411l1.619,2.554l1.619,3.58l1.387,6.075l1.619-3.486l1.388-3.391l1.619-3.409l1.387-1.844l1.619-4.642
		l1.388,0.502l1.619,1.85l1.619,1.244l1.387,0.484l1.619-2.304l1.388,1.093l1.619,0.88l1.387,0.185l1.619,3.667L125,73.005
		l1.619-0.93l1.387,3.131l1.619-0.656l1.619-0.867l1.388-1.353l1.619,0.474l1.387,4.337l1.619-0.316l1.388,1.235l1.619,0.156
		l1.387,0.416l1.619-2.097l1.619,0.212l1.388-1.991l1.619-2.243l1.387,7.048l1.619,2.276l1.388-2.323l1.619,0.333l1.387,0.105
		l1.619-2.227l1.619,1.105l1.388,4.411l1.619,2.884l1.387,2.331l1.619-8.293l1.388-4.503l1.619-5.736l1.387,0.072l1.619,1.876
		l1.619-0.979l1.388,1.785l1.619-0.238l1.387,0.652l1.619,0.706l1.388,0.865l1.619,1.355l1.387,1.896l1.619,0.978l1.619-3.091
		l1.388-3.042l1.619-0.909l1.387,2.867l1.619,1.081l1.387,1.06l1.619,2.784l1.387-2.118l1.619-3.898l1.619-1.193l1.388,1.309
		l1.619-1.493l1.387-1.413l1.619,0.576l1.388,0.43l1.619,1.67l1.387-1.284l1.619-1.155l1.388-0.043l1.619,0.404l1.619,3.014
		l1.387,3.439l1.619-2.212l1.388,3.126l1.619,0.992l1.387-2.258l1.619,0.452l1.388-0.046l1.618-1.2l1.619,0.701l1.387,1.917
		l1.619-2.455l1.388-3.137l1.619-3.893l1.387,0.4l1.619,4.044l1.387-2.532l1.619-2.706l1.619-1.146l1.387,0.269l1.619-0.948
		l1.388,5.045l1.619,5.834l1.387,0.778l1.619-0.316l1.388-1.182l1.619-0.844l1.619-1.089l1.387-4.26l1.619-0.181l1.388,3.265
		l1.619,4.063l1.387,0.861l1.619-1.773l1.388-3.124l1.619-0.495l1.619-0.718l1.387-1.3l1.619-0.136l1.387,0.498l1.619,6.429
		l1.387,4.323l1.619-2.646l1.388,2.73l1.619-1.13l1.619-5.658l1.387,3.252l1.619,2.243l1.388-8.573l1.619-1.105l1.387,1.032
		l1.619,4.479l1.388-1.692l1.619-1.055l1.387,0.768l1.619-1.328l1.619-2.321l1.388,0.146L304,70.344l1.387,3.071l1.619,0.893
		l1.388,1.228l1.618,0.338l1.389,3.962l1.617,1.802l1.619-3.54l1.389,2.875l1.617,0.675l1.389-1.038l1.617,0.888l1.389,1.02
		l1.619-1.878l1.388-1.3l1.618-0.543l1.617-4.708l1.39-1.068l1.618,0.938l1.388-0.998l1.618,3.057l1.388,0.371l1.619-0.684
		l1.388,0.078l1.618,0.543l1.618,0.33l1.389-5.39l1.618-0.304l1.388,0.381l1.618,1.042l1.388,2.72l1.619-1.955l1.387,0.744
		l1.619,1.021l1.619-3.357l1.387,0.829l1.619-0.789l1.387,2.791l1.619,3.122l1.388-1.564l1.618-0.912l1.388-1.445l1.618,0.089
		l1.619-0.903l1.388,2.35l1.618-0.202l1.388-2.524l1.618,0.663l1.389-2.045l1.618,0.97l1.388,2.794l1.619-3.925l1.387-3.201
		l1.619,1.645l1.619,3.123l1.387,2.977l1.619,3.86l1.388,1.142l1.618-0.081l1.388,8.527l1.619,6.39l1.387-1.921l1.619-4.199
		l1.618-5.335l1.388-5.975l1.619-4.581l1.387,0.346l1.619-1.257l1.387-1.504l1.619,2.69l1.389,1.586l1.617-1.513l1.619-7.766
		l1.389-9.199l1.617-4.011l1.389,2.916l1.618,2.961l1.388,1.738l1.619,4.304l1.387,3.537l1.619,1.75l1.618-2.172l1.388,0.162
		l1.618,4.326l1.388,3.764l1.619,0.581l1.388-2.284l1.618-5.264l1.388-2.178l1.618,1.307l1.619,4.245l1.388,2.22l1.618-0.039
		l1.389,0.908l1.617-1.306l1.389,2.314l1.619-2.277l1.387,0.204l1.619,0.54l1.618-0.061l1.388-0.694l1.619-1.101l1.387,3.15
		l1.619,1.918l1.387-3.248l1.619-6.519l1.388,4.992l1.618,4.579l1.619,4.846l1.388,2.015l1.618-2.531l1.388-2.027l1.618-0.677
		l1.389-1.22l1.617-1.898l1.389,2.033l1.619-1.749l1.388-0.81l1.618-0.546l1.619,1.66l1.387-1.655l1.619-1.292l1.388-0.72
		l1.618,0.31l1.388-0.978l1.618-0.251l1.388,1.523l1.619-0.373l1.618-2.154l1.388,1.535l1.618,0.57l1.388-0.672L504,70.569
		l1.387-1.969l1.619,3.507l1.387,1.781l1.619-1.163l1.619,0.915l1.387-0.017l1.619-0.672l1.388-3.625l1.618,1.829l1.389,3.866
		l1.618-1.071l1.388,5.294l1.618,6.228l1.619-5.496l1.388-7.158l1.618,1.438l1.388,0.276l1.619,4.213l1.387,0.53l1.619-2.577
		l1.388-2.275l1.618-1.29l1.619,3.12l1.387-1.766l1.619,0.684l1.389,2.031l1.617,1.321l1.389,2.376l1.617-0.07l1.389-3.445
		l1.619-1.025l1.617-3.688l1.389-3.818l1.618,0.575l1.388,2.391l1.619,0.704l0.52-0.321"/>
	<path fill="none" stroke="#000000" stroke-width="2.3333" stroke-linejoin="round" stroke-miterlimit="10" d="M79.851,237.914
		l1.213,1.869l1.619,3.111l1.388,1.762l1.619-1.783l1.619,0.068l1.387,2.144l1.619-2.71l1.388,1.762l1.619-1.541l1.387,1.988
		l1.619-1.256l1.388-1.342l1.619,2.486l1.619,3.519l1.387-3.696l1.619-0.867l1.388,1.689l1.619-1.032l1.387-0.075l1.619-1.064
		l1.388,1.849l1.619,1.164l1.619-2.021l1.387,0.436l1.619,3.716l1.388-1.459l1.619-2.342l1.387-1.959l1.619,1.657L125,243.66
		l1.619,0.723l1.387,5.928l1.619-0.357l1.619-3.012l1.388-1.506l1.619-1.912l1.387,0.873l1.619,1.98l1.388-1.393l1.619,1.525
		l1.387,1.104l1.619,0.549l1.619,1.666l1.388,1.017l1.619,0.72l1.387,0.195l1.619-2.273l1.388,0.051l1.619,1.089l1.387-0.726
		l1.619,1.23l1.619-1.813l1.388-2.346l1.619,1.622l1.387-0.952l1.619-0.947l1.388,4.371l1.619,0.265l1.387,0.142l1.619-4.24
		l1.619,1.037l1.388,2.16l1.619-1.582l1.387-0.908l1.619-0.319l1.388-0.125l1.619,1.239l1.387,0.164l1.619,0.973l1.619-1.691
		l1.388-2.16l1.619,0.848l1.387-1.264l1.619,4.062l1.387-1.619l1.619,0.908l1.387,7.687l1.619,14.572l1.619,8.99l1.388-1.273
		l1.619-8.73l1.387-5.022l1.619,1.392l1.388-4.162l1.619-2.793l1.387-0.85l1.619-10.027l1.388-6.603l1.619-4.891l1.619-0.513
		l1.387-0.221l1.619,1.143l1.388-0.897l1.619-0.424l1.387,1.34l1.619,2.435l1.388,0.297l1.618-2.01l1.619-0.822l1.387-1.381
		l1.619-0.567l1.388-0.634l1.619,3.721l1.387,4.52l1.619,5.771l1.387,5.611l1.619-4.111l1.619,0.27l1.387-2.317l1.619-1.224
		l1.388-0.711l1.619-0.92l1.387,6.258l1.619,1.861l1.388-0.66l1.619,3l1.619,4.375l1.387-3.836l1.619-2.322l1.388-1.998l1.619-2.521
		l1.387-0.136l1.619-1.949l1.388,0.255l1.619-4.666l1.619,3.968l1.387,2.459l1.619-0.367l1.387,2.143l1.619-1.96l1.387-1.177
		l1.619-0.182l1.388-0.699l1.619-3.578l1.619-1.539l1.387-0.301l1.619,1.369l1.388,0.797l1.619,0.4l1.387,0.605l1.619,1.677
		l1.388-1.041l1.619-0.295l1.387-1.854l1.619,2.688l1.619-0.8l1.388,1.25L304,247.5l1.387-0.914l1.619-3.127l1.388,1.332
		l1.618,1.273l1.389,3.074l1.617,2.68l1.619-4.258l1.389,1.209l1.617,1.575l1.389-2.071l1.617,0.845l1.389,1.485l1.619-0.556
		l1.388-1.557l1.618,0.065l1.617-2.244l1.39,0.726l1.618,3.579l1.388,3.371l1.618-1.444l1.388,2.06l1.619-1.678l1.388-1.331
		l1.618-5.344l1.618,0.478l1.389-1.83l1.618-2.008l1.388,3.437l1.618,2.137l1.388,0.233l1.619-3.935l1.387-3.192l1.619,4.064
		l1.619,3.794l1.387,1.945l1.619,1.183l1.387-2.887l1.619-4.402l1.388,3.325l1.618-2.524l1.388-1.849l1.618,2.587l1.619-0.877
		l1.388,1.141l1.618-1.193l1.388,0.45l1.618-0.617l1.389-1.47l1.618-1.314l1.388,2.119l1.619-1.227l1.387-3.047l1.619,1.672
		l1.619,4.217l1.387,5.094l1.619-0.896l1.388,1.98l1.618,0.626l1.388,0.241l1.619-3.342l1.387-0.443l1.619,1.639l1.618-0.81
		l1.388-3.877l1.619-1.942l1.387,4.656l1.619-0.928l1.387-1.822l1.619-0.295l1.389,0.666l1.617,0.57l1.619,0.252l1.389,1.129
		l1.617-2.305l1.389,1.771l1.618,2.596l1.388-4.044l1.619-2.079l1.387-0.926l1.619,1.678l1.618,5.51l1.388-1.551l1.618-2.904
		l1.388,0.496l1.619-1.213l1.388,3.328l1.618-2.684l1.388-3.199l1.618,2.624l1.619,1.343l1.388-2.834l1.618-0.652l1.389,11.244
		l1.617,5.855l1.389,1.249l1.619-2.965l1.387-3.567l1.619,0.813l1.618-3.63l1.388-1.189l1.619,1.985l1.387-3.813l1.619-3.744
		l1.387-3.516l1.619-7.043l1.388,3.166l1.618-1.125l1.619-1.525l1.388-0.524l1.618,0.212l1.388,2.659l1.618,2.745l1.389,0.884
		l1.617,0.465l1.389-1.881l1.619,2.551l1.388,4.06l1.618,0.852l1.619,2.313l1.387-0.608l1.619,1.623l1.388-2.896l1.618-3.187
		l1.388-1.239l1.618,3.834l1.388-2.9l1.619-2.715l1.618,2.061l1.388,2.675l1.618-2.269l1.388,0.061L504,246.48l1.387-3.26
		l1.619-2.16l1.387,2.014l1.619,2.363l1.619,2.103l1.387,0.446l1.619,1.883l1.388-0.795l1.618-2.84l1.389,2.537l1.618,0.416
		l1.388-0.934l1.618-1.352l1.619,5.412l1.388,3.554l1.618,3.101l1.388,1.844l1.619-4.019l1.387-5.896l1.619-6.739l1.388-2.47
		l1.618,0.388l1.619,1.95l1.387,1.101l1.619,0.036l1.389-3.613l1.617,1.237l1.389,0.786l1.617,1.683l1.389,2.082l1.619,1.31
		l1.617,2.143l1.389,0.252l1.618-2.796l1.388,0.333l1.619-1l0.52-0.125"/>
</g>
</svg>
