<?xml version="1.0" encoding="utf-8"?>
<!-- Generator: Adobe Illustrator 16.0.0, SVG Export Plug-In . SVG Version: 6.00 Build 0)  -->
<!DOCTYPE svg PUBLIC "-//W3C//DTD SVG 1.1//EN" "http://www.w3.org/Graphics/SVG/1.1/DTD/svg11.dtd">
<svg version="1.1" id="Layer_1" xmlns="http://www.w3.org/2000/svg" xmlns:xlink="http://www.w3.org/1999/xlink" x="0px" y="0px"
	 width="618px" height="331px" viewBox="0 0 618 331" enable-background="new 0 0 618 331" xml:space="preserve">
<g>
	
		<line fill="none" stroke="#262626" stroke-width="0.6667" stroke-linecap="square" stroke-linejoin="round" stroke-miterlimit="10" x1="80.017" y1="295" x2="558.912" y2="295"/>
	
		<line fill="none" stroke="#262626" stroke-width="0.6667" stroke-linecap="square" stroke-linejoin="round" stroke-miterlimit="10" x1="212.979" y1="295" x2="212.979" y2="290.211"/>
	
		<line fill="none" stroke="#262626" stroke-width="0.6667" stroke-linecap="square" stroke-linejoin="round" stroke-miterlimit="10" x1="364.439" y1="295" x2="364.439" y2="290.211"/>
	
		<line fill="none" stroke="#262626" stroke-width="0.6667" stroke-linecap="square" stroke-linejoin="round" stroke-miterlimit="10" x1="515.901" y1="295" x2="515.901" y2="290.211"/>
</g>
<g transform="translate(212.9791,301.9333)">
	<text transform="matrix(1 0 0 1 -38.0001 20.0003)" fill="#262626" font-family="'ArialMT'" font-size="21">100.315</text>
</g>
<g transform="translate(364.4402,301.9333)">
	<text transform="matrix(1 0 0 1 -32.4998 20.0003)" fill="#262626" font-family="'ArialMT'" font-size="21">100.32</text>
</g>
<g transform="translate(515.9014,301.9333)">
	<text transform="matrix(1 0 0 1 -38.0001 20.0003)" fill="#262626" font-family="'ArialMT'" font-size="21">100.325</text>
</g>
<g>
	<path fill="none" stroke="#000000" stroke-width="2.3333" stroke-linejoin="round" stroke-miterlimit="10" d="M79.96,160.266
		l1.213-0.051l1.387-2.247l1.619-2.766l1.388,0.699l1.619,3.368l1.387-2.095l1.619,0.459l1.388,0.766l1.619-0.222l1.387,2.135
		l1.619,0.431l1.619,0.479l1.388,0.782l1.619,3.48l1.387,0.575l1.619,0.592l1.388-3.618l1.619,3.758l1.387,3.081l1.619,0.342
		l1.619-5.261l1.388,1.272l1.619,7.936l1.387,5.886l1.619,3.171l1.388,0.945l1.619-4.646l1.387-8.205l1.619-8.023l1.619-3.422
		l1.388,5.577l1.619,1.113l1.387,2.492l1.619,2.629l1.388-1.939l1.619,3.691l1.387,4.858l1.619-1.038l1.619-3.141l1.388-5.287
		l1.619-0.293l1.387,7.133l1.619-1.092l1.388-1.172l1.619-3.633l1.387,0.363l1.619,0.698l1.619,0.056l1.388-2.197l1.619-0.449
		l1.387,0.964l1.619-4.787l1.388,0.662l1.619,5.397l1.387-0.615l1.619,0.381l1.619,1.914l1.388-3.957l1.619,2.539l1.387,2.992
		l1.619-3.151l1.388-0.181l1.619,1.191l1.387-1.443l1.619-2.996l1.619-3.106l1.388,1.332l1.619-1.988l1.387,0.274l1.619-0.339
		l1.388-2.809l1.619,0.449l1.387,4.589l1.619,2.67l1.388,0.031l1.619-7.262l1.619-0.56l1.387,2.842l1.619,4.396l1.388,3.213
		l1.619,3.147l1.387-5.043l1.619-4.083l1.388,2.868l1.619-0.104l1.619-1.604l1.387,1.129l1.619,0.729l1.388,0.989l1.619-2.345
		l1.387-1.581l1.619-0.025l1.388-1.025l1.619,3.623l1.619,1.455l1.387-0.464l1.619,1.647l1.388-3.887l1.619-1.649l1.387,2.585
		l1.619-3.333l1.388,2.718l1.619,1.477l1.619,2.406l1.387-1.796l1.619,1.755l1.387,2.822l1.619-4.82l1.387,0.229l1.619,1.551
		l1.388,2.54l1.619,0.962l1.619-3.953l1.387,2.048l1.619-2.041l1.388-3.031l1.619,3.195l1.387-3.602l1.619,1.371l1.388,0.63
		l1.619,1.135l1.619,2.267l1.387-3.166l1.619,2.688l1.388,0.059l1.619-1.168l1.387-2.729l1.619,1.807l1.388,2.195l1.619-3.68
		l1.387-1.096l1.619-0.367l1.619-0.785l1.388,1.722l1.619,2.069l1.387,0.347l1.619,1.688l1.388-2.771l1.619,2.395l1.387-0.473
		l1.619-3.206l1.619,3.151l1.388-1.568l1.619-1.852l1.387-3.372l1.619-2.499l1.388,4.643l1.619,3.712l1.387-0.414l1.619,0.512
		l1.619-3.955l1.388,1.214l1.618-1.1l1.388,1.705l1.619,6.883l1.389-0.365l1.617-5.367l1.389,2.68l1.617-1.047l1.619-1.377
		l1.388-1.472l1.618,1.374l1.389-0.354l1.618-5.265l1.388-1.738l1.619,0.827l1.387,2.244l1.619,2.195l1.618-4.965l1.388,0.351
		l1.619,0.656l1.387,5.958l1.619-3.093l1.387,0.729l1.619-0.324l1.387-1.036l1.619,0.178l1.619,0.414l1.387-2.31l1.619,2.615
		l1.388,3.132l1.618,2.453l1.389-3.66l1.618-4.908l1.388-9.685l1.618,2.823l1.39-0.248l1.617,4.17l1.618,1.747l1.388,2.584
		l1.618,0.27l1.388-5.512l1.619,0.685l1.389,3.445l1.617,0.583l1.389,3.245l1.619,1.367l1.617,0.107l1.389-3.753l1.617-0.486
		l1.389-0.013l1.619-1.052l1.387,1.053l1.619-1.196l1.387,2.676l1.619,2.521l1.619-2.589l1.387,0.207l1.619-0.767l1.387-6.078
		l1.619,2.116l1.388-1.628l1.618,4.531l1.389-0.119l1.617-2.432l1.619,3.154l1.388-0.549l1.618-0.911l1.389,4.477l1.618-2.431
		l1.388-1.536l1.619-0.133l1.387-1.373l1.619-0.582l1.618,1.49l1.388,1.579l1.619-0.136l1.387,1.348l1.619-0.87l1.388,0.237
		l1.618-0.08l1.388,2.045l1.618-1.23l1.619-3.107l1.388-1.404l1.618-1.421l1.389,2.681l1.617-1.483l1.389,1.684l1.619,1.411
		l1.387-1.873l1.619,1.207l1.388,0.681l1.618-1.669l1.619-0.338l1.387-1.439l1.619-1.517l1.387,3.095l1.619-1.708l1.388,1.42
		l1.618,4.745l1.388,0.844l1.619,2.549l1.618-1.875l1.388,2.119l1.618,1.957l1.389-4.928l1.618-2.142l1.388-3.452l1.619-0.437
		l1.388,0.056l1.618-2.575l1.617,0.386l1.389,3.851l1.619-0.467l1.388-0.528l1.618-0.02l1.388,1.624l1.618,0.083l1.388-0.136
		l1.619-0.101l1.618,0.027l1.388-0.09l1.618,0.174l1.389,0.614l1.618-2.862l1.388,1.848l1.618,3.981l1.388,0.396l1.619,1.764
		l1.618-2.546l1.388-0.87l1.619-2.241l1.387,9.521l1.619-1.517l1.388-3.852l1.618,1.896l1.388-2.672l1.619,2.922l1.618,0.865
		l1.388-0.209l1.618-0.748l1.388-3.15l1.618,8.211l1.388-1.905l1.619-1.86l1.388,0.816l1.618-2.365l1.389-2.73l1.618,4.369
		l1.618,1.586l1.389-3.166l1.618-2.08l1.388-0.986l1.618,2.572l1.388,1.123l1.619,2.072l1.387,2.596l1.619,6.395l1.618-1.754
		l1.388-2.9l1.619,1.611l1.387,5.365l1.619-3.273l1.388-5.736l1.618-7.512l0.521-4.563"/>
	<path fill="none" stroke="#000000" stroke-width="2.3333" stroke-linejoin="round" stroke-miterlimit="10" d="M79.96,71.909
		l1.213,1.764l1.387,3.438l1.619,0.667l1.388-2.522l1.619,4.142l1.387-1.839l1.619-3.184l1.388-2.717l1.619,6.661l1.387,3.343
		l1.619-1.108l1.619-2.606l1.388,0.558l1.619-0.263l1.387-1.596l1.619,1.088l1.388-3.561l1.619,0.891l1.387,0.19l1.619,3.383
		l1.619,0.316l1.388,2.249l1.619-1.568l1.387-4.728l1.619-0.197l1.388,0.238l1.619,1l1.387-0.877l1.619-2.477l1.619-1.855
		l1.388,3.913l1.619,4.484l1.387-1.346l1.619-1.146l1.388-1.949l1.619-1.764l1.387,4.834l1.619,0.177l1.619-2.374l1.388,2.657
		l1.619-2.666l1.387,1.938l1.619,1.259l1.388-0.101l1.619,1.105l1.387,2.149l1.619-0.992l1.619,0.989l1.388-0.506l1.619-1.66
		l1.387-1.938l1.619,3.581l1.388,2.269l1.619-3.811l1.387-2.425l1.619-0.423l1.619-1.74l1.388-0.878l1.619-3.982l1.387,2.619
		l1.619,9.03l1.388,11.862l1.619,6.758l1.387,4.128l1.619-1.463l1.619-0.308l1.388-3.479l1.619-2.883l1.387-5.652l1.619-1.856
		l1.388,3.953l1.619-3.506l1.387-4.345l1.619-3.327l1.388-0.876l1.619,2.525l1.619-2.604l1.387-1.433l1.619,1.066l1.388-0.321
		l1.619,1.167l1.387,2.7l1.619,3.134l1.388-0.114l1.619-3.264l1.619,0.63l1.387,1.814l1.619-1.568l1.388-2.563l1.619,2.288
		l1.387,0.219l1.619-1.42l1.388-3.698l1.619-1.393l1.619,4.471l1.387-0.639l1.619,2.891l1.388-1.012l1.619-0.438l1.387-1.086
		l1.619-1.844l1.388-2.386l1.619,4.862l1.619,1.951l1.387-3.166l1.619-1.851l1.387-1.246l1.619,1.081l1.387,0.602l1.619-0.863
		l1.388-0.217l1.619-1.716l1.619-2.121l1.387,1.073l1.619,0.725l1.388,2.293l1.619,3.49l1.387-0.523l1.619,0.353l1.388-0.016
		l1.619,0.21l1.619-5.932l1.387,0.55l1.619-0.953l1.388-2.972l1.619,2.812l1.387-2.082l1.619-0.471l1.388,0.462l1.619,2.1
		l1.387,3.208l1.619,0.068l1.619,3.205l1.388-0.149l1.619-0.703l1.387-2.288l1.619,0.638l1.388,0.823l1.619-1.805l1.387-3.001
		l1.619,1.961l1.619,4.092l1.388-0.432l1.619-4.131l1.387,1.068l1.619,1.093l1.388,0.442l1.619,1.294l1.387-5.144l1.619-0.534
		l1.619,0.147l1.388,0.063l1.618,4.141l1.388-1.39l1.619-0.031l1.389,0.362l1.617,1.698l1.389-2.011l1.617-0.936l1.619-2.847
		l1.388,3.873l1.618-1.007l1.389,0.119l1.618,1.625l1.388,0.544l1.619,0.32l1.387-2.429l1.619,1.033l1.618-2.544l1.388-2.274
		l1.619,1.524l1.387,0.572l1.619,0.315l1.387,0.404l1.619,0.168l1.387,4.073l1.619-1.238l1.619-2.11l1.387,2.413l1.619,0.062
		l1.388,0.303l1.618,2.349l1.389-2.069l1.618-2.674l1.388-2.317l1.618,1.497l1.39,0.174l1.617,4.386l1.618,1.269l1.388,0.296
		l1.618,0.884l1.388-2.82l1.619-0.964l1.389,1.663l1.617,1.208l1.389,0.556l1.619-3.102l1.617-0.532l1.389-1.809l1.617,2.069
		l1.389-0.047l1.619-0.296l1.387,0.562l1.619-1.98l1.387-1.575l1.619,0.224l1.619,0.768l1.387,1.914l1.619-0.729l1.387-0.708
		l1.619-1.422l1.388,0.263l1.618-0.486l1.389-1.26l1.617-1.392l1.619,4.269l1.388-1.276l1.618,0.394l1.389-0.401l1.584,0.43
		l1.388,2.079l1.619-0.27l1.387-1.159l1.619-0.5l1.618,1.452l1.388-2.107l1.619-2.085l1.388-0.034l1.618-0.048l1.389,2.726
		l1.618-0.287l1.388,1.127l1.618,1.191l1.619-0.679l1.388-2.451l1.618-1.587l1.388,1.63l1.618,0.65l1.388,2.557l1.619,4.34
		l1.387-1.284l1.619-3.705l1.388,1.882l1.618-0.632l1.619,0.213l1.387,1.701l1.619-6.24l1.388,1.773l1.618-2.237l1.389-0.185
		l1.618,3.509l1.388-0.731l1.619,1.509l1.618,2.346l1.388,0.233l1.618-2.455l1.388,2.176l1.619,10.388l1.387,14.016l1.619,10.743
		l1.388,1.132l1.618-2.55l1.618-5.151l1.388-13.094l1.619-8.306l1.388-9.01l1.618-3.583l1.389-3.529l1.618-6.235l1.388-2.347
		l1.619-5.764l1.618-2.88l1.388-2.455l1.618,2.066l1.388-0.36l1.619,2.205l1.387,0.786l1.619,2.061l1.387-2.588l1.619-0.333
		l1.619,3.071l1.387,1.096l1.619,1.458l1.387,1.149l1.619,3.782l1.388,3.667l1.618,3.683l1.389,8.502l1.618,3.263l1.618,6.959
		l1.389,1.744l1.617-1.106l1.389-2.802l1.618-5.12L526.538,83l1.619-3.759l1.387,2.124l1.619-2.188l1.388,0.799l1.618-4.154
		l1.619-1.565l1.388,2.727l1.618,2.888l1.388-0.844l1.618,0.456l1.389-1.364l1.618,0.706l1.388,2.363l1.619-0.95l1.617,2.571
		l1.389-2.953l1.619-3.995l1.387-0.749l1.619,1.103l1.388,1.84l1.618,2.922l0.52,0.401"/>
	<path fill="none" stroke="#000000" stroke-width="2.3333" stroke-linejoin="round" stroke-miterlimit="10" d="M79.96,263.529
		l1.213-1.859l1.387-2.365l1.619-2.088l1.388-1.322l1.619-1.111l1.387,0.175l1.619-3.147l1.388,0.516l1.619,2.695l1.387,2.039
		l1.619,1.633l1.619,0.621l1.388,0.91l1.619,3.428l1.387-1.215l1.619-1.484l1.388-3.543l1.619,0.064l1.387,1.291l1.619-1.681
		l1.619-2.606l1.388-3.894l1.619-1.599l1.387-0.879l1.619-2.368l1.388,0.061l1.619,4.771l1.387,5.361l1.619,1.57l1.619-0.755
		l1.388-1.317l1.619,2.756l1.387,5.11l1.619,6.752l1.388,2.714l1.619-3.758l1.387-6.581l1.619-8.079l1.619-6.402l1.388-2.979
		l1.619,6.136l1.387,0.793l1.619-1.691l1.388-1.215l1.619,0.484l1.387-0.382l1.619,1.535l1.619-1.315l1.388,0.262l1.619,1.957
		l1.387-0.666l1.619,1.199l1.388,0.269l1.619,2.569l1.387,0.123l1.619-5.18l1.619-3.767l1.388,0.03l1.619,3.582l1.387,0.576
		l1.619,0.485l1.388-2.372l1.619-1.253l1.387,3.24l1.619-0.362l1.619-0.092l1.388-0.362l1.619-3.978l1.387,2.729l1.619-0.35
		l1.388,1.394l1.619,8.821l1.387,6.707l1.619,4.201l1.388-8.4l1.619-12.521l1.619-10.568l1.387-2.447l1.619,4.635l1.388,1.072
		l1.619,0.809l1.387,3.609l1.619,1.881l1.388,0.715l1.619,2.88l1.619-2.146l1.387,0.636l1.619,1.684l1.388-1.063l1.619-0.898
		l1.387-1.5l1.619-0.4l1.388-0.188l1.619,1.408l1.619,5.617l1.387-0.664l1.619,1.689l1.388,4.634l1.619,3.239l1.387-0.939
		l1.619-0.027l1.388-5.449l1.619-4.048l1.619,0.021l1.387-1.441l1.619,2.359l1.387,2.023l1.619,1.586l1.387,0.105l1.619,0.146
		l1.388,0.14l1.619,0.631l1.619-1.56l1.387-3.244l1.619,4.267l1.388-0.271l1.619-0.134l1.387,2.188l1.619,0.518l1.388-3.629
		l1.619-0.606l1.619,4.052l1.387-6.539l1.619-0.217l1.388,2.079l1.619-1.185l1.387,1.472l1.619-0.045l1.388,1.521l1.619-0.809
		l1.387,0.223l1.619-3.041l1.619-4.063l1.388,0.201l1.619-1.45l1.387,0.063l1.619,0.309l1.388-2.117l1.619,1.191l1.387,1.354
		l1.619,2.5l1.619-1.092l1.388-0.486l1.619,2.782l1.387,2.923l1.619,1.041l1.388,2.078l1.619-0.697l1.387-2.127l1.619-2.619
		l1.619-0.399l1.388-3.583l1.618-0.749l1.388,1.237l1.619,0.226l1.389,0.146l1.617,0.098l1.389-1.333l1.617-0.376l1.619,0.863
		l1.388,0.681l1.618,2.208l1.389,1.417l1.618-1.015l1.388,0.445l1.619-0.499l1.387-2.95l1.619-1.969l1.618,2.193l1.388,0.521
		l1.619,0.305l1.387,2.383l1.619,2.975l1.387-2.566l1.619,2.013l1.387-2.896l1.619-0.955l1.619,1.688l1.387,0.139l1.619,1.307
		l1.388-1.092l1.618,2.373l1.389-0.758l1.618-1.256l1.388,0.885l1.618-1.543l1.39,1.844l1.617,1.132l1.618,0.668l1.388-0.759
		l1.618,1.892l1.388,3.712l1.619,1.161l1.389-0.614l1.617-5.021l1.389-3.09l1.619,2.396l1.617-0.977l1.389-2.043l1.617-0.562
		l1.389-4.18l1.619-0.015l1.387,3.625l1.619-3.179l1.387-0.194l1.619,3.277l1.619-1.171l1.387-1.198l1.619,1.324l1.387,2.396
		l1.619-0.674l1.388-1.191l1.618,2.402l1.389-0.936l1.617,0.141l1.619,1.9l1.388-4.666l1.618-1.398l1.389,0.269l1.618,1.882
		l1.388,0.986l1.619,0.308l1.387,0.265l1.619-2.518l1.618,1.469l1.388-1.248l1.619,2.963l1.387,1.979l1.619,0.267l1.388-0.246
		l1.618-0.801l1.388-0.295l1.618-1.507l1.619-2.181l1.388,4.158l1.618-0.684l1.389-0.468l1.617-1.876l1.389-0.754l1.619,1.215
		l1.387,2.611l1.619-0.272l1.388-0.608l1.618,1.144l1.619-4.068l1.387-2.924l1.619,4.713l1.387,5.677l1.619,4.348l1.388,0.978
		l1.618-0.6l1.388-2.897l1.619-5.967l1.618-6.871l1.388-1.025l1.618-1.801l1.389-0.094l1.618,1.021l1.388,1.449l1.619,3.911
		l1.388-0.593l1.618-2.491l1.617,0.912l1.389,1.072l1.619,0.823l1.388,6.205l1.618-5.012l1.388-0.167l1.618-1.042l1.388-0.598
		l1.619,3.299l1.618-0.867l1.388-1.746l1.618-0.828l1.389,3.129l1.618-0.237l1.388,4.293l1.618-2.609l1.388,2.034l1.619,2.749
		l1.618,0.711l1.388-1.56l1.619-2.528l1.387-0.457l1.619-0.377l1.388-4.778l1.618-2.431l1.388-0.655l1.619-4.51l1.618-1.014
		l1.388,0.441l1.618,4.111l1.388,4.417l1.618,1.112l1.388,3.6l1.619-5.895l1.388-7.066l1.618,4.053l1.389,1.367l1.618,2.146
		l1.618,0.351l1.389,1.661l1.618,0.516l1.388-1.992l1.618,0.14l1.388,0.37l1.619,1.33l1.387,0.517l1.619-2.237l1.618,1.23
		l1.388,0.15l1.619-3.527l1.387-1.223l1.619,3.142l1.388,3.696l1.618-1.004l0.521,0.66"/>
</g>
</svg>
