<?xml version="1.0" encoding="utf-8"?>
<!-- Generator: Adobe Illustrator 16.0.0, SVG Export Plug-In . SVG Version: 6.00 Build 0)  -->
<!DOCTYPE svg PUBLIC "-//W3C//DTD SVG 1.1//EN" "http://www.w3.org/Graphics/SVG/1.1/DTD/svg11.dtd">
<svg version="1.1" id="Layer_1" xmlns="http://www.w3.org/2000/svg" xmlns:xlink="http://www.w3.org/1999/xlink" x="0px" y="0px"
	 width="618px" height="331px" viewBox="0 0 618 331" enable-background="new 0 0 618 331" xml:space="preserve">
<g>
	
		<line fill="none" stroke="#262626" stroke-width="0.6667" stroke-linecap="square" stroke-linejoin="round" stroke-miterlimit="10" x1="79.943" y1="295" x2="559.069" y2="295"/>
	
		<line fill="none" stroke="#262626" stroke-width="0.6667" stroke-linecap="square" stroke-linejoin="round" stroke-miterlimit="10" x1="102.604" y1="295" x2="102.604" y2="290.209"/>
	
		<line fill="none" stroke="#262626" stroke-width="0.6667" stroke-linecap="square" stroke-linejoin="round" stroke-miterlimit="10" x1="254.065" y1="295" x2="254.065" y2="290.209"/>
	
		<line fill="none" stroke="#262626" stroke-width="0.6667" stroke-linecap="square" stroke-linejoin="round" stroke-miterlimit="10" x1="405.758" y1="295" x2="405.758" y2="290.209"/>
	
		<line fill="none" stroke="#262626" stroke-width="0.6667" stroke-linecap="square" stroke-linejoin="round" stroke-miterlimit="10" x1="557.219" y1="295" x2="557.219" y2="290.209"/>
</g>
<g transform="translate(102.6044,301.9333)">
	<text transform="matrix(1 0 0 1 -32.4999 20.0003)" fill="#262626" font-family="'ArialMT'" font-size="21">100.36</text>
</g>
<g transform="translate(254.0655,301.9333)">
	<text transform="matrix(1 0 0 1 -38.0001 20.0003)" fill="#262626" font-family="'ArialMT'" font-size="21">100.365</text>
</g>
<g transform="translate(405.7579,301.9333)">
	<text transform="matrix(1 0 0 1 -32.5001 20.0003)" fill="#262626" font-family="'ArialMT'" font-size="21">100.37</text>
</g>
<g transform="translate(557.2191,301.9333)">
	<text transform="matrix(1 0 0 1 -38.0004 20.0003)" fill="#262626" font-family="'ArialMT'" font-size="21">100.375</text>
</g>
<g>
	<path fill="none" stroke="#000000" stroke-width="2.3333" stroke-linejoin="round" stroke-miterlimit="10" d="M79.886,149.923
		l0.057-0.062l1.388-1.798l1.619,1.323l1.387,2.812l1.619-0.177l1.388-1.058l1.619,4.187l1.387-0.346l1.619-1.759l1.619,2.258
		l1.388-2.602l1.619,0.436l1.387-1.1l1.619-0.057l1.388,2.484l1.619,0.561l1.387-1.328l1.619,1.054l1.619,4.692l1.388-2.5
		l1.619-2.691l1.387,3.14l1.619-1.682l1.388-2.344l1.619,0.684l1.387,5.14l1.619,0.872l1.619-0.37l1.388-1.307l1.619,0.498
		l1.387-1.023l1.619-2.726l1.388,2.58l1.619,0.576l1.387-1.066l1.619-0.62l1.619-0.885l1.388,1.645l1.619,1.586l1.387-1.934
		l1.619-1.116l1.388-6.117l1.619,5.095l1.387,5.508l1.619,2.959l1.619,0.411l1.388-8.562l1.619,1.326l1.387-0.49l1.619-5.12
		l1.388,2.289l1.619,2.386l1.387,0.212l1.619,0.214l1.619-1.014l1.388-1.067l1.619,3.861l1.387-2.895l1.619-0.604l1.388-3.616
		l1.619,1.835l1.387-0.136l1.619,2.617l1.388,0.953l1.619-1.929l1.619,0.793l1.387-1.409l1.619,1.728l1.388-2.24l1.619,3.54l1.387,0
		l1.619-1.539l1.388,2.328l1.619,1.964l1.619,1.113l1.387,1.559l1.619-2.377l1.388-3.709l1.619-1.244l1.387-1.866l1.619-0.868
		l1.388-0.619l1.619,4.125l1.619,0.787l1.387,0.556l1.619-5.999l1.388,1.351l1.619,2.589l1.387-3.112l1.619,0.751l1.388,1.571
		l1.619,2.432l1.619-2.374l1.387-2.421l1.619,0.193l1.388-2.526l1.619,1.239l1.387,5.793l1.619,1.727l1.388,2.34l1.619,0.676
		l1.619,0.694l1.387,2.377l1.619,1.087l1.388-1.484l1.619,3.659l1.387-2.798l1.619-6.204l1.388-2.276l1.619-1.359l1.619,4.444
		l1.387-3.998l1.619-0.664l1.388-4.747l1.619-1.421l1.387,6.034l1.619,2.346l1.388-0.5l1.619,2.863l1.387-0.283l1.619,1.122
		l1.619-2.787l1.388,1.069l1.619,0.645l1.387,0.344l1.619,0.549l1.388-3.714l1.619-0.829l1.387,0.969l1.619,1.996l1.619-1.883
		l1.388-1.529l1.619-3.758l1.387-1.326l1.619,5.11l1.388-1.556l1.619,4.205l1.387,6.059l1.619,7.686l1.619-1.278l1.388-11.861
		l1.619-3.972l1.387,2.824l1.619-3.368l1.388,0.401l1.619-1.591l1.387-1.21l1.619-0.286l1.619-0.552l1.388,2.157l1.619-0.429
		l1.387,0.019l1.618-2.079l1.389-6.612l1.618,5.172l1.388,3.085l1.618,4.586l1.618-1.516l1.389-1.569l1.618-2.573l1.388,0.296
		l1.618-0.787l1.388,2.416l1.619,0.952l1.387-0.462l1.619,0.472l1.618-5.167l1.388-4.731l1.619,6.94l1.387,5.179l1.619-3.441
		l1.387-2.056l1.619,1.595l1.387,0.668l1.619,2.427l1.388,0.228l1.618,2.328l1.619,2.537l1.387-0.441l1.619,1.726l1.388-1.756
		l1.618,0.673l1.388-1.252l1.618-2.753l1.389-0.438l1.618-1.664l1.618-3.989l1.388-1.495l1.618,0.435l1.389,0.38l1.618,3.441
		l1.388,5.551l1.618,1.426l1.388-5.491l1.619-2.865l1.618-1.343l1.388,0.84l1.618-0.318l1.388,5.1l1.619,0.719l1.387-1.056
		l1.619-3.995l1.387,5.682l1.619-0.458l1.619-4.405l1.387,1.525l1.619,0.336l1.387,1.411l1.619,2.149l1.388-7.627l1.618-2.983
		l1.388,2.477l1.618-1.823l1.619-2.504l1.388,1.546l1.618,4.944l1.388,2.823l1.618-1.694l1.388,4.148l1.619,1.019l1.387-7.623
		l1.619,1.397l1.618-1.42l1.388,3.463l1.619-2.385l1.387-0.169l1.619,1.994l1.388-1.398l1.618-0.594l1.388,0.438l1.618-0.472
		l1.388,1.579l1.619,2.185l1.618-4.068l1.388-0.101l1.618,3.581l1.388-2.748l1.619,2.187l1.387,0.892l1.619-1.053l1.388-3.667
		l1.618,1.537l1.619-1.382l1.387,4.682l1.619-4.63l1.387-0.272l1.619,9.446l1.388-0.576l1.618,3.097l1.388,0.77l1.619-0.42
		l1.618-1.175l1.388,1.655l1.618-2.319l1.388-2.757l1.619-3.256l1.387,1.825l1.619-3.104l1.388-2.319l1.618-3.394l1.619,2.076
		l1.387,0.809l1.619,4.188l1.388,1.512l1.618-6.053l1.388,0.069l1.618-0.198l1.388,4.037l1.619-3.794l1.618-2.623l1.388,1.4
		l1.618,0.229l1.388-1.934l1.619,4.195l1.387,3.611l1.619-3.152l1.387-3.902l1.619-0.862l1.619,8.222l1.387,11.172l1.619-0.026
		l1.388-6.001l1.618,4.005l1.388,3.319l1.618-7.788l1.388-6.137l1.619-1.034l1.387-2.286l1.619,2.624l1.618,5.706l1.388-4.067
		l1.619-2.349l1.387-1.839l1.619,5.294l1.388,1.456l1.618-3.725l1.388,0.107l1.618-6.594l1.619-0.327l1.388-0.859l1.618-0.93
		l1.388-1.459l1.618,2.666l1.388,1.925l1.619,0.57l1.387,3.222l1.619-1.86l1.618,3.218l1.388-0.971l1.619-0.569l1.387-0.665
		l1.619-1.545l1.388,0.415l1.618,3.24l1.388-2.592l1.618,0.073l1.619-0.459l0.288,0.257"/>
	<path fill="none" stroke="#000000" stroke-width="2.3333" stroke-linejoin="round" stroke-miterlimit="10" d="M79.886,59.601
		l0.057-0.004l1.388,3.998l1.619,3.788l1.387-1.515l1.619,0.603l1.388,4.482l1.619,13.384l1.387,16.111l1.619-4.08l1.619-24.508
		l1.388-20.502l1.619-4.847l1.387,3.134l1.619-0.697l1.388-0.288l1.619,3.597l1.387,2.559l1.619,4.198l1.619-0.533l1.388-0.292
		l1.619,0.891l1.387,3.086l1.619-0.72l1.388,1.115l1.619,0.293l1.387-0.887l1.619,3.305l1.619-0.907l1.388,1.237l1.619,1.577
		l1.387,0.184l1.619,1.349l1.388,0.223l1.619-0.502l1.387-0.026l1.619,1.844l1.619-0.385l1.388-0.707l1.619-4.373l1.387-1.012
		l1.619-3.365l1.388,1.608l1.619,3.981l1.387,3.821l1.619-0.542l1.619,2.111l1.388-2.69l1.619,0.267l1.387-0.217l1.619-0.548
		l1.388-2.144l1.619,3.07l1.387-1.524l1.619-1.029l1.619,1.898l1.388-1.168l1.619,0.399l1.387,0.301l1.619-2.132l1.388,0.497
		l1.619-1.835l1.387,1.747l1.619-0.892l1.388-1.287l1.619,3.222l1.619,3.516l1.387-0.281l1.619-3.366l1.388,0.313l1.619-0.147
		l1.387-3.242l1.619,2.979L188.856,70l1.619,0.746l1.619-2.129L193.481,67l1.619,0.124l1.388,1.937l1.619-3.407l1.387-1.026
		l1.619,1.076l1.388-1.77l1.619,0.887l1.619,5.365l1.387,1.41l1.619-4.043l1.388,2.514l1.619,3.31l1.387-3.073l1.619-0.45
		l1.388-1.15l1.619-0.719l1.619-0.917l1.387-0.478l1.619-1.295l1.388,2.072l1.619,0.707l1.387,1.321l1.619-1.332l1.388-2.072
		l1.619,2.782l1.619,2.105l1.387-2.797l1.619-0.196l1.388-0.518l1.619,0.327l1.387-0.945l1.619,2.446l1.388,1.216l1.619-2
		l1.619,2.007l1.387,0.749l1.619,0.286l1.388-1.973l1.619-3.839l1.387-2.344l1.619,4.269l1.388,0.295l1.619-2.479l1.387,0.359
		l1.619,4.964l1.619-0.302l1.388,0.916l1.619,2.528l1.387,2.058l1.619-2.384l1.388-1.442l1.619-0.501l1.387,0.761l1.619,1.919
		l1.619,1.81l1.388-1.539l1.619-0.621l1.387-1.897l1.619,1.221l1.388-3.243l1.619,2.445l1.387,2.38l1.619-1.277l1.619-1.967
		l1.388,0.879l1.619-4.284l1.387-3.076l1.619,0.81l1.388-2.592l1.619,4.221l1.387,6.55l1.619,0.094l1.619-0.543l1.388-1.767
		l1.619,4.144l1.387-0.37l1.618,0.095l1.389,1.77l1.618-1.859l1.388-1.684l1.618,0.808l1.618-2.709l1.389-2.373l1.618-2.014
		l1.388-0.15l1.618,2.739l1.388,0.232l1.619,0.819l1.387,1.719l1.619-1.923l1.618,0.179l1.388-1.776l1.619,0.363l1.387,2.001
		l1.619,1.642l1.387,7.288l1.619,3.247l1.387-1.592l1.619-6.986l1.388,0.927l1.618-3.55l1.619-3.318l1.387-4.983l1.619-1.902
		l1.388-1.801l1.618-2.737l1.388,4.799l1.618-1.346l1.389-1.573l1.618,2.133l1.618,3.229l1.388-0.148l1.618-4.012l1.389-1.14
		l1.618-2.434l1.388-0.751l1.618,0.409l1.388,3.973l1.619,3.669l1.618,0.392l1.388-2.411l1.618-1.817l1.388-0.139l1.619,2.185
		l1.387-0.732l1.619,1.466l1.387,3.688l1.619,1.153l1.619,0.6l1.387,2.26l1.619-0.567l1.387-1.602l1.619-0.592l1.388,2.738
		l1.618-2.03l1.388,2.839l1.618-0.202l1.619-1.029l1.388-1.435l1.618-0.971l1.388,1.596l1.618-2.193l1.388-1.192l1.619,0.596
		l1.387,3.955l1.619,1.487l1.618-0.103l1.388,3.708l1.619,0.477l1.387-1.384l1.619-0.853l1.388-0.226l1.618-1.886l1.388,0.948
		l1.618,0.777l1.388-0.709l1.619,2.854l1.618-3.347l1.388-2.646l1.618,1.714l1.388,0.608l1.619,2.265l1.387-0.554l1.619-0.909
		l1.388,2.081l1.618,0.814l1.619-0.018l1.387-0.647l1.619-5.156l1.387-6.927l1.619,3.108l1.388,3.99l1.618-0.835l1.388-1.797
		l1.619-0.229l1.618,3.828l1.388,4.187l1.618-2.992l1.388-0.787l1.619-1.125l1.387-3.537l1.619-0.739l1.388,2.529l1.618,2.759
		l1.619-0.355l1.387-0.28l1.619-1.689l1.388-5.072l1.618-0.195l1.388,2.087l1.618,1.919l1.388-3.809l1.619,2.545l1.618-2.021
		l1.388-3.5l1.618-0.018l1.388,0.087l1.619,3.227l1.387,0.146l1.619-0.633l1.387,1.424l1.619,1.513l1.619-0.681l1.387,1.274
		l1.619-0.273l1.388-2.295l1.618-3.068l1.388-0.591l1.618,5.166l1.388-1.481l1.619-1.514l1.387,4.971l1.619,1.702l1.618-4.68
		l1.388-0.434l1.619,1.126l1.387-1.484l1.619,2.023l1.388,0.781l1.618-2.374l1.388-0.123l1.618,3.081l1.619,2.3l1.388-1.557
		l1.618-2.071l1.388-0.139l1.618-1.355l1.388,2.534l1.619,2.36l1.387-1.665l1.619-2.431l1.618,0.901l1.388-1.732l1.619-0.476
		l1.387-2.264l1.619,0.368l1.388,2.831l1.618-0.01l1.388,1.079l1.618,0.661l1.619,0.862l0.288-0.251"/>
	<path fill="none" stroke="#000000" stroke-width="2.3333" stroke-linejoin="round" stroke-miterlimit="10" d="M79.886,243.771
		l0.057,0.076l1.388-0.627l1.619,2.051l1.387-0.119l1.619,2.884l1.388,0.1l1.619-4.87l1.387,0.342l1.619-1.245l1.619,0.985
		l1.388,0.619l1.619-0.058l1.387-3.626l1.619-0.673l1.388,1.476l1.619,3.404l1.387-1.491l1.619-0.274l1.619,3.428l1.388,12.748
		l1.619,6.412l1.387,5.695l1.619-4.916l1.388-8.713l1.619-6.686l1.387-6.002l1.619,0.166l1.619-0.955l1.388-2.29l1.619-2.081
		l1.387-7.301l1.619-0.465l1.388-2.102l1.619-1.831l1.387,1.067l1.619-2.16l1.619,2.149l1.388,3.228l1.619,1.512l1.387-1.049
		l1.619,3.115l1.388,2.172l1.619,0.843l1.387,0.517l1.619-0.236l1.619-0.363l1.388-1.404l1.619-1.594l1.387-0.002l1.619,0.377
		l1.388,1.171l1.619,0.302l1.387,2.808l1.619,0.61l1.619-2.9l1.388-2.67l1.619,4.873l1.387,3.473l1.619,0.307l1.388,0.469
		l1.619,1.847l1.387,0.604l1.619,0.651l1.388-0.948l1.619-2.425l1.619-0.611l1.387-0.554l1.619-2.83l1.388,0.577l1.619,1.104
		l1.387-1.093l1.619-1.298l1.388,1.48l1.619,2.541l1.619-2.574l1.387-4.043l1.619-3.544l1.388,0.507l1.619,3.493l1.387-0.364
		l1.619-4.161l1.388-2.55l1.619,2.817l1.619-0.011l1.387,4.268l1.619,2.77l1.388,0.796l1.619,2.588l1.387,0.146l1.619,0.289
		l1.388,1.824l1.619-0.932l1.619,0.91l1.387-1.959l1.619,1.4l1.388,1.773l1.619-4.002l1.387-0.605l1.619-1.737l1.388,3.681
		l1.619,1.84l1.619-4.705l1.387,5.438l1.619-0.171l1.388,1.358l1.619-0.717l1.387-2.683l1.619-2.896l1.388,2.699l1.619,1.708
		l1.619-0.683l1.387-1.868l1.619-2.376l1.388,0.771l1.619,4.947l1.387-4.399l1.619-1.141l1.388-2.886l1.619,0.298l1.387,4.684
		l1.619-0.313l1.619,1.244l1.388-3.181l1.619,2.056l1.387,0.843l1.619-1.468l1.388-0.665l1.619-1.591l1.387,1.622l1.619,0.345
		l1.619-1.533l1.388-0.986l1.619-1.409l1.387-0.144l1.619-2.407l1.388,1.095l1.619-2.988l1.387,1.088l1.619-1.332l1.619,3.938
		l1.388-2.285l1.619-1.996l1.387,1.196l1.619-2.827l1.388,1.961l1.619,2.748l1.387,1.783l1.619,0.698l1.619-2.071l1.388-5.01
		l1.619,0.573l1.387,0.763l1.618,3.483l1.389,2.045l1.618-4.022l1.388,0.109l1.618-1.604l1.618-2.039l1.389,2.393l1.618-0.934
		l1.388,0.102l1.618,0.554l1.388-0.071l1.619,0.542l1.387-2.014l1.619,2.71l1.618,2.99l1.388,2.975l1.619-3.289l1.387,1.43
		l1.619,1.57l1.387-0.752l1.619,0.705l1.387,1.879l1.619,0.496l1.388,1.783l1.618,3.52l1.619,6.036l1.387-1.806l1.619-6.255
		l1.388-0.596l1.618-0.966l1.388-0.779l1.618-0.019l1.389-2.106l1.618,1.086l1.618,1.098l1.388,0.438l1.618-2.243l1.389-3.629
		l1.618,1.59l1.388,0.217l1.618-0.284l1.388,1.994l1.619,1.981l1.618-1.369l1.388,7.388l1.618,6.37l1.388,5.795l1.619-2.58
		l1.387-6.641l1.619-4.697l1.387-2.819l1.619-5.948l1.619-4.572l1.387-3.794l1.619-0.461l1.387,1.248l1.619,0.765l1.388,3.917
		l1.618,0.503l1.388-1.539l1.618-0.873l1.619,2.124l1.388,2.333l1.618-1.586l1.388,0.25l1.618,1.917l1.388,2.269l1.619,1.273
		l1.387,1.482l1.619-4.919l1.618-2.786l1.388-3.51l1.619-0.643l1.387,2.258l1.619-0.29l1.388-1.229l1.618-0.16l1.388-1.301
		l1.618,5.976l1.388-0.359l1.619-0.871l1.618-0.109l1.388-4.755l1.618,6.029l1.388,0.042l1.619-2.743l1.387,3.481l1.619,1.978
		l1.388-2.875l1.618-3.414l1.619,5.906l1.387-0.143l1.619,1.986l1.387-0.484l1.619-5.742l1.388,1.553l1.618-1.537l1.388,0.596
		l1.619,3.072l1.618,2.059l1.388,1.734l1.618,1.572l1.388-2.138l1.619,1.634l1.387-0.129l1.619-0.332l1.388,1.943l1.618,4.25
		l1.619,3.863l1.387-4.134l1.619-8.621l1.388-1.442l1.618,1.425l1.388,0.416l1.618,0.398l1.388,0.872l1.619-0.271l1.618-1.832
		l1.388,2.345l1.618,2.268l1.388-0.359l1.619,2.371l1.387,0.322l1.619-2.045l1.387-1.659l1.619-2.415l1.619-1.336l1.387,3.88
		l1.619,0.188l1.388-0.921l1.618-0.077l1.388-4.494l1.618-0.521l1.388,3.79l1.619-6.489l1.387-1.299l1.619,2.006l1.618,1.325
		l1.388,0.146l1.619,1.877l1.387-4.676l1.619-0.656l1.388,1.656l1.618-0.679l1.388-1.669l1.618,2.066l1.619,0.254l1.388,0.456
		l1.618,4.085l1.388,1.084l1.618-0.75l1.388-1.069l1.619,2.057l1.387-1.491l1.619-2.161l1.618,0.304l1.388,1.488l1.619-2.487
		l1.387-1.567l1.619,2.294l1.388,2.505l1.618-1.316l1.388-2.076l1.618-0.189l1.619,0.931l0.288-0.028"/>
</g>
</svg>
