<?xml version="1.0" encoding="utf-8"?>
<!-- Generator: Adobe Illustrator 16.0.0, SVG Export Plug-In . SVG Version: 6.00 Build 0)  -->
<!DOCTYPE svg PUBLIC "-//W3C//DTD SVG 1.1//EN" "http://www.w3.org/Graphics/SVG/1.1/DTD/svg11.dtd">
<svg version="1.1" id="Layer_1" xmlns="http://www.w3.org/2000/svg" xmlns:xlink="http://www.w3.org/1999/xlink" x="0px" y="0px"
	 width="618px" height="331px" viewBox="0 0 618 331" enable-background="new 0 0 618 331" xml:space="preserve">
<g>
	
		<line fill="none" stroke="#262626" stroke-width="0.6667" stroke-linecap="square" stroke-linejoin="round" stroke-miterlimit="10" x1="80.009" y1="295" x2="558.904" y2="295"/>
	
		<line fill="none" stroke="#262626" stroke-width="0.6667" stroke-linecap="square" stroke-linejoin="round" stroke-miterlimit="10" x1="135.969" y1="295" x2="135.969" y2="290.211"/>
	
		<line fill="none" stroke="#262626" stroke-width="0.6667" stroke-linecap="square" stroke-linejoin="round" stroke-miterlimit="10" x1="287.43" y1="295" x2="287.43" y2="290.211"/>
	
		<line fill="none" stroke="#262626" stroke-width="0.6667" stroke-linecap="square" stroke-linejoin="round" stroke-miterlimit="10" x1="438.892" y1="295" x2="438.892" y2="290.211"/>
</g>
<g transform="translate(135.9689,301.9333)">
	<text transform="matrix(1 0 0 1 -38.0002 20.0003)" fill="#262626" font-family="'ArialMT'" font-size="21">100.315</text>
</g>
<g transform="translate(287.4301,301.9333)">
	<text transform="matrix(1 0 0 1 -32.4999 20.0003)" fill="#262626" font-family="'ArialMT'" font-size="21">100.32</text>
</g>
<g transform="translate(438.8912,301.9333)">
	<text transform="matrix(1 0 0 1 -38.0006 20.0003)" fill="#262626" font-family="'ArialMT'" font-size="21">100.325</text>
</g>
<g>
	<path fill="none" stroke="#000000" stroke-width="2.3333" stroke-linejoin="round" stroke-miterlimit="10" d="M79.952,168.684
		l1.444-4.272l1.388,0.662l1.619,5.398l1.387-0.615l1.619,0.381l1.619,1.913l1.388-3.956l1.619,2.539l1.387,2.992l1.619-3.152
		l1.388-0.18l1.619,1.191l1.387-1.443l1.619-2.996l1.619-3.107l1.388,1.332l1.619-1.988l1.387,0.274l1.619-0.339l1.388-2.809
		l1.619,0.449l1.387,4.589l1.619,2.67l1.388,0.031l1.619-7.262l1.619-0.56l1.387,2.842l1.619,4.396l1.388,3.213l1.619,3.148
		l1.387-5.043l1.619-4.083l1.388,2.867l1.619-0.103l1.619-1.604l1.387,1.129l1.619,0.729l1.388,0.989l1.619-2.344l1.387-1.581
		l1.619-0.025l1.388-1.025l1.619,3.623l1.619,1.455l1.387-0.464l1.619,1.647l1.388-3.887l1.619-1.649l1.387,2.585l1.619-3.333
		l1.388,2.718l1.619,1.476l1.619,2.407l1.387-1.796l1.619,1.755l1.388,2.822l1.619-4.82l1.387,0.229l1.619,1.551l1.388,2.54
		l1.619,0.962l1.619-3.953l1.387,2.047l1.619-2.04l1.388-3.031l1.619,3.194l1.387-3.601l1.619,1.371l1.388,0.63l1.619,1.135
		l1.619,2.266l1.387-3.165l1.619,2.687l1.388,0.059l1.619-1.169l1.387-2.728l1.619,1.806l1.388,2.196l1.619-3.679l1.387-1.097
		l1.619-0.367l1.619-0.785l1.388,1.722l1.619,2.069l1.387,0.347l1.619,1.688l1.388-2.771l1.619,2.395l1.387-0.473l1.619-3.206
		l1.619,3.151l1.388-1.568l1.619-1.852l1.387-3.372l1.619-2.499l1.388,4.643l1.619,3.713l1.387-0.415l1.619,0.512l1.619-3.955
		l1.388,1.214l1.619-1.1l1.387,1.704l1.619,6.883l1.388-0.365l1.619-5.367l1.387,2.68l1.619-1.047l1.619-1.377l1.388-1.472
		l1.619,1.374l1.387-0.354l1.619-5.264l1.388-1.738l1.619,0.827l1.387,2.244l1.619,2.196l1.619-4.966l1.388,0.351l1.619,0.656
		l1.387,5.959l1.619-3.094l1.388,0.729l1.619-0.324l1.387-1.036l1.619,0.178l1.619,0.414l1.388-2.31l1.619,2.615l1.387,3.132
		l1.619,2.453l1.388-3.66l1.619-4.908l1.387-9.685l1.619,2.823l1.388-0.248l1.619,4.17l1.619,1.747l1.387,2.584l1.619,0.27
		l1.388-5.512l1.619,0.685l1.387,3.445l1.619,0.583l1.388,3.245l1.619,1.367l1.619,0.108l1.387-3.753l1.619-0.486l1.388-0.013
		l1.619-1.052l1.388,1.053l1.618-1.196l1.388,2.676l1.619,2.521l1.618-2.589l1.388,0.207l1.618-0.767l1.388-6.078l1.619,2.116
		l1.387-1.628l1.619,4.531l1.387-0.119l1.619-2.432l1.619,3.154l1.387-0.549l1.619-0.911l1.387,4.477l1.619-2.431l1.387-1.536
		l1.619-0.133l1.388-1.373l1.618-0.582l1.619,1.49l1.387,1.579l1.619-0.136l1.388,1.348l1.618-0.87l1.388,0.237l1.618-0.08
		l1.389,2.045l1.618-1.23l1.618-3.107l1.388-1.404l1.618-1.421l1.389,2.681l1.618-1.483l1.388,1.684l1.618,1.411l1.388-1.873
		l1.619,1.207l1.387,0.681l1.619-1.669l1.618-0.338l1.388-1.439l1.619-1.517l1.387,3.095l1.619-1.708l1.387,1.42l1.619,4.745
		l1.387,0.843l1.619,2.549l1.619-1.875l1.387,2.119l1.619,1.958l1.387-4.928l1.619-2.142l1.388-3.452l1.618-0.437l1.388,0.056
		l1.619-2.575l1.618,0.386l1.388,3.851l1.618-0.467l1.388-0.528l1.619-0.02l1.387,1.624l1.619,0.083l1.388-0.136l1.618-0.101
		l1.619,0.027l1.387-0.09l1.619,0.174l1.388,0.614l1.618-2.862l1.388,1.848l1.618,3.981l1.388,0.396l1.619,1.764l1.618-2.546
		l1.388-0.87l1.618-2.241l1.388,9.521l1.619-1.516l1.387-3.852l1.619,1.896l1.388-2.671l1.618,2.922l1.619,0.865l1.387-0.209
		l1.619-0.748l1.388-3.15l1.618,8.21l1.388-1.905l1.618-1.861l1.388,0.817l1.619-2.365l1.387-2.731l1.619,4.369l1.618,1.586
		l1.388-3.165l1.619-2.081l1.387-0.986l1.619,2.572l1.388,1.123l1.618,2.072l1.388,2.596l1.618,6.395l1.619-1.754l1.388-2.9
		l1.618,1.611l1.388,5.365l1.618-3.274l1.388-5.735l1.619-7.512l1.387-12.188l1.619-1.779l1.618-1.307l1.388,2.67l1.619-5.624
		l1.387,2.637l1.619-1.685l1.388-0.262l1.618,3.622l1.388,3.567l1.618,2.11l1.619,0.725l1.388,9.033l1.618,5.152l1.388,0.344
		l1.618-2.914l1.388,3.942l1.619,9.585l1.387,2.643l1.619-5.259l1.618-6.583l1.388-2.957l1.619-2.563l1.387-8.699l1.619,4.167
		l1.388,0.658l1.618,2.239l1.388,4.092l1.618-0.92l1.619,1.127l1.388,2.109l1.618,0.87l1.388-6.729l1.618-6.914l1.388,4l1.619,7.284
		l1.387-1.427l1.619-7.417l1.388-3.473l1.618-3.794l1.619-7.13l1.387,4.972l1.619,2.342l1.388,2.151l1.618-0.77l1.388,1.274
		l1.618-1.916l1.388-0.49l1.619,2.717l1.618,0.887l1.388,0.978l0.288-0.054"/>
	<path fill="none" stroke="#000000" stroke-width="2.3333" stroke-linejoin="round" stroke-miterlimit="10" d="M79.952,78.186
		l1.444,3.195l1.388,2.269l1.619-3.811l1.387-2.425l1.619-0.423l1.619-1.74l1.388-0.878l1.619-3.982l1.387,2.619l1.619,9.03
		l1.388,11.862l1.619,6.758l1.387,4.128l1.619-1.463l1.619-0.308l1.388-3.479l1.619-2.883l1.387-5.652l1.619-1.856l1.388,3.953
		l1.619-3.506l1.387-4.345l1.619-3.327l1.388-0.876l1.619,2.525l1.619-2.604l1.387-1.433l1.619,1.066l1.388-0.321l1.619,1.167
		l1.387,2.7l1.619,3.134l1.388-0.114l1.619-3.264l1.619,0.63l1.387,1.814l1.619-1.568l1.388-2.562l1.619,2.288l1.387,0.219
		l1.619-1.42l1.388-3.698l1.619-1.393l1.619,4.471l1.387-0.639l1.619,2.891l1.388-1.012l1.619-0.438l1.387-1.086l1.619-1.844
		l1.388-2.386l1.619,4.862l1.619,1.951l1.387-3.166l1.619-1.851l1.388-1.246l1.619,1.081l1.387,0.602l1.619-0.863l1.388-0.217
		l1.619-1.716l1.619-2.121l1.387,1.073l1.619,0.725l1.388,2.293l1.619,3.49l1.387-0.523l1.619,0.353l1.388-0.016l1.619,0.21
		l1.619-5.932l1.387,0.55l1.619-0.953l1.388-2.972l1.619,2.812l1.387-2.082l1.619-0.471l1.388,0.462l1.619,2.1l1.387,3.208
		l1.619,0.068l1.619,3.205l1.388-0.149l1.619-0.703l1.387-2.288l1.619,0.638l1.388,0.823l1.619-1.805l1.387-3.001l1.619,1.961
		l1.619,4.092l1.388-0.432l1.619-4.131l1.387,1.068l1.619,1.093l1.388,0.442l1.619,1.294l1.387-5.144l1.619-0.534l1.619,0.147
		l1.388,0.063l1.619,4.141l1.387-1.39l1.619-0.031l1.388,0.362l1.619,1.698l1.387-2.011l1.619-0.936l1.619-2.847l1.388,3.873
		l1.619-1.007l1.387,0.119l1.619,1.625l1.388,0.544l1.619,0.32l1.387-2.429l1.619,1.033l1.619-2.544l1.388-2.274l1.619,1.524
		l1.387,0.572l1.619,0.315l1.388,0.404l1.619,0.168l1.387,4.073l1.619-1.238l1.619-2.11l1.388,2.413l1.619,0.062l1.387,0.303
		l1.619,2.349l1.388-2.069l1.619-2.674l1.387-2.317l1.619,1.497l1.388,0.174l1.619,4.386l1.619,1.269l1.387,0.296l1.619,0.884
		l1.388-2.82l1.619-0.964l1.387,1.663l1.619,1.208l1.388,0.556l1.619-3.102l1.619-0.532l1.387-1.809l1.619,2.069l1.388-0.047
		l1.619-0.296l1.388,0.562l1.618-1.98l1.388-1.575l1.619,0.224l1.618,0.768l1.388,1.914l1.618-0.729l1.388-0.708l1.619-1.422
		l1.387,0.263l1.619-0.486l1.387-1.26l1.619-1.392l1.619,4.269l1.387-1.276l1.619,0.394l1.387-0.401l1.619,0.431l1.387,2.079
		l1.619-0.27l1.388-1.159l1.618-0.5l1.619,1.452l1.387-2.107l1.619-2.085l1.388-0.034l1.618-0.048l1.388,2.726l1.618-0.287
		l1.389,1.127l1.618,1.191l1.618-0.679l1.388-2.451l1.618-1.587l1.389,1.63l1.618,0.65l1.388,2.557l1.618,4.34l1.388-1.284
		l1.619-3.705l1.387,1.882l1.619-0.632l1.618,0.213l1.388,1.701l1.619-6.24l1.387,1.773l1.619-2.237l1.387-0.185l1.619,3.509
		l1.387-0.731l1.619,1.509l1.619,2.346l1.387,0.233l1.619-2.455l1.387,2.176l1.619,10.388l1.388,14.016l1.618,10.743l1.388,1.132
		l1.619-2.55l1.618-5.151l1.388-13.094l1.618-8.306l1.388-9.01l1.619-3.583l1.387-3.529l1.619-6.235l1.388-2.347l1.618-5.764
		l1.619-2.88l1.387-2.455l1.619,2.066l1.388-0.36l1.618,2.205l1.388,0.786l1.618,2.061l1.388-2.588l1.619-0.333l1.618,3.071
		l1.388,1.096l1.618,1.458l1.388,1.149l1.619,3.782l1.387,3.667l1.619,3.683l1.388,8.502l1.618,3.263l1.619,6.959l1.387,1.744
		l1.619-1.106l1.388-2.802l1.618-5.12L449.528,83l1.618-3.759l1.388,2.124l1.619-2.188l1.387,0.799l1.619-4.154l1.618-1.565
		l1.388,2.727l1.619,2.888l1.387-0.844l1.619,0.456l1.388-1.364l1.618,0.706l1.388,2.363l1.618-0.95l1.619,2.571l1.388-2.953
		l1.618-3.995l1.388-0.749l1.618,1.103l1.388,1.84l1.619,2.922l1.387,1.071l1.619-1.339l1.618,0.104l1.388-0.65l1.619-2.637
		l1.387-1.384l1.619,3.586l1.388,1.334l1.618,0.019l1.388-2.856l1.618-2.051l1.619,0.757l1.388-1.721l1.618,2.05l1.388-0.908
		l1.618-0.178l1.388,3.792l1.619-2.625l1.387,0.796l1.619-0.479l1.618,2.821l1.388,2.511l1.619,2.132l1.387-0.27l1.619,0.381
		l1.388-1.327l1.618-0.186l1.388-1.988l1.618,2.025l1.619-1.358l1.388,1.644l1.618-1.125l1.388,1.114l1.618,0.616l1.388,0.353
		l1.619-0.81l1.387,1.822l1.619-0.923l1.388,3.336l1.618,0.1l1.619-0.104l1.387-1.663l1.619-2.854l1.388-0.893l1.618-2.417
		l1.388,3.931l1.618,0.278l1.388,4.258l1.619-1.274l1.618-1.004l1.388,1.167l0.288,0.467"/>
	<path fill="none" stroke="#000000" stroke-width="2.3333" stroke-linejoin="round" stroke-miterlimit="10" d="M79.952,250.986
		l1.444,1.07l1.388,0.269l1.619,2.569l1.387,0.124l1.619-5.18l1.619-3.767l1.388,0.03l1.619,3.583l1.387,0.575l1.619,0.486
		l1.388-2.372l1.619-1.253l1.387,3.24l1.619-0.362l1.619-0.092l1.388-0.362l1.619-3.978l1.387,2.73l1.619-0.35l1.388,1.393
		l1.619,8.822l1.387,6.707l1.619,4.201l1.388-8.4l1.619-12.521l1.619-10.568l1.387-2.448l1.619,4.635l1.388,1.073l1.619,0.809
		l1.387,3.608l1.619,1.882l1.388,0.714l1.619,2.88l1.619-2.146l1.387,0.635l1.619,1.684l1.388-1.063l1.619-0.898l1.387-1.5
		l1.619-0.4l1.388-0.188l1.619,1.409l1.619,5.617l1.387-0.664l1.619,1.689l1.388,4.634l1.619,3.239l1.387-0.94l1.619-0.026
		l1.388-5.45l1.619-4.048l1.619,0.021l1.387-1.441l1.619,2.359l1.388,2.023l1.619,1.586l1.387,0.105l1.619,0.146l1.388,0.139
		l1.619,0.631l1.619-1.559l1.387-3.244l1.619,4.266l1.388-0.271l1.619-0.134l1.387,2.188l1.619,0.518l1.388-3.629l1.619-0.606
		l1.619,4.051l1.387-6.539l1.619-0.216l1.388,2.079l1.619-1.184l1.387,1.471l1.619-0.045l1.388,1.521l1.619-0.809l1.387,0.222
		l1.619-3.041l1.619-4.062l1.388,0.201l1.619-1.45l1.387,0.063l1.619,0.309l1.388-2.117l1.619,1.191l1.387,1.354l1.619,2.5
		l1.619-1.092l1.388-0.486l1.619,2.782l1.387,2.923l1.619,1.041l1.388,2.078l1.619-0.697l1.387-2.127l1.619-2.619l1.619-0.4
		l1.388-3.583l1.619-0.749l1.387,1.238l1.619,0.225l1.388,0.146l1.619,0.097l1.387-1.333l1.619-0.376l1.619,0.864l1.388,0.68
		l1.619,2.208l1.387,1.417l1.619-1.014l1.388,0.445l1.619-0.499l1.387-2.95l1.619-1.969l1.619,2.193l1.388,0.521l1.619,0.305
		l1.387,2.383l1.619,2.975l1.388-2.567l1.619,2.013l1.387-2.896l1.619-0.954l1.619,1.687l1.388,0.139l1.619,1.307l1.387-1.092
		l1.619,2.372l1.388-0.757l1.619-1.256l1.387,0.884l1.619-1.543l1.388,1.844l1.619,1.132l1.619,0.668l1.387-0.758l1.619,1.891
		l1.388,3.712l1.619,1.161l1.387-0.614l1.619-5.021l1.388-3.091l1.619,2.397l1.619-0.976l1.387-2.044l1.619-0.561l1.388-4.18
		l1.619-0.015l1.388,3.626l1.618-3.179l1.388-0.194l1.619,3.277l1.618-1.171l1.388-1.198l1.618,1.324l1.388,2.396l1.619-0.674
		l1.387-1.191l1.619,2.402l1.387-0.935l1.619,0.141l1.619,1.9l1.387-4.666l1.619-1.399l1.387,0.269l1.619,1.882l1.387,0.986
		l1.619,0.308l1.388,0.265l1.618-2.518l1.619,1.469l1.387-1.248l1.619,2.963l1.388,1.979l1.618,0.266l1.388-0.245l1.618-0.801
		l1.389-0.295l1.618-1.507l1.618-2.18l1.388,4.158l1.618-0.684l1.389-0.468l1.618-1.876l1.388-0.754l1.618,1.215l1.388,2.611
		l1.619-0.272l1.387-0.609l1.619,1.144l1.618-4.068l1.388-2.924l1.619,4.713l1.387,5.676l1.619,4.348l1.387,0.978l1.619-0.6
		l1.387-2.897l1.619-5.967l1.619-6.871l1.387-1.025l1.619-1.801l1.387-0.094l1.619,1.021l1.388,1.449l1.618,3.912l1.388-0.593
		l1.619-2.491l1.618,0.912l1.388,1.072l1.618,0.823l1.388,6.206l1.619-5.012l1.387-0.167l1.619-1.042l1.388-0.598l1.618,3.299
		l1.619-0.867l1.387-1.747l1.619-0.827l1.388,3.129l1.618-0.238l1.388,4.293l1.618-2.609l1.388,2.034l1.619,2.749l1.618,0.711
		l1.388-1.559l1.618-2.529l1.388-0.457l1.619-0.377l1.387-4.778l1.619-2.431l1.388-0.655l1.618-4.51l1.619-1.013l1.387,0.441
		l1.619,4.111l1.388,4.417l1.618,1.113l1.388,3.599l1.618-5.895l1.388-7.066l1.619,4.053l1.387,1.367l1.619,2.146l1.618,0.351
		l1.388,1.661l1.619,0.516l1.387-1.993l1.619,0.14l1.388,0.371l1.618,1.33l1.388,0.516l1.618-2.237l1.619,1.23l1.388,0.151
		l1.618-3.528l1.388-1.223l1.618,3.142l1.388,3.697l1.619-1.005l1.387,1.766l1.619,2.831l1.618-0.2l1.388-1.489l1.619-1.49
		l1.387-3.262l1.619-2.727l1.388,2.889l1.618-0.756l1.388-0.922l1.618,2.966l1.619,4.145l1.388,1.754l1.618-1.976l1.388,8.682
		l1.618,4.227l1.388-5.343l1.619-10.994l1.387-9.179l1.619-3.38l1.618,1.866l1.388,1.755l1.619-1.083l1.387,0.848l1.619,0.779
		l1.388,3.08l1.618,1.804l1.388-2.257l1.618,2.343l1.619,1.739l1.388-2.67l1.618-1.795l1.388,5.28l1.618,4.014l1.388-0.487
		l1.619-2.303l1.387-2.178l1.619,2.232l1.388-0.475l1.618,4.157l1.619-1.298l1.387,0.115l1.619-1.125l1.388-4.877l1.618,0.134
		l1.388,0.3l1.618-1.566l1.388-0.791l1.619,5.758l1.618-3.367l1.388-0.254l0.288,0.378"/>
</g>
</svg>
