<?xml version="1.0" encoding="utf-8"?>
<!-- Generator: Adobe Illustrator 16.0.0, SVG Export Plug-In . SVG Version: 6.00 Build 0)  -->
<!DOCTYPE svg PUBLIC "-//W3C//DTD SVG 1.1//EN" "http://www.w3.org/Graphics/SVG/1.1/DTD/svg11.dtd">
<svg version="1.1"
	 id="svg2" xmlns:dc="http://purl.org/dc/elements/1.1/" xmlns:cc="http://creativecommons.org/ns#" xmlns:rdf="http://www.w3.org/1999/02/22-rdf-syntax-ns#" xmlns:svg="http://www.w3.org/2000/svg" xmlns:sodipodi="http://sodipodi.sourceforge.net/DTD/sodipodi-0.dtd" xmlns:inkscape="http://www.inkscape.org/namespaces/inkscape" inkscape:version="0.92.2 (5c3e80d, 2017-08-06)" sodipodi:docname="Nigel.svg"
	 xmlns="http://www.w3.org/2000/svg" xmlns:xlink="http://www.w3.org/1999/xlink" x="0px" y="0px" width="277.667px"
	 height="244.684px" viewBox="-5.118 0 277.667 244.684" enable-background="new -5.118 0 277.667 244.684" xml:space="preserve">
<sodipodi:namedview  inkscape:cy="187.47224" inkscape:cx="92.070588" inkscape:zoom="2" showguides="false" fit-margin-left="1" fit-margin-top="1" showgrid="false" guidetolerance="10" gridtolerance="10" objecttolerance="10" borderopacity="1" pagecolor="#ffffff" bordercolor="#666666" id="namedview4" inkscape:current-layer="layer4" inkscape:window-maximized="1" inkscape:window-y="-9" inkscape:window-x="-9" fit-margin-bottom="1" fit-margin-right="1" inkscape:window-height="1013" inkscape:window-width="1920" inkscape:pageshadow="2" inkscape:pageopacity="0">
	</sodipodi:namedview>
<g id="layer1" transform="translate(-232.71439,-222.90164)" inkscape:groupmode="layer" inkscape:label="Layer 1">
	<text transform="matrix(1.1072 0 0 1 233.6011 452.2114)" font-family="'OpenSans-Bold'" font-size="63.3041">nigeLab</text>
</g>
<path id="path4821" inkscape:connector-curvature="0" d="M162.125,153.687c-35.627-8.797-54.751-2.888-61.167-0.097
	c0.153-1.07-0.351-1.929-1.2-2.291l-13.183-5.623c-0.721-0.308-1.489-0.237-2.133,0.34c-2.765-7.011-12.125-24.351-42.192-43.386
	c0,0-26.542-24.327-23.674,3.571c0,0-10.886,21.616-10.208,30.235c0,0-0.728,11.428-5.285,17.228c0,0-11.423,10.804,3.683,16.755
	c0,0,40.837,13.405,67.375,0.056c0.1,0.743,0.435,1.511,1.076,1.784l13.167,5.616c0.785,0.335,1.788-0.108,2.448-0.812
	c8.396,28.743,46.841,49.307,46.841,49.307c14.736,6.777,14.68-8.979,14.68-8.979c1.048-7.296,8.789-15.77,8.789-15.77
	c6.676-5.483,14.756-28.334,14.756-28.334C198.041,156.038,162.125,153.687,162.125,153.687L162.125,153.687z"/>
<path id="path4648" sodipodi:nodetypes="ccccccaac" inkscape:connector-curvature="0" fill="#060606" stroke="#000000" stroke-width="0.2436" stroke-linecap="round" stroke-linejoin="round" stroke-miterlimit="10" d="
	M110.159,88.329c-1.77,0.222-3.052,1.11-3.729,2.587c-2.231,4.865,2.511,14.796,10.593,22.181c4.509,4.114,9.336,6.745,13.086,7.134
	c4.07,1.005,9.748-3.932,13.798-12c4.896-9.767,5.76-20.727,1.928-24.479c-3.832-3.752-10.064,8.53-15.804,10.891
	c-1.556,0.64-3.236,1.097-4.927,0.835C119.978,94.686,114.021,87.846,110.159,88.329L110.159,88.329z"/>
<path id="path4529-6" inkscape:connector-curvature="0" fill="#060606" stroke="#000000" stroke-width="1.6894" stroke-linecap="round" stroke-linejoin="round" stroke-miterlimit="10" d="
	M28.417,3.119c-1.963-0.028-3.932,0.012-5.899,0.122c-1.71,0.096-3.418,0.244-5.123,0.444c-0.854,0.126-1.706,0.265-2.556,0.416
	c-2.028,4.474-3.044,9.182-3.004,13.913c0.295,22.451,23.812,40.288,52.526,39.84c0,0,0.001,0,0.002,0
	c10.838-0.188,21.362-3.02,30.103-8.099C87.902,22.662,60.887,3.587,28.417,3.119L28.417,3.119z M16.697,4.072
	c1.292,0.182,2.638,0.419,4.034,0.713c12.519,2.454,28.531,9.384,43.44,18.8c12.69,8.031,23.46,17.162,30.006,25.438
	c-0.078,0.042-0.155,0.083-0.233,0.125c-6.82-8.274-17.757-17.326-30.578-25.308C47.159,13.785,29.748,6.547,16.578,4.391
	C16.617,4.284,16.657,4.178,16.697,4.072z"/>
<path id="path4529-6-3" inkscape:connector-curvature="0" fill="#060606" stroke="#000000" stroke-width="1.4829" stroke-linecap="round" stroke-linejoin="round" stroke-miterlimit="10" d="
	M200.955,1.822c-24.229-1.453-44.113,16.649-48.614,44.258c0.703,0.594,1.422,1.164,2.155,1.71
	c11.025,6.231,26.391,2.46,38.926-9.555c9.368-9.007,15.937-21.491,17.863-33.952c-0.059-0.212-0.119-0.424-0.18-0.636
	c-0.637-0.207-1.275-0.401-1.915-0.582c-1.274-0.309-2.552-0.563-3.829-0.766C203.89,2.07,202.42,1.91,200.955,1.822L200.955,1.822z
	 M209.716,3.507c0.032,0.111,0.063,0.224,0.096,0.336c-9.8,1.443-22.689,7.885-34.639,17.311
	c-9.453,7.483-17.483,16.186-22.452,24.33c-0.059-0.048-0.118-0.095-0.177-0.143c4.766-8.163,12.67-16.957,22.023-24.501
	c10.99-8.841,22.84-15.048,32.148-16.838C207.753,3.782,208.755,3.617,209.716,3.507L209.716,3.507z"/>
<path id="path5031" inkscape:connector-curvature="0" fill="none" stroke="#000000" stroke-width="1.5876" d="M62.068,115.571
	c-0.021,0.073-0.043,0.143-0.064,0.208c-0.565,1.712-0.5,0.634-0.628-0.946"/>
<g>
	
		<path id="path5033" sodipodi:nodetypes="ccc" inkscape:connector-curvature="0" fill="none" stroke="#000000" stroke-width="1.5876" d="
		M58.587,114.659c-0.183-1.669-0.597-3.893-2.146-3.935l-4.828,0.073"/>
	<path id="path5029" inkscape:connector-curvature="0" fill="none" stroke="#000000" stroke-width="1.5876" d="M88.82,107.997
		c0,0-12.94,1.325-19.353,1.306c-4.989-0.016-6.202-1.22-7.609-3.218c-1.7-2.415-1.253-7.999-1.253-7.999
		s-0.288,13.431-1.306,17.291"/>
	
		<path id="path5035" sodipodi:nodetypes="ccccscc" inkscape:connector-curvature="0" fill="none" stroke="#FFFFFF" stroke-width="1.5876" d="
		M51.613,110.797l-12.339,0.001c-4.989-0.016-7.182-0.859-8.115-3.236c-1.011-2.577-0.647-4.517-0.647-4.517
		s0.205,6.52-0.862,10.074c-1.065,3.554-0.548-0.451-3.402-0.898c-4.684-0.733-10.548-0.306-10.548-0.306"/>
</g>
<g>
	<path id="path5025" inkscape:connector-curvature="0" fill="none" stroke="#000000" stroke-width="1.5876" d="M90.726,120.756
		c0,0-1.431,0.988-7.834,1.575c-4.981,0.458-5.516,7.677-7.758-2.485c-0.659-2.988-1.652-7.855-1.652-7.855
		s2.265,11.821-0.668,16.024c0,0,0.158-3.235-2.855-3.031l-4.033,0.399"/>
	<path id="path5027" inkscape:connector-curvature="0" fill="none" stroke="#FFFFFF" stroke-width="1.5876" d="M65.925,125.383
		l-13.102,1.3l-12.933,2.651c-4.712-0.288-16.53,1.521-16.53,1.521"/>
</g>
<g>
	
		<path id="path4696-5-8-7" sodipodi:nodetypes="ccc" inkscape:connector-curvature="0" fill="none" stroke="#000000" stroke-width="1.5876" d="
		M94.036,123.207c0,0-10.4,6.412-16.273,9.232c-0.253,0.121,0.229-0.117,0,0"/>
	
		<path id="path5023" sodipodi:nodetypes="ccccccccscc" inkscape:connector-curvature="0" fill="none" stroke="#FFFFFF" stroke-width="1.5876" d="
		M77.763,132.44c-3.901,1.992-6.104,4.143-7.976,2.985c-2.393-1.482-3.623-6.24-2.871-3.66c3.165,10.866,2.439,7.802,2.698,11.562
		c0.259,3.761-1.464-4.519-4.249-3.26l-15.679,7.668c-4.568,2.194-6.867,2.384-8.545,0.599c-1.82-1.937-2.161-3.893-2.161-3.893
		s3.049,5.965,2.708,9.701c-0.375,4.116-0.658-0.175-3.424,0.676c-4.539,1.395-15.161,7.284-15.161,7.284"/>
</g>
<path id="path4529-6-0" inkscape:connector-curvature="0" fill="#238D1F" d="M58.836,29.361c-4.7,0.001-8.51,9.112-8.51,20.352
	c0,2.479,0.19,4.937,0.561,7.252c4.508,0.899,9.157,1.318,13.82,1.246c0.625-0.026,1.25-0.062,1.873-0.105
	c0.502-2.635,0.763-5.496,0.766-8.393C67.346,38.473,63.536,29.362,58.836,29.361L58.836,29.361z"/>
<path id="path5043-4" inkscape:connector-curvature="0" fill="#238D1F" d="M183.339,45.255c0.828-0.403,1.651-0.849,2.467-1.334
	c0.863-0.518,1.719-1.08,2.559-1.686c0.842-0.605,1.67-1.254,2.479-1.941c0.636-0.54,1.262-1.104,1.874-1.691
	c0.242-0.245,0.48-0.493,0.719-0.744c-0.388-0.918-0.818-1.831-1.289-2.728c-3.27-6.234-7.891-10.736-11.213-10.924
	c-0.223,0.16-0.443,0.321-0.664,0.483c-0.443,0.337-0.885,0.678-1.322,1.023c-0.422,0.341-0.841,0.687-1.256,1.036
	c-0.993,3.226,0.22,8.874,3.08,14.34C181.546,42.56,182.413,43.966,183.339,45.255L183.339,45.255z M177.693,26.75
	c0.415-0.35,0.834-0.694,1.256-1.036c0.438-0.346,0.879-0.687,1.322-1.023c0.221-0.162,0.441-0.323,0.664-0.483
	c-0.304-0.019-0.593-0.001-0.865,0.054c-0.529,0.398-1.055,0.805-1.576,1.217c-0.146,0.121-0.293,0.242-0.438,0.364
	C177.914,26.114,177.792,26.418,177.693,26.75L177.693,26.75z M178.055,25.842c0.146-0.122,0.292-0.243,0.438-0.364
	c0.521-0.412,1.047-0.818,1.576-1.217c-0.261,0.05-0.506,0.132-0.735,0.247C178.81,24.784,178.38,25.234,178.055,25.842z"/>
<text transform="matrix(1 0 0 1 149.0161 229.3098)" font-family="'Arial-BoldMT'" font-size="59.5897">L</text>
<g>
	<defs>
		
			<rect id="SVGID_1_" x="169.448" y="52" transform="matrix(0.9801 -0.1987 0.1987 0.9801 -12.5822 43.9515)" width="86.499" height="65.333"/>
	</defs>
	<clipPath id="SVGID_2_">
		<use xlink:href="#SVGID_1_"  overflow="visible"/>
	</clipPath>
	
		<path id="path4696-5" sodipodi:nodetypes="csscsccscssc" inkscape:connector-curvature="0" clip-path="url(#SVGID_2_)" fill="none" stroke="#000000" stroke-width="1.703" d="
		M163.819,88.036c0,0,17.29-5.95,25.531-9.698c6.409-2.914,7.388-5.039,8.228-8.213c1.014-3.837-2.271-10.165-2.271-10.165
		s7.155,16.282,10.251,19.857c3.097,3.576-2.596-5.518,1.241-7.364l22.122-9.881c6.409-2.916,8.822-5.185,8.868-8.53
		c0.051-3.628-1.359-5.707-1.359-5.707s2.901,7.812,5.998,11.387s0.487-0.85,3.94-3.036c5.669-3.583,21.275-9.67,21.275-9.67"/>
	
		<path id="path4696-5-1" inkscape:transform-center-x="-42.951502" inkscape:transform-center-y="-10.364417" sodipodi:nodetypes="csscscccc" inkscape:connector-curvature="0" clip-path="url(#SVGID_2_)" fill="none" stroke="#000000" stroke-width="1.703" d="
		M172.146,94.133c0,0,2.91,0.548,14.106-1.843c8.707-1.859,13.063,7.002,12.036-6.936c-0.3-4.098-0.93-10.733-0.93-10.733
		s1.779,16.045,8.784,19.92c0,0-1.813-4.011,3.419-5.227l30.021-6.235l23.309-2.977c7.896-2.67,28.906-6.167,28.906-6.167"/>
	
		<path id="path4696-5-8" inkscape:transform-center-x="-44.631378" inkscape:transform-center-y="-1.6828041" sodipodi:nodetypes="cssssccscssc" inkscape:connector-curvature="0" clip-path="url(#SVGID_2_)" fill="none" stroke="#000000" stroke-width="1.703" d="
		M173.925,101.512c0,0,18.918,0.51,28.24,0.086c7.25-0.329,8.69,0.758,10.578-1.324c2.28-2.518,1.146-7.373,1.65-4.697
		c2.122,11.267,1.305,8.172,3.137,11.652c1.829,3.481-0.689-4.759,3.686-5.03l24.965-1.007c7.251-0.329,10.372-1.31,11.541-3.739
		c1.268-2.637,0.587-4.551,0.587-4.551s-0.554,6.842,2.047,10.001c2.866,3.481,0.763-0.484,4.875-1.11
		c6.751-1.026,24.067-1.09,24.067-1.09"/>
</g>
<g id="layer3" inkscape:groupmode="layer" inkscape:label="Layer 3">
	<path id="text5133-6-3" inkscape:connector-curvature="0" fill="#FFFFFF" d="M154.544,211.201v-25.217h11.174v9.734"/>
</g>
<g id="layer4" inkscape:groupmode="layer" inkscape:label="Layer 4">
	<path id="path5295" fill="#FFFFFF" d="M112.461,208.098c0.74-3.055,2.198-5.62,4.375-7.694c3.317-3.161,7.856-4.742,13.617-4.742
		c5.315,0,9.312,1.348,11.987,4.044c2.678,2.677,4.016,6.537,4.016,11.581v3.666h-23.976c0.041,0.663,0.135,1.287,0.285,1.87"/>
	<path id="path5297" d="M136.041,208.813c-0.059-2.192-0.602-3.841-1.63-4.946c-1.028-1.105-2.628-1.658-4.801-1.658
		c-2.018,0-3.676,0.523-4.976,1.571c-1.3,1.047-2.027,2.725-2.182,5.033H136.041L136.041,208.813"/>
	<path id="path5291" fill="#FFFFFF" d="M131.308,222.782c0.64,0.056,1.316,0.084,2.026,0.084c2.211,0,4.355-0.397,6.431-1.193
		c2.074-0.795,3.714-1.648,4.916-2.561h1.164v8.409c-0.396,0.159-0.789,0.312-1.178,0.456"/>
	<path id="text5133-8" fill="#FFFFFF" d="M122.766,216.822c0.428,1.665,1.303,3.001,2.625,4.007c1.437,1.082,3.41,1.732,5.917,1.953
		"/>
</g>
</svg>
