<?xml version="1.0" encoding="utf-8"?>
<!-- Generator: Adobe Illustrator 16.0.0, SVG Export Plug-In . SVG Version: 6.00 Build 0)  -->
<!DOCTYPE svg PUBLIC "-//W3C//DTD SVG 1.1//EN" "http://www.w3.org/Graphics/SVG/1.1/DTD/svg11.dtd">
<svg version="1.1" id="Layer_1" xmlns="http://www.w3.org/2000/svg" xmlns:xlink="http://www.w3.org/1999/xlink" x="0px" y="0px"
	 width="618px" height="331px" viewBox="0 0 618 331" enable-background="new 0 0 618 331" xml:space="preserve">
<g>
	
		<line fill="none" stroke="#262626" stroke-width="0.6667" stroke-linecap="square" stroke-linejoin="round" stroke-miterlimit="10" x1="79.908" y1="295" x2="559.033" y2="295"/>
	
		<line fill="none" stroke="#262626" stroke-width="0.6667" stroke-linecap="square" stroke-linejoin="round" stroke-miterlimit="10" x1="151.591" y1="295" x2="151.591" y2="290.209"/>
	
		<line fill="none" stroke="#262626" stroke-width="0.6667" stroke-linecap="square" stroke-linejoin="round" stroke-miterlimit="10" x1="303.053" y1="295" x2="303.053" y2="290.209"/>
	
		<line fill="none" stroke="#262626" stroke-width="0.6667" stroke-linecap="square" stroke-linejoin="round" stroke-miterlimit="10" x1="454.745" y1="295" x2="454.745" y2="290.209"/>
</g>
<g transform="translate(151.5915,301.9333)">
	<text transform="matrix(1 0 0 1 -32.5002 20.0003)" fill="#262626" font-family="'ArialMT'" font-size="21">100.36</text>
</g>
<g transform="translate(303.0526,301.9333)">
	<text transform="matrix(1 0 0 1 -37.9999 20.0003)" fill="#262626" font-family="'ArialMT'" font-size="21">100.365</text>
</g>
<g transform="translate(454.745,301.9333)">
	<text transform="matrix(1 0 0 1 -32.4999 20.0003)" fill="#262626" font-family="'ArialMT'" font-size="21">100.37</text>
</g>
<g>
	<path fill="none" stroke="#000000" stroke-width="2.3333" stroke-linejoin="round" stroke-miterlimit="10" d="M79.851,150.424
		l0.52,0.96l1.387,4.51l1.619,1.683l1.619-1.063l1.388-2.477l1.619-0.453l1.387-2.256l1.619,1.99l1.388,4.552l1.619,4.051
		l1.387,3.237l1.619,1.379l1.619-2.607l1.388-1.942l1.619,5.286l1.387,1.816l1.619-0.137l1.388-5.321l1.619-1.823l1.387,1.317
		l1.619-3.099l1.619,2.342l1.387-1.375l1.619-7.444l1.387-3.63l1.619,7.34l1.388-3.629l1.619,0.786l1.387,2.939l1.619-6.297
		l1.619,1.671l1.388,1.871l1.619-1.741l1.387-1.798l1.619,1.323l1.388,2.812l1.619-0.177l1.387-1.058l1.619,4.187l1.388-0.346
		l1.619-1.759l1.619,2.258l1.387-2.602l1.619,0.436l1.388-1.1l1.619-0.057l1.387,2.484l1.619,0.561l1.388-1.328l1.619,1.054
		l1.619,4.692l1.387-2.5l1.619-2.691l1.388,3.14l1.619-1.682l1.387-2.344l1.619,0.684l1.388,5.14l1.619,0.872l1.619-0.37
		l1.387-1.307l1.619,0.498l1.388-1.023l1.619-2.726l1.387,2.58l1.619,0.576l1.388-1.066l1.619-0.62l1.619-0.885l1.387,1.645
		l1.619,1.586l1.388-1.934l1.619-1.116l1.387-6.117l1.619,5.095l1.388,5.508l1.619,2.959l1.619,0.41l1.387-8.562l1.619,1.326
		l1.388-0.49l1.619-5.12l1.387,2.289l1.619,2.386l1.388,0.212l1.619,0.214l1.619-1.014l1.387-1.067l1.619,3.861l1.388-2.895
		l1.619-0.604l1.387-3.616l1.619,1.835l1.388-0.136l1.619,2.617l1.387,0.953l1.619-1.929l1.619,0.793l1.388-1.409l1.619,1.728
		l1.387-2.24l1.619,3.54l1.388,0l1.619-1.539l1.387,2.328l1.619,1.964l1.619,1.113l1.388,1.559l1.619-2.377l1.387-3.709l1.619-1.244
		l1.388-1.866l1.619-0.868l1.387-0.619l1.619,4.125l1.619,0.787l1.388,0.556l1.619-5.999l1.387,1.351l1.619,2.589l1.388-3.112
		l1.619,0.751l1.387,1.571l1.619,2.432l1.619-2.374l1.388-2.421l1.619,0.193l1.387-2.526l1.619,1.239l1.388,5.793l1.619,1.727
		l1.387,2.34l1.619,0.676l1.619,0.694l1.388,2.377l1.619,1.088l1.387-1.484l1.619,3.659l1.388-2.798l1.619-6.204l1.387-2.276
		l1.619-1.359l1.619,4.444l1.388-3.998l1.619-0.664l1.387-4.747l1.619-1.421l1.388,6.034l1.619,2.346l1.387-0.5l1.619,2.863
		l1.388-0.283l1.619,1.122l1.619-2.787l1.387,1.069l1.619,0.645l1.387,0.344l1.619,0.549l1.387-3.714l1.619-0.829l1.388,0.969
		l1.618,1.996l1.619-1.883l1.387-1.529l1.619-3.758l1.388-1.326l1.618,5.11l1.388-1.556l1.618,4.205l1.389,6.06l1.618,7.686
		l1.618-1.278l1.388-11.861l1.618-3.972l1.389,2.824l1.618-3.368l1.388,0.401l1.618-1.591l1.388-1.21l1.619-0.286l1.618-0.552
		l1.388,2.157l1.618-0.429l1.388,0.019l1.619-2.079l1.387-6.612l1.619,5.172l1.387,3.085l1.619,4.586l1.619-1.516l1.387-1.569
		l1.619-2.573l1.387,0.296l1.619-0.787l1.387,2.416l1.619,0.952l1.388-0.462l1.618,0.472l1.619-5.167l1.387-4.731l1.619,6.94
		l1.388,5.179l1.618-3.441l1.388-2.056l1.618,1.595l1.389,0.668l1.618,2.427l1.388,0.228l1.618,2.328l1.619,2.537l1.387-0.441
		l1.619,1.726l1.388-1.756l1.618,0.673l1.388-1.252l1.618-2.753l1.388-0.438l1.619-1.664l1.618-3.989l1.388-1.495l1.618,0.435
		l1.388,0.38l1.619,3.441l1.387,5.551l1.619,1.426l1.388-5.491l1.618-2.865l1.619-1.343l1.387,0.84l1.619-0.318l1.388,5.1
		l1.618,0.719l1.388-1.056l1.618-3.995l1.388,5.682l1.619-0.458l1.618-4.405l1.388,1.525l1.618,0.336l1.388,1.411l1.619,2.149
		l1.387-7.627l1.619-2.983l1.388,2.477l1.618-1.823l1.619-2.504l1.387,1.546l1.619,4.944l1.388,2.823l1.618-1.694l1.388,4.148
		l1.618,1.019l1.388-7.623l1.619,1.397l1.618-1.42l1.388,3.463l1.618-2.385l1.388-0.169l1.619,1.994l1.387-1.398l1.619-0.594
		l1.388,0.438l1.618-0.472l1.388,1.579l1.618,2.185l1.619-4.068l1.388-0.101l1.618,3.581l1.388-2.748l1.618,2.187l1.388,0.892
		l1.619-1.053l1.387-3.667l1.619,1.537l1.618-1.382l1.388,4.682l1.619-4.63l1.387-0.272l1.619,9.446l1.388-0.576l1.618,3.097
		l1.388,0.77l1.618-0.42l1.619-1.175l1.388,1.655l1.618-2.319l1.388-2.757l1.618-3.256l1.388,1.825l1.619-3.104l1.387-2.319
		l1.619-3.394l1.618,2.076l1.388,0.809l1.619,4.188l1.387,1.512l1.619-6.053l1.388,0.069l1.618-0.198l1.388,4.037l1.618-3.794
		l1.619-2.623l1.388,1.4l1.618,0.229l1.388-1.934l1.618,4.195l1.388,3.611l1.619-3.152l1.387-3.902l1.619-0.862l1.618,8.222
		l1.388,11.172l1.619-0.026l1.387-6.001l1.619,4.005l1.388,3.318l1.444-6.95"/>
	<path fill="none" stroke="#000000" stroke-width="2.3333" stroke-linejoin="round" stroke-miterlimit="10" d="M79.851,61.633
		l0.52,1.091l1.387-1.464l1.619-1.62l1.619,10.364l1.388,15.954l1.619,0.933l1.387,0.296l1.619,1.168l1.388-1.476l1.619-4.805
		l1.387-7.798l1.619-2.485l1.619-5.002l1.388-2.998l1.619-1.009l1.387-0.6l1.619-3.291l1.388-2.125l1.619,4.398l1.387-2.512
		l1.619,0.83l1.619,0.526l1.387,1.689l1.619-1.848l1.387,2.755l1.619,3.716l1.388,0.598l1.619-2.219l1.387-0.132l1.619,0.455
		l1.619-0.889l1.388-1.413l1.619-0.125l1.387,3.998l1.619,3.788l1.388-1.515l1.619,0.603l1.387,4.482l1.619,13.384l1.388,16.111
		l1.619-4.08l1.619-24.508l1.387-20.502l1.619-4.847l1.388,3.134l1.619-0.697l1.387-0.288l1.619,3.597l1.388,2.559l1.619,4.198
		l1.619-0.533l1.387-0.292l1.619,0.891l1.388,3.086l1.619-0.72l1.387,1.115l1.619,0.293l1.388-0.887l1.619,3.305l1.619-0.907
		l1.387,1.237l1.619,1.577l1.388,0.184l1.619,1.349l1.387,0.223l1.619-0.502l1.388-0.026l1.619,1.844l1.619-0.385l1.387-0.707
		l1.619-4.373l1.388-1.012l1.619-3.365l1.387,1.608l1.619,3.981l1.388,3.821l1.619-0.542l1.619,2.111l1.387-2.69l1.619,0.267
		l1.388-0.217l1.619-0.548l1.387-2.144l1.619,3.07l1.388-1.524l1.619-1.029l1.619,1.898l1.387-1.168l1.619,0.399l1.388,0.301
		l1.619-2.132l1.387,0.497l1.619-1.835l1.388,1.747l1.619-0.892l1.387-1.287l1.619,3.222l1.619,3.516l1.388-0.281l1.619-3.366
		l1.387,0.313l1.619-0.147l1.388-3.242l1.619,2.979L237.843,73l1.619,0.746l1.619-2.129L242.468,70l1.619,0.124l1.387,1.937
		l1.619-3.407l1.388-1.026l1.619,1.076l1.387-1.77l1.619,0.887l1.619,5.365l1.388,1.41l1.619-4.043l1.387,2.514l1.619,3.31
		l1.388-3.074l1.619-0.45l1.387-1.15l1.619-0.719l1.619-0.917l1.388-0.478l1.619-1.295l1.387,2.072l1.619,0.707l1.388,1.321
		l1.619-1.332l1.387-2.072l1.619,2.782l1.619,2.105l1.388-2.797l1.619-0.196l1.387-0.518l1.619,0.327l1.388-0.945l1.619,2.446
		l1.387,1.216l1.619-2l1.619,2.007l1.388,0.749l1.619,0.286l1.387-1.973l1.619-3.839l1.388-2.344l1.619,4.269l1.387,0.295
		l1.619-2.479l1.388,0.359l1.619,4.964l1.619-0.302l1.387,0.916l1.619,2.528l1.387,2.058l1.619-2.384l1.387-1.442l1.619-0.501
		l1.388,0.761l1.618,1.919l1.619,1.81l1.387-1.539l1.619-0.621l1.388-1.897l1.618,1.221l1.388-3.243l1.618,2.445l1.389,2.38
		l1.618-1.277l1.618-1.967l1.388,0.879l1.618-4.284l1.389-3.076l1.618,0.81l1.388-2.592l1.618,4.221l1.388,6.55l1.619,0.094
		l1.618-0.544l1.388-1.766l1.618,4.144l1.388-0.37l1.619,0.095l1.387,1.77l1.619-1.859l1.387-1.685l1.619,0.808l1.619-2.709
		l1.387-2.373l1.619-2.014l1.387-0.15l1.619,2.739l1.387,0.232l1.619,0.819l1.388,1.719l1.618-1.923l1.619,0.179l1.387-1.776
		l1.619,0.363l1.388,2.001l1.618,1.642l1.388,7.288l1.618,3.247l1.389-1.592l1.618-6.986l1.388,0.927l1.618-3.55l1.619-3.318
		l1.387-4.983l1.619-1.902l1.388-1.801l1.618-2.737l1.388,4.799l1.618-1.346l1.388-1.573l1.619,2.133l1.618,3.229l1.388-0.148
		l1.618-4.012l1.388-1.14l1.619-2.434l1.387-0.751l1.619,0.409l1.388,3.973l1.618,3.669l1.619,0.392l1.387-2.411l1.619-1.816
		l1.388-0.14l1.618,2.185l1.388-0.732l1.618,1.466l1.388,3.688l1.619,1.153l1.618,0.6l1.388,2.26l1.618-0.567l1.388-1.602
		l1.619-0.592l1.387,2.738l1.619-2.03l1.388,2.839l1.618-0.202l1.619-1.029l1.387-1.435l1.619-0.971l1.388,1.596l1.618-2.193
		l1.388-1.192l1.618,0.596l1.388,3.955l1.619,1.487l1.618-0.103l1.388,3.708l1.618,0.477l1.388-1.384l1.619-0.853l1.387-0.226
		l1.619-1.886l1.388,0.948l1.618,0.777l1.388-0.709l1.618,2.854l1.619-3.347l1.388-2.646l1.618,1.714l1.388,0.608l1.618,2.265
		l1.388-0.554l1.619-0.909l1.387,2.081l1.619,0.814l1.618-0.018l1.388-0.647l1.619-5.156l1.387-6.927l1.619,3.108l1.388,3.99
		l1.618-0.835l1.388-1.797l1.618-0.229l1.619,3.828l1.388,4.187l1.618-2.992l1.388-0.787l1.618-1.125l1.388-3.537l1.619-0.739
		l1.387,2.529l1.619,2.759l1.618-0.355l1.388-0.28l1.619-1.689l1.387-5.072l1.619-0.195l1.388,2.087l1.618,1.919l1.388-3.809
		l1.618,2.545l1.619-2.021l1.388-3.5l1.618-0.018l1.388,0.087l1.618,3.227l1.388,0.146l1.619-0.633l1.387,1.424l1.619,1.513
		l1.618-0.681l1.388,1.274l1.619-0.273l1.387-2.295l1.619-3.068l1.388-0.591l1.444,4.61"/>
	<path fill="none" stroke="#000000" stroke-width="2.3333" stroke-linejoin="round" stroke-miterlimit="10" d="M79.851,245.418
		l0.52-0.207l1.387-3.852l1.619-3.006l1.619,2.026l1.388-0.957l1.619,3.009l1.387-0.342l1.619-1.885l1.388,0.24l1.619-0.21
		l1.387,1.269l1.619,0.207l1.619,3.961l1.388,1.397l1.619,1.138l1.387-1.343l1.619-0.765l1.388-1.4l1.619-1.006l1.387-2.657
		l1.619,2.326l1.619,1.552l1.387,4.98l1.619,3.002l1.387,1.889l1.619-4.373l1.388-2.721l1.619-2.037l1.387-0.079l1.619-1.8
		l1.619-0.693l1.388,1.627l1.619,2.139l1.387-0.627l1.619,2.051l1.388-0.119l1.619,2.884l1.387,0.1l1.619-4.87l1.388,0.342
		l1.619-1.245l1.619,0.985l1.387,0.619l1.619-0.058l1.388-3.626l1.619-0.673l1.387,1.476l1.619,3.404l1.388-1.491l1.619-0.274
		l1.619,3.428l1.387,12.748l1.619,6.412l1.388,5.695l1.619-4.916l1.387-8.713l1.619-6.686l1.388-6.002l1.619,0.166l1.619-0.955
		l1.387-2.29l1.619-2.081l1.388-7.301l1.619-0.465l1.387-2.102l1.619-1.831l1.388,1.067l1.619-2.16l1.619,2.149l1.387,3.228
		l1.619,1.512l1.388-1.049l1.619,3.115l1.387,2.172l1.619,0.843l1.388,0.517l1.619-0.236l1.619-0.363l1.387-1.404l1.619-1.594
		l1.388-0.002l1.619,0.377l1.387,1.171l1.619,0.302l1.388,2.808l1.619,0.61l1.619-2.9l1.387-2.67l1.619,4.873l1.388,3.473
		l1.619,0.307l1.387,0.469l1.619,1.847l1.388,0.604l1.619,0.651l1.387-0.948l1.619-2.425l1.619-0.611l1.388-0.554l1.619-2.83
		l1.387,0.577l1.619,1.104l1.388-1.093l1.619-1.298l1.387,1.48l1.619,2.541l1.619-2.574l1.388-4.043l1.619-3.544l1.387,0.507
		l1.619,3.493l1.388-0.364l1.619-4.161l1.387-2.55l1.619,2.817l1.619-0.011l1.388,4.268l1.619,2.77l1.387,0.796l1.619,2.588
		l1.388,0.146l1.619,0.289l1.387,1.824l1.619-0.932l1.619,0.91l1.388-1.959l1.619,1.4l1.387,1.773l1.619-4.002l1.388-0.605
		l1.619-1.737l1.387,3.681l1.619,1.84l1.619-4.705l1.388,5.438l1.619-0.171l1.387,1.358l1.619-0.717l1.388-2.683l1.619-2.896
		l1.387,2.699l1.619,1.708l1.619-0.683l1.388-1.868l1.619-2.376l1.387,0.771l1.619,4.947l1.388-4.399l1.619-1.141l1.387-2.886
		l1.619,0.298l1.388,4.684l1.619-0.313l1.619,1.244l1.387-3.181l1.619,2.056l1.387,0.843l1.619-1.468l1.387-0.665l1.619-1.591
		l1.388,1.622l1.618,0.345l1.619-1.533l1.387-0.986l1.619-1.409l1.388-0.144l1.618-2.407l1.388,1.095l1.618-2.988l1.389,1.088
		l1.618-1.332l1.618,3.938l1.388-2.285l1.618-1.996l1.389,1.196l1.618-2.827l1.388,1.961l1.618,2.748l1.388,1.783l1.619,0.698
		l1.618-2.071l1.388-5.01l1.618,0.573l1.388,0.763l1.619,3.483l1.387,2.045l1.619-4.022l1.387,0.109l1.619-1.604l1.619-2.039
		l1.387,2.393l1.619-0.934l1.387,0.102l1.619,0.554l1.387-0.071l1.619,0.542l1.388-2.014l1.618,2.71l1.619,2.99l1.387,2.975
		l1.619-3.289l1.388,1.43l1.618,1.57l1.388-0.752l1.618,0.705l1.389,1.879l1.618,0.496l1.388,1.783l1.618,3.52l1.619,6.036
		l1.387-1.806l1.619-6.255l1.388-0.596l1.618-0.966l1.388-0.779l1.618-0.019l1.388-2.106l1.619,1.086l1.618,1.098l1.388,0.438
		l1.618-2.243l1.388-3.629l1.619,1.59l1.387,0.217l1.619-0.284l1.388,1.994l1.618,1.981l1.619-1.369l1.387,7.388l1.619,6.37
		l1.388,5.795l1.618-2.58l1.388-6.641l1.618-4.697l1.388-2.819l1.619-5.948l1.618-4.572l1.388-3.794l1.618-0.461l1.388,1.248
		l1.619,0.765l1.387,3.917l1.619,0.503l1.388-1.539l1.618-0.873l1.619,2.124l1.387,2.333l1.619-1.586l1.388,0.25l1.618,1.917
		l1.388,2.269l1.618,1.273l1.388,1.482l1.619-4.919l1.618-2.786l1.388-3.51l1.618-0.643l1.388,2.258l1.619-0.29l1.387-1.229
		l1.619-0.16l1.388-1.301l1.618,5.976l1.388-0.359l1.618-0.871l1.619-0.109l1.388-4.755l1.618,6.029l1.388,0.042l1.618-2.743
		l1.388,3.481l1.619,1.978l1.387-2.875l1.619-3.414l1.618,5.906l1.388-0.143l1.619,1.986l1.387-0.484l1.619-5.742l1.388,1.553
		l1.618-1.537l1.388,0.596l1.618,3.072l1.619,2.059l1.388,1.734l1.618,1.572l1.388-2.138l1.618,1.634l1.388-0.129l1.619-0.332
		l1.387,1.943l1.619,4.25l1.618,3.863l1.388-4.134l1.619-8.621l1.387-1.442l1.619,1.425l1.388,0.416l1.618,0.398l1.388,0.872
		l1.618-0.271l1.619-1.832l1.388,2.345l1.618,2.268l1.388-0.359l1.618,2.371l1.388,0.322l1.619-2.045l1.387-1.659l1.619-2.415
		l1.618-1.336l1.388,3.88l1.619,0.188l1.387-0.921l1.619-0.077l1.388-4.494l1.444-0.465"/>
</g>
</svg>
