<?xml version="1.0" encoding="utf-8"?>
<!-- Generator: Adobe Illustrator 16.0.0, SVG Export Plug-In . SVG Version: 6.00 Build 0)  -->
<!DOCTYPE svg PUBLIC "-//W3C//DTD SVG 1.1//EN" "http://www.w3.org/Graphics/SVG/1.1/DTD/svg11.dtd">
<svg version="1.1" id="Layer_1" xmlns="http://www.w3.org/2000/svg" xmlns:xlink="http://www.w3.org/1999/xlink" x="0px" y="0px"
	 width="618px" height="331px" viewBox="0 0 618 331" enable-background="new 0 0 618 331" xml:space="preserve">
<g>
	
		<line fill="none" stroke="#262626" stroke-width="0.6667" stroke-linecap="square" stroke-linejoin="round" stroke-miterlimit="10" x1="80.051" y1="295" x2="558.945" y2="295"/>
	
		<line fill="none" stroke="#262626" stroke-width="0.6667" stroke-linecap="square" stroke-linejoin="round" stroke-miterlimit="10" x1="142.023" y1="295" x2="142.023" y2="290.211"/>
	
		<line fill="none" stroke="#262626" stroke-width="0.6667" stroke-linecap="square" stroke-linejoin="round" stroke-miterlimit="10" x1="293.484" y1="295" x2="293.484" y2="290.211"/>
	
		<line fill="none" stroke="#262626" stroke-width="0.6667" stroke-linecap="square" stroke-linejoin="round" stroke-miterlimit="10" x1="445.177" y1="295" x2="445.177" y2="290.211"/>
</g>
<g transform="translate(142.023,301.9333)">
	<text transform="matrix(1 0 0 1 -38.0001 20.0003)" fill="#262626" font-family="'ArialMT'" font-size="21">100.345</text>
</g>
<g transform="translate(293.4841,301.9333)">
	<text transform="matrix(1 0 0 1 -32.5002 20.0003)" fill="#262626" font-family="'ArialMT'" font-size="21">100.35</text>
</g>
<g transform="translate(445.1765,301.9333)">
	<text transform="matrix(1 0 0 1 -37.9998 20.0003)" fill="#262626" font-family="'ArialMT'" font-size="21">100.355</text>
</g>
<g>
	<path fill="none" stroke="#000000" stroke-width="2.3333" stroke-linejoin="round" stroke-miterlimit="10" d="M79.994,157.951
		l1.444,2.704l1.387-2.555l1.619,2l1.387-5.617l1.619,0.577l1.387-1.686l1.619,3.709l1.619,1.086l1.387-1.255l1.619-3.128
		l1.387,2.933l1.619,0.169l1.387-4.004l1.619-0.753l1.388,1.518l1.619-0.424l1.619-1.68l1.387,3.979l1.619,0.555l1.388,1.287
		l1.618-4.032l1.388,1.213l1.619-1.689l1.388-0.609l1.618-1.646l1.619-1.925l1.387,1.885l1.619,1.397l1.387,1.372l1.619,4.115
		l1.387-1.233l1.619-1.854l1.387,1.711l1.619,0.508l1.619-2.561l1.387-2.126l1.619,2.762l1.388,3.969l1.619-1.323l1.387-2.884
		l1.619,2.292l1.387,1.778l1.619,0.644l1.618-0.083l1.388-8.705l1.619,0.068l1.388,0.395l1.618,6.582l1.388,3.757l1.619-1.582
		l1.388-4.754l1.618-2.928l1.388,1.318l1.619,1.84l1.619,3.382l1.387,2.328l1.619,0.197l1.387,4.286l1.619-0.637l1.387-6.445
		l1.619,0.95l1.387,0.146l1.619-0.671l1.619,0.438l1.387,0.749l1.619-4.301l1.387,2.533l1.619,1.184l1.388,2.83l1.619,2.483
		l1.387,0.513l1.619-4.17l1.619-0.644l1.388-3.681l1.618,4.362l1.388-3.707l1.619-3.467l1.388,5.448l1.619,2.391l1.387,2.661
		l1.619-2.797l1.619-3.206l1.387-1.143l1.619-3.253l1.387,0.387l1.619-1.807l1.387,5.553l1.619,4.634l1.388-1.666l1.619,2.691
		l1.619,2.474l1.388,0.342l1.619-0.6l1.387,6.648l1.619-0.375l1.387-2.816l1.619-8.446l1.387-9.214l1.619-3.918l1.619,0.477
		l1.388-0.423l1.619,1.476l1.387,1.188l1.619,2.586l1.387-3.694l1.619-0.255l1.388,1.976l1.619-0.619l1.388,3.335l1.618-1.359
		l1.619-2.861l1.387-1.577l1.619,0.132l1.387,2.473l1.619,2.621l1.387,1.59l1.619,0.858l1.387-1.858l1.619,2.148l1.619-2.013
		l1.388-1.299l1.619-0.789l1.388,1.176l1.619,0.385l1.387,0.565l1.619-1.242l1.387,2.707l1.619-2.838l1.618-2.212l1.388,5.748
		l1.619,0.786l1.388-0.986l1.618-1.126l1.388-2.184l1.619-1.671l1.387,0.872l1.619-2.159l1.619,4.101l1.387-0.316l1.619,4.068
		l1.387-5.059l1.619,0.588l1.387,2.29l1.619-4.577l1.387,0.977l1.619-0.062l1.618,0.996l1.388,2.191l1.619,4.447l1.387-6.585
		l1.619-3.463l1.387,3.32l1.619-0.991l1.388,5.215l1.618,0.593l1.619-3.199l1.387,2.271l1.619,5.648l1.387,1.341l1.619,3.512
		l1.388,9.214l1.618-1.968l1.388-2.881l1.618-3.354l1.389-4.224l1.618-3.335l1.618-0.102l1.388-7.894l1.619,3.675l1.388-0.27
		l1.618-1.89l1.388-1.023l1.618-1.23l1.388-2.993l1.619-0.433l1.618,0.918l1.388,1.002l1.618-1.007l1.388-1.997l1.619,2.819
		l1.387,0.591l1.619,0.096l1.387,0.588l1.619-2.612l1.619,3.915l1.387-0.122l1.619,0.981l1.387-2.299l1.619-0.145l1.387-2.194
		l1.619-3.128l1.388,4.786l1.618,2.577l1.619,0.206l1.387-0.338l1.619-2.197l1.388,1.842l1.618-2.655l1.388,3.89l1.619-1.789
		l1.388,3.038l1.618,0.049l1.618-4.118l1.388-2.885l1.618,3.885l1.389,3.155l1.618-2.618l1.388,3.323l1.618,0.373l1.388-2.331
		l1.618,2.694l1.619,2.149l1.388,0.401l1.618,1.356l1.388,4.186l1.618,0.071l1.388,5.811l1.619,5.317l1.387,2.824l1.619-4.73
		l1.388-9.314l1.618-1.138l1.619,1.983l1.387-5.224l1.619-2.006l1.388,2.004l1.618-2.377l1.388-1.496l1.618-1.718l1.388-3.563
		l1.619-0.514l1.618-1.377l1.388,5.605l1.619,0.32l1.387-0.328l1.619-3.365l1.388-3.029l1.618-3.244l1.388,2.226l1.618,0.343
		l1.619,1.651l1.387,1.271l1.619,3.396l1.388-2.368l1.618,1.561l1.388-1.504l1.619-1.005l1.387-3.927l1.619,3.179l1.618,2.601
		l1.388,0.545l1.619-0.656l1.387,1.042l1.619-0.419l1.387-1.439l1.619,3.985l1.388,2.438l1.618,4.456l1.619,3.992l1.387-2.475
		l1.619,3.544l1.388,2.122l1.618,6.131l1.388-3.803l1.618-7.259l1.388-2.212l1.619-9.532l1.618-1.747l1.388-1.579l1.618-0.394
		l1.388,1.986l1.619,2.293l1.387,1.624l1.619-0.394l1.388,0.244l1.618,0.995l1.388,2.354l1.619-0.201l1.618-1.618l1.388,0.428
		l1.618-1.203l1.388,1.277l1.619,2.798l1.387-4.251l1.619-1.699l1.387,3.888l1.619,1.253l1.618,3.904l1.388-5.046l1.619-5.774
		l1.387-2.986l1.619,0.199l1.388-1.954l1.618,2.991l1.388,4.51l1.618,1.683l1.619-1.063l1.388-2.477l1.618-0.453l1.388-2.256
		l1.618,1.99l1.388,4.552l1.619,4.051l1.387,3.237l1.619,1.38l1.618-2.608l1.388-1.942l1.619,5.286l1.387,1.816l1.619-0.137
		l1.388-5.321l1.618-1.823l1.388,1.317l1.618-3.099l1.619,2.342l1.388-1.375l0.288-1.326"/>
	<path fill="none" stroke="#000000" stroke-width="2.3333" stroke-linejoin="round" stroke-miterlimit="10" d="M79.994,72.313
		l1.444-4.088l1.387,0.346l1.619-1.257l1.387-1.504l1.619,2.69l1.387,1.586l1.619-1.513l1.619-7.766l1.387-9.199l1.619-4.011
		l1.387,2.916l1.619,2.961l1.387,1.738l1.619,4.304l1.388,3.537l1.619,1.75l1.619-2.172l1.387,0.162l1.619,4.326l1.388,3.764
		l1.618,0.581l1.388-2.284l1.619-5.264l1.388-2.178l1.618,1.307l1.619,4.245l1.387,2.22l1.619-0.039l1.387,0.908l1.619-1.306
		l1.387,2.314l1.619-2.277l1.387,0.204l1.619,0.54l1.619-0.061l1.387-0.694l1.619-1.101l1.388,3.15l1.619,1.918l1.387-3.248
		l1.619-6.519l1.387,4.992l1.619,4.579l1.618,4.846l1.388,2.015l1.619-2.531l1.388-2.027l1.618-0.677l1.388-1.22l1.619-1.898
		l1.388,2.032l1.618-1.749l1.388-0.81l1.619-0.546l1.619,1.66l1.387-1.655l1.619-1.292l1.387-0.72l1.619,0.31l1.387-0.978
		l1.619-0.251l1.387,1.523l1.619-0.373l1.619-2.154l1.387,1.535l1.619,0.57l1.387-0.672l1.619-2.238l1.388-1.969l1.619,3.507
		l1.387,1.781l1.619-1.163l1.619,0.915l1.388-0.017l1.618-0.672l1.388-3.625l1.619,1.829l1.388,3.866l1.619-1.071l1.387,5.294
		l1.619,6.228l1.619-5.496l1.387-7.158l1.619,1.438l1.387,0.276l1.619,4.213l1.387,0.53l1.619-2.577l1.388-2.275l1.619-1.29
		l1.619,3.12l1.388-1.766l1.619,0.684l1.387,2.031l1.619,1.321l1.387,2.376l1.619-0.07l1.387-3.445l1.619-1.025l1.619-3.688
		l1.388-3.818l1.619,0.575l1.387,2.391l1.619,0.704l1.387-0.858l1.619,4.517l1.388,2.893l1.619-2.649l1.388-2.332l1.618,1.739
		l1.619-0.94l1.387-1.907l1.619,1.293l1.387-1.638l1.619,0.677l1.387,2.18l1.619,0.497l1.387-2.188l1.619-0.959l1.619,0.775
		l1.388-4.041l1.619,1.433l1.388,2.805l1.619,0.632l1.387,1.128l1.619-3.707l1.387,0.407l1.619,0.517l1.618,1.233l1.388,2.65
		l1.619,0.606l1.388-2.104l1.618,0.103l1.388-3.705l1.619,2.28l1.387,3.962l1.619-1.424l1.619-1.464l1.387,1.527l1.619,0.972
		l1.387,0.604l1.619-1.392l1.387-1.983l1.619,3.89l1.387,0.763l1.619,0.475l1.618-1.043l1.388,1.121l1.619,2.406l1.387,3.8
		l1.619,2.113l1.387-2.949l1.619-5.011l1.388-3.386l1.618-0.271l1.619,3.428l1.387-0.402l1.619-1.222l1.387-3.619l1.619-0.216
		l1.388-3.22l1.618-2.277l1.388,1.332l1.618,0.254l1.389-1.503l1.618,0.828l1.618,4.023l1.388,0.241l1.619,0.015l1.388-0.176
		l1.618,0.499l1.388,0.083l1.618-0.448l1.388-0.54l1.619,4.102l1.618,0.777l1.388,0.255l1.618-2.247l1.388,2.883l1.619-0.883
		l1.387-0.98l1.619-3.076l1.387-1.456l1.619,2.155l1.619-0.171l1.387,0.766l1.619-0.29l1.387-0.086l1.619-1.612l1.387,0.514
		l1.619,1.357l1.388,0.95l1.618,5.993l1.619,2.249l1.387-2.86l1.619,4.212l1.388-3.107l1.618-2.049l1.388-0.332l1.619-0.97
		l1.388,0.133l1.618,1.393l1.618-0.087l1.388,1.738l1.618-2.354l1.389-0.894l1.618,1.896l1.388,0.243l1.618-2.037l1.388-3.458
		l1.618,1.445l1.619-2.582l1.388-1.152l1.618-2.192l1.388,1.125l1.618-0.131l1.388,1.472l1.619,0.188l1.387-1.618l1.619-3.944
		l1.388-0.231l1.618-0.453l1.619,5.471l1.387,3.173l1.619,1.929l1.388,0.531l1.618-1.864l1.388-1.591l1.618-3.546l1.388-1.857
		l1.619-3.565l1.618-1.066l1.388,0.384l1.619-1.004l1.387,3.239l1.619,2.97l1.388,9.251l1.618,8.999l1.388,1.181l1.618-2.573
		l1.619-4.036l1.387-3.455l1.619-0.736l1.388-0.344l1.618-3.505l1.388,1.691l1.619-2.814l1.387-1.137l1.619-1.021l1.618-1.671
		l1.388-4.69l1.619,1.375l1.387-1.995l1.619,1.814l1.387,2.447l1.619,2.018l1.388,2.445l1.618,2.777l1.619-5.229l1.387-2.274
		l1.619-2.452l1.388-2.267l1.618,0.453l1.388,0.576l1.618,3.24l1.388-0.239l1.619,0.913l1.618,1.076l1.388-2.717l1.618,2.389
		l1.388-0.311l1.619,3.011l1.387-2.553l1.619-0.544l1.388,0.444l1.618-4.103l1.388-0.543l1.619,3.565l1.618-1.112l1.388,2.405
		l1.618,0.259l1.388,3.956l1.619-3.526l1.387-1.021l1.619,5.229l1.387,0.982l1.619-1.166l1.618-2.117l1.388-0.585l1.619-4.747
		l1.387-3.567l1.619-1.173l1.388-0.394l1.618,3.4l1.388-1.464l1.618-1.62l1.619,10.364l1.388,15.954l1.618,0.933l1.388,0.296
		l1.618,1.168l1.388-1.476l1.619-4.805l1.387-7.798l1.619-2.485l1.618-5.002l1.388-2.998l1.619-1.009l1.387-0.6l1.619-3.291
		l1.388-2.125l1.618,4.398l1.388-2.512l1.618,0.83l1.619,0.526l1.388,1.689l0.288-0.329"/>
	<path fill="none" stroke="#000000" stroke-width="2.3333" stroke-linejoin="round" stroke-miterlimit="10" d="M79.994,241.658
		l1.444-1.732l1.387,4.656l1.619-0.928l1.387-1.822l1.619-0.295l1.387,0.666l1.619,0.57l1.619,0.252l1.387,1.129l1.619-2.305
		l1.387,1.772l1.619,2.595l1.387-4.043l1.619-2.08l1.388-0.925l1.619,1.677l1.619,5.511l1.387-1.551l1.619-2.905l1.388,0.496
		l1.618-1.213l1.388,3.329l1.619-2.684l1.388-3.199l1.618,2.624l1.619,1.343l1.387-2.835l1.619-0.652l1.387,11.245l1.619,5.855
		l1.387,1.249l1.619-2.965l1.387-3.568l1.619,0.814l1.619-3.63l1.387-1.189l1.619,1.985l1.388-3.813l1.619-3.744l1.387-3.516
		l1.619-7.043l1.387,3.166l1.619-1.125l1.618-1.525l1.388-0.525l1.619,0.212l1.388,2.659l1.618,2.746l1.388,0.883l1.619,0.465
		l1.388-1.881l1.618,2.551l1.388,4.059l1.619,0.852l1.619,2.313l1.387-0.609l1.619,1.623l1.387-2.896l1.619-3.186l1.387-1.239
		l1.619,3.834l1.387-2.901l1.619-2.715l1.619,2.061l1.387,2.675l1.619-2.268l1.387,0.06l1.619,1.404l1.388-3.26l1.619-2.16
		l1.387,2.014l1.619,2.364l1.619,2.102l1.388,0.446l1.618,1.883l1.388-0.795l1.619-2.84l1.388,2.538l1.619,0.416l1.387-0.934
		l1.619-1.351l1.619,5.411l1.387,3.554l1.619,3.101l1.387,1.843l1.619-4.018l1.387-5.896l1.619-6.739l1.388-2.47l1.619,0.388
		l1.619,1.95l1.388,1.101l1.619,0.036l1.387-3.613l1.619,1.237l1.387,0.786l1.619,1.683l1.387,2.082l1.619,1.309l1.619,2.143
		l1.388,0.252l1.619-2.796l1.387,0.333l1.619-1l1.387-0.331l1.619,0.615l1.388-0.433l1.619-1.014l1.388-1.799l1.618-0.303
		l1.619,1.189l1.387-1.148l1.619-1.105l1.387-0.676l1.619,2.283l1.387,1.395l1.619-2.971l1.387,0.498l1.619-0.144l1.619,1.349
		l1.388,0.807l1.619,1.631l1.388,3.211l1.619,2.629l1.387,3.002l1.619-0.766l1.387-2.477l1.619-3.23l1.618-2.008l1.388-0.637
		l1.619-0.532l1.388,3.15l1.618-0.563l1.388,1.642l1.619-2.851l1.387,0.023l1.619-0.572l1.619-1.925l1.387,2.624l1.619,0.68
		l1.387-2.078l1.619,0.1l1.387-1.133l1.619,1.913l1.387,1.94l1.619-1.262l1.618-1.276l1.388-0.606l1.619-0.795l1.387,1.505
		l1.619-3.345l1.387,1.236l1.619,1.045l1.388,1.228l1.618,0.895l1.619-0.116l1.387,1.258l1.619-2.8l1.387,0.786l1.619-4.238
		l1.388-0.311l1.618,2.169l1.388,2.063l1.618,1.426l1.389,1.08l1.618-3.393l1.618-0.21l1.388-0.243l1.619-0.594l1.388,0.619
		l1.618-2.205l1.388,0.936l1.618,1.509l1.388-2.579l1.619-1.572l1.618,3.981l1.388,2.386l1.618-1.714l1.388-4.605l1.619,2.748
		l1.387,0.358l1.619-3.431l1.387,0.917l1.619,0.103l1.619-1.646l1.387,0.603l1.619,1.921l1.387,1.195l1.619,1.744l1.387-4.236
		l1.619-2.574l1.388,3.325l1.618,1.359l1.619-0.396l1.387,1.416l1.619-0.319l1.388-0.942l1.618-0.583l1.388,2.462l1.619,1.236
		l1.388,0.286l1.618,3.892l1.618,3.197l1.388-3.697l1.618-1.291l1.389,1.535l1.618-0.668l1.388,1.896l1.618-3.732l1.388-0.34
		l1.618-1.221l1.619,6.673l1.388,5.192l1.618-1.867l1.388,1.591l1.618-0.437l1.388-4.143l1.619-2.169l1.387-4.438l1.619-1.624
		l1.388,2.273l1.618,3.287l1.619,1.237l1.387,0.274l1.619-3.967l1.388,0.332l1.618,0.818l1.388-0.833l1.618,1.917l1.388-2.951
		l1.619-0.574l1.618-1.6l1.388-0.046l1.619,0.457l1.387,1.425l1.619,0.363l1.388-2.555l1.618,1.006l1.388-0.87l1.618,0.558
		l1.619,1.117l1.387,1.01l1.619-2.514l1.388,0.789l1.618,0.953l1.388,2.098l1.619-0.423l1.387-0.813l1.619,2.418l1.618,4.66
		l1.388,5.115l1.619,1.705l1.387-3.716l1.619,2.552l1.387-1.096l1.619-5.137l1.388-3.561l1.618-4.204l1.619-3.215l1.387-1.452
		l1.619,3.52l1.388,5.133l1.618,5.446l1.388,7.479l1.618,2.613l1.388-2.773l1.619-5.775l1.618-5.853l1.388-1.722l1.618-1.197
		l1.388-6.776l1.619-2.929l1.387,5.127l1.619,2.85l1.388-2.756l1.618-1.23l1.388-0.906l1.619-4.067l1.618,1.884l1.388-2.506
		l1.618-1.459l1.388-0.753l1.619,3.085l1.387,5.612l1.619,0.932l1.387,1.677l1.619-2.442l1.618,0.876l1.388,1.297l1.619,3.367
		l1.387,0.504l1.619-2.297l1.388,1.334l1.618-0.643l1.388-3.852l1.618-3.006l1.619,2.026l1.388-0.957l1.618,3.009l1.388-0.342
		l1.618-1.885l1.388,0.24l1.619-0.21l1.387,1.269l1.619,0.207l1.618,3.961l1.388,1.397l1.619,1.138l1.387-1.343l1.619-0.765
		l1.388-1.4l1.618-1.006l1.388-2.657l1.618,2.326l1.619,1.552l1.388,4.98l0.288,0.535"/>
</g>
</svg>
