<?xml version="1.0" encoding="utf-8"?>
<!-- Generator: Adobe Illustrator 16.0.0, SVG Export Plug-In . SVG Version: 6.00 Build 0)  -->
<!DOCTYPE svg PUBLIC "-//W3C//DTD SVG 1.1//EN" "http://www.w3.org/Graphics/SVG/1.1/DTD/svg11.dtd">
<svg version="1.1" id="Layer_1" xmlns="http://www.w3.org/2000/svg" xmlns:xlink="http://www.w3.org/1999/xlink" x="0px" y="0px"
	 width="618px" height="331px" viewBox="0 0 618 331" enable-background="new 0 0 618 331" xml:space="preserve">
<g>
	
		<line fill="none" stroke="#262626" stroke-width="0.6667" stroke-linecap="square" stroke-linejoin="round" stroke-miterlimit="10" x1="80.019" y1="295" x2="558.913" y2="295"/>
	
		<line fill="none" stroke="#262626" stroke-width="0.6667" stroke-linecap="square" stroke-linejoin="round" stroke-miterlimit="10" x1="111.929" y1="295" x2="111.929" y2="290.211"/>
	
		<line fill="none" stroke="#262626" stroke-width="0.6667" stroke-linecap="square" stroke-linejoin="round" stroke-miterlimit="10" x1="263.391" y1="295" x2="263.391" y2="290.211"/>
	
		<line fill="none" stroke="#262626" stroke-width="0.6667" stroke-linecap="square" stroke-linejoin="round" stroke-miterlimit="10" x1="415.083" y1="295" x2="415.083" y2="290.211"/>
</g>
<g transform="translate(111.9294,301.9333)">
	<text transform="matrix(1 0 0 1 -38.0002 20.0003)" fill="#262626" font-family="'ArialMT'" font-size="21">100.335</text>
</g>
<g transform="translate(263.3906,301.9333)">
	<text transform="matrix(1 0 0 1 -32.4999 20.0003)" fill="#262626" font-family="'ArialMT'" font-size="21">100.34</text>
</g>
<g transform="translate(415.083,301.9333)">
	<text transform="matrix(1 0 0 1 -38 20.0003)" fill="#262626" font-family="'ArialMT'" font-size="21">100.345</text>
</g>
<g>
	<path fill="none" stroke="#000000" stroke-width="2.3333" stroke-linejoin="round" stroke-miterlimit="10" d="M79.961,156.411
		l0.057,0.126l1.619,1.923l1.619,7.096l1.388,25.887l1.619,16.39l1.387-0.664l1.619-6.946l1.387-16.816l1.619-11.219l1.387-6.791
		l1.619-11.014l1.619-3.859l1.388-1.427l1.618-1.562l1.388-0.307l1.619-4.305l1.388-8.312l1.618-3.208l1.388,3.509l1.619-1.881
		l1.619,1.083l1.387,4.84l1.619,2.489l1.388,2.645l1.619,3.336l1.387,0.071l1.619,0.674l1.387,1.02l1.619,4.086l1.619,1.425
		l1.387,0.603l1.619-1.145l1.387,1.849l1.619,1.683l1.387-1.167l1.619,4.786l1.387,0.525l1.619-0.719l1.619-0.536l1.388-2.289
		l1.618,1.405l1.388,4.242l1.619,0.592l1.388-0.059l1.618-2.558l1.388,0.77l1.619-4.864l1.619-0.275l1.387,0.179l1.619,4.61
		l1.387-1.53l1.619,4.457l1.387,5.815l1.619,3.875l1.388-4.781l1.619-5.629l1.387,1.333l1.619,0.478l1.619,8.021l1.387,3.562
		l1.619-4.125l1.387-0.578l1.619-1.986l1.387-0.363l1.619-2.936l1.387-4.477l1.619,3.193l1.618-5.186l1.388-0.577l1.619,5.498
		l1.388-2.583l1.618,6.552l1.388,0.077l1.619,1.559l1.387-0.074l1.619-0.693l1.619-3.586l1.388,5.802l1.619,2.682l1.387-3.389
		l1.619-8.019l1.387-3.574l1.619,1.059l1.387,6.527l1.619,4.037l1.619,6.779l1.387,4.756l1.619-10.736l1.388-11.225l1.619-9.798
		l1.387-3.779l1.619,3.889l1.387-0.105l1.619,8.542l1.618,5.765l1.388-2.307l1.619,0.407l1.387-0.524l1.619-0.229l1.388-0.558
		l1.619,4.258l1.388,0.475l1.618-1.215l1.619-2.873l1.387-2.299l1.619,5.84l1.387,3.797l1.619,4.706l1.388,1.827l1.619,1.104
		l1.387,3.603l1.619-5.67l1.387-3.658l1.619,0.147l1.619-6.03l1.387-7.611l1.619-0.03l1.387,1.138l1.619-0.362l1.387-3.227
		l1.619,0.721l1.387-1.755l1.619-0.368l1.619-0.573l1.388-2.4l1.618,1.66l1.388-0.03l1.619,3.265l1.387,0.319l1.619-3.246
		l1.388,1.555l1.619,5.874l1.619,2.03l1.387-0.439l1.619,1.958l1.387,3.75l1.619,1.031l1.387-2.594l1.619-0.969l1.388,0.494l1.619-2
		l1.619-3.612l1.388,2.985l1.619,2.992l1.387-4.144l1.619,1.752l1.387,1.626l1.619,0.981l1.388,2.629l1.619-1.307l1.619-1.938
		l1.387-3.607l1.618,0.397l1.389-1.241l1.618-0.266l1.388-0.941l1.618-1.299l1.388,3.818l1.619-1.972l1.618-1.488l1.388-1.271
		l1.618,0.828l1.388,0.378l1.619-1.469l1.387-2.357l1.619,2.371l1.387,4.687l1.619-1.584l1.388-3.206l1.618,1.191l1.619-0.883
		l1.388,1.914l1.618-1.544l1.388,3.975l1.619,4.012l1.388,4.279l1.618-2.813l1.388-1.311l1.618-0.498l1.619-5.112l1.388,2.821
		l1.618,3.03l1.388-2.556l1.618,2l1.39-5.618l1.617,0.577l1.389-1.686l1.617,3.709l1.619,1.086l1.389-1.255l1.617-3.128l1.389,2.933
		l1.617,0.169l1.389-4.004l1.619-0.753l1.387,1.518l1.619-0.424l1.619-1.68l1.387,3.979l1.619,0.555l1.387,1.287l1.619-4.032
		l1.387,1.213l1.619-1.689l1.387-0.609l1.619-1.646l1.619-1.925l1.387,1.885l1.619,1.397l1.389,1.372l1.617,4.115l1.389-1.233
		l1.618-1.854l1.388,1.711l1.619,0.508l1.618-2.561l1.388-2.126l1.618,2.762l1.388,3.969l1.619-1.322l1.387-2.884l1.619,2.292
		l1.388,1.778l1.618,0.644l1.619-0.084l1.388-8.704l1.618,0.068l1.389,0.395l1.617,6.582l1.389,3.757l1.617-1.582l1.389-4.754
		l1.619-2.928l1.387,1.318l1.619,1.84l1.619,3.381l1.387,2.328l1.619,0.196l1.387,4.287l1.619-0.638l1.388-6.444l1.618,0.949
		l1.388,0.146l1.618-0.671l1.619,0.438l1.388,0.749l1.618-4.301l1.389,2.533l1.617,1.185l1.389,2.83l1.619,2.482l1.387,0.513
		l1.619-4.171l1.617-0.644l1.389-3.682l1.619,4.361l1.388-3.706l1.618-3.467l1.388,5.449l1.618,2.391l1.388,2.66l1.618-2.797
		l1.619-3.207l1.388-1.142l1.618-3.253l1.388,0.387l1.619-1.807l1.388,5.553l1.618,4.635l1.388-1.666l1.619,2.689l1.618,2.475
		l1.388,0.342l1.619-0.6l1.387,6.648l1.619-0.375l1.388-2.816l1.618-8.445l1.388-9.214l1.618-3.918l1.619,0.477l1.388-0.423
		l1.618,1.476l1.388,1.188l1.618,2.586l1.388-3.694l1.619-0.255l1.389,1.976l1.617-0.619l1.389,3.335l1.618-1.359l1.618-2.861
		l1.388-1.577l1.619,0.132l1.388,2.473l1.618,2.621l1.388,1.59l1.618,0.858l1.388-1.858l1.619,2.148l1.618-2.013l1.388-1.299
		l1.618-0.789l1.388,1.176l1.619,0.385l1.387,0.565l1.619-1.242l1.389,2.707l1.617-2.838l1.619-2.212l1.388,5.748l1.619,0.786
		l1.388-0.986l1.618-1.126l1.388-2.184l1.618-1.671l1.388,0.872l0.058-0.077"/>
	<path fill="none" stroke="#000000" stroke-width="2.3333" stroke-linejoin="round" stroke-miterlimit="10" d="M79.961,78.077
		l0.057,0.129l1.619-0.656l1.619-0.867l1.388-1.353l1.619,0.474l1.387,4.337l1.619-0.316l1.387,1.235l1.619,0.156l1.387,0.416
		l1.619-2.097l1.619,0.212l1.388-1.991l1.618-2.243l1.388,7.048l1.619,2.276l1.388-2.323l1.618,0.333l1.388,0.105l1.619-2.227
		l1.619,1.105l1.387,4.411l1.619,2.884l1.388,2.331l1.619-8.293l1.387-4.503l1.619-5.736l1.387,0.072l1.619,1.876l1.619-0.979
		l1.387,1.785l1.619-0.238l1.387,0.652l1.619,0.706l1.387,0.865l1.619,1.355l1.387,1.896l1.619,0.978l1.619-3.091l1.388-3.042
		l1.618-0.909l1.388,2.867l1.619,1.081l1.388,1.06l1.618,2.784l1.388-2.118l1.619-3.898l1.619-1.193l1.387,1.309l1.619-1.493
		l1.387-1.413l1.619,0.576l1.387,0.431l1.619,1.669l1.388-1.284l1.619-1.155l1.387-0.042l1.619,0.404l1.619,3.014l1.387,3.439
		l1.619-2.212l1.387,3.126l1.619,0.992l1.387-2.258l1.619,0.452l1.387-0.046l1.619-1.2l1.618,0.701l1.388,1.917l1.619-2.455
		l1.388-3.137l1.618-3.893l1.388,0.4l1.619,4.044l1.387-2.532l1.619-2.706l1.619-1.146l1.388,0.269l1.619-0.948l1.387,5.045
		l1.619,5.834l1.387,0.778l1.619-0.316l1.387-1.182l1.619-0.844l1.619-1.089l1.387-4.26l1.619-0.182l1.388,3.265l1.619,4.063
		l1.387,0.861l1.619-1.773l1.387-3.124l1.619-0.495l1.618-0.718l1.388-1.3l1.619-0.136l1.387,0.498l1.619,6.429l1.388,4.323
		l1.619-2.646l1.388,2.73l1.618-1.13l1.619-5.658l1.387,3.252l1.619,2.243l1.387-8.573l1.619-1.105l1.388,1.032l1.619,4.479
		l1.387-1.692l1.619-1.055l1.387,0.768l1.619-1.328l1.619-2.321l1.387,0.146l1.619-1.731l1.387,3.071l1.619,0.893l1.387,1.228
		l1.619,0.338l1.387,3.962l1.619,1.802l1.619-3.54l1.388,2.875l1.618,0.675l1.388-1.038l1.619,0.888l1.387,1.02l1.619-1.878
		l1.388-1.3l1.619-0.543l1.619-4.708l1.387-1.068l1.619,0.938l1.387-0.998l1.619,3.057l1.387,0.371l1.619-0.684l1.388,0.078
		l1.619,0.543l1.619,0.33l1.388-5.39l1.619-0.304l1.387,0.381l1.619,1.042l1.387,2.72l1.619-1.955l1.388,0.744l1.619,1.021
		l1.619-3.357l1.387,0.829l1.618-0.789l1.389,2.791l1.618,3.122l1.388-1.564l1.618-0.912l1.388-1.445l1.619,0.089l1.618-0.903
		l1.388,2.35l1.618-0.202l1.388-2.524l1.619,0.663l1.387-2.045l1.619,0.97l1.387,2.794l1.619-3.925l1.388-3.201l1.618,1.645
		l1.619,3.123l1.388,2.977l1.618,3.86l1.388,1.142l1.619-0.081l1.388,8.527l1.618,6.39l1.388-1.921l1.618-4.199l1.619-5.335
		l1.388-5.975l1.618-4.581l1.388,0.346l1.618-1.257l1.39-1.504l1.617,2.69l1.389,1.586l1.617-1.513l1.619-7.766l1.389-9.199
		l1.617-4.011l1.389,2.916l1.617,2.961l1.389,1.738l1.619,4.304l1.387,3.537l1.619,1.75l1.619-2.172l1.387,0.162l1.619,4.326
		l1.387,3.764l1.619,0.581l1.387-2.284l1.619-5.264l1.387-2.178l1.619,1.307l1.619,4.245l1.387,2.22l1.619-0.039l1.389,0.908
		l1.617-1.306l1.389,2.314l1.618-2.277l1.388,0.204l1.619,0.54l1.618-0.061l1.388-0.694l1.618-1.101l1.388,3.15l1.619,1.918
		l1.387-3.248l1.619-6.519l1.388,4.992l1.618,4.579l1.619,4.846l1.388,2.015l1.618-2.531l1.389-2.027l1.617-0.677l1.389-1.22
		l1.617-1.898l1.389,2.033l1.619-1.749l1.387-0.81l1.619-0.546l1.619,1.66l1.387-1.655l1.619-1.292l1.387-0.72l1.619,0.31
		l1.388-0.978l1.618-0.251l1.388,1.523l1.618-0.373l1.6-2.159l1.388,1.535l1.618,0.57l1.389-0.672l1.617-2.238L457.4,71.6
		l1.619,3.507l1.387,1.781l1.619-1.163l1.617,0.915l1.389-0.017l1.619-0.672l1.388-3.625l1.618,1.829l1.388,3.866l1.618-1.071
		l1.388,5.294l1.618,6.228l1.619-5.496l1.388-7.158l1.618,1.438l1.388,0.276l1.619,4.213l1.388,0.53l1.618-2.577l1.388-2.275
		l1.619-1.29l1.618,3.12l1.388-1.766l1.618,0.684l1.388,2.031l1.619,1.321l1.388,2.376l1.618-0.07l1.388-3.445l1.618-1.025
		l1.619-3.688l1.388-3.818l1.618,0.575l1.388,2.391l1.618,0.704l1.388-0.858l1.619,4.517l1.388,2.893l1.618-2.649l1.389-2.332
		l1.617,1.739l1.619-0.94l1.388-1.907l1.619,1.293l1.388-1.638l1.618,0.677l1.388,2.18l1.618,0.497l1.388-2.188l1.619-0.959
		l1.618,0.775l1.388-4.041l1.618,1.433l1.388,2.805l1.619,0.631l1.387,1.128l1.619-3.707l1.389,0.407l1.617,0.517l1.619,1.233
		l1.388,2.65l1.618,0.606l1.389-2.104l1.618,0.103l1.388-3.705l1.618,2.28l1.388,3.962l0.058-0.05"/>
	<path fill="none" stroke="#000000" stroke-width="2.3333" stroke-linejoin="round" stroke-miterlimit="10" d="M79.961,253.066
		l0.057,0.244l1.619-0.358l1.619-3.011l1.388-1.506l1.619-1.914l1.387,0.875l1.619,1.979l1.387-1.394l1.619,1.526l1.387,1.103
		l1.619,0.55l1.619,1.666l1.388,1.017l1.618,0.721l1.388,0.194l1.619-2.274l1.388,0.052l1.618,1.089l1.388-0.725l1.619,1.229
		l1.619-1.813l1.387-2.346l1.619,1.623l1.388-0.953l1.619-0.947l1.387,4.373l1.619,0.264l1.387,0.141l1.619-4.238l1.619,1.037
		l1.387,2.158l1.619-1.582l1.387-0.906l1.619-0.32l1.387-0.125l1.619,1.24l1.387,0.162l1.619,0.974l1.619-1.69l1.388-2.162
		l1.618,0.849l1.388-1.265l1.619,4.063l1.388-1.619l1.618,0.908l1.388,7.688l1.619,14.571l1.619,8.99l1.387-1.274l1.619-8.73
		l1.387-5.021l1.619,1.393l1.387-4.164l1.619-2.791l1.388-0.852l1.619-10.027l1.387-6.602l1.619-4.891l1.619-0.512l1.387-0.222
		l1.619,1.144l1.387-0.898l1.619-0.424l1.387,1.34l1.619,2.434l1.387,0.299l1.619-2.012l1.618-0.822l1.388-1.379l1.619-0.568
		l1.388-0.635l1.618,3.722l1.388,4.521l1.619,5.771l1.387,5.61l1.619-4.11l1.619,0.271l1.388-2.318l1.619-1.225l1.387-0.709
		l1.619-0.92l1.387,6.256l1.619,1.862l1.387-0.659l1.619,3l1.619,4.375l1.387-3.837l1.619-2.321l1.388-1.998l1.619-2.521
		l1.387-0.136l1.619-1.949l1.387,0.255l1.619-4.666l1.618,3.969l1.388,2.457l1.619-0.367l1.387,2.144l1.619-1.96l1.388-1.178
		l1.619-0.182l1.388-0.699l1.618-3.578l1.619-1.538l1.387-0.302l1.619,1.369l1.387,0.797l1.619,0.401l1.388,0.606l1.619,1.676
		l1.387-1.041l1.619-0.295l1.387-1.854l1.619,2.688l1.619-0.799l1.387,1.248l1.619,0.679l1.387-0.914l1.619-3.127l1.387,1.332
		l1.619,1.274l1.387,3.073l1.619,2.679l1.619-4.258l1.388,1.211l1.618,1.574l1.388-2.072l1.619,0.846l1.387,1.484l1.619-0.555
		l1.388-1.557l1.619,0.066l1.619-2.246l1.387,0.727l1.619,3.579l1.387,3.372l1.619-1.445l1.387,2.059l1.619-1.677l1.388-1.331
		l1.619-5.344l1.619,0.477l1.388-1.83l1.619-2.008l1.387,3.438l1.619,2.137l1.387,0.234l1.619-3.936l1.388-3.193l1.619,4.065
		l1.619,3.794l1.387,1.945l1.618,1.182l1.389-2.886l1.618-4.401l1.388,3.324l1.618-2.525l1.388-1.848l1.619,2.586l1.618-0.876
		l1.388,1.14l1.618-1.192l1.388,0.45l1.619-0.617l1.387-1.471l1.619-1.313l1.387,2.119l1.619-1.228l1.388-3.047l1.618,1.674
		l1.619,4.216l1.388,5.094l1.618-0.896l1.388,1.979l1.619,0.625l1.388,0.242l1.618-3.343l1.388-0.442l1.618,1.64l1.619-0.811
		l1.388-3.877l1.618-1.941l1.388,4.655l1.618-0.928l1.39-1.822l1.617-0.295l1.389,0.666l1.617,0.569l1.619,0.252l1.389,1.13
		l1.617-2.306l1.389,1.772l1.617,2.595l1.389-4.043l1.619-2.08l1.387-0.925l1.619,1.677l1.619,5.512l1.387-1.551l1.619-2.906
		l1.387,0.496l1.619-1.213l1.387,3.33l1.619-2.685l1.387-3.199l1.619,2.624l1.619,1.344l1.387-2.836l1.619-0.652l1.389,11.246
		l1.617,5.854l1.389,1.249l1.618-2.965l1.388-3.568l1.619,0.814l1.618-3.631l1.388-1.188l1.618,1.985l1.388-3.813l1.619-3.744
		l1.387-3.517l1.619-7.043l1.388,3.166l1.618-1.125l1.619-1.524l1.388-0.525l1.618,0.212l1.389,2.659l1.617,2.746l1.389,0.883
		l1.617,0.465l1.389-1.881l1.619,2.551l1.387,4.059l1.619,0.853l1.619,2.313l1.387-0.609l1.619,1.623l1.387-2.896l1.619-3.186
		l1.388-1.239l1.618,3.834l1.388-2.901l1.618-2.715l1.619,2.062l1.388,2.675l1.618-2.268l1.389,0.06l1.617,1.403l1.389-3.26
		l1.619-2.16l1.387,2.015l1.619,2.364l1.617,2.102l1.389,0.446l1.619,1.883l1.388-0.795l1.618-2.84l1.388,2.538l1.618,0.416
		l1.388-0.935l1.618-1.351l1.619,5.41l1.388,3.555l1.618,3.102l1.388,1.844l1.619-4.02l1.388-5.896l1.618-6.738l1.388-2.471
		l1.619,0.389l1.618,1.95l1.388,1.101l1.619,0.036l1.387-3.612l1.619,1.236l1.388,0.786l1.618,1.683l1.388,2.082l1.618,1.309
		l1.619,2.144l1.388,0.252l1.618-2.796l1.388,0.333l1.618-1l1.388-0.331l1.619,0.615l1.389-0.434l1.617-1.014l1.389-1.799
		l1.618-0.303l1.618,1.188l1.388-1.147l1.619-1.105l1.388-0.676l1.618,2.283l1.388,1.395l1.618-2.971l1.388,0.498l1.619-0.145
		l1.618,1.35l1.388,0.807l1.618,1.631l1.388,3.211l1.619,2.629l1.387,3.002l1.619-0.766l1.389-2.477l1.617-3.23l1.619-2.008
		l1.388-0.637l1.619-0.532l1.388,3.149l1.618-0.563l1.388,1.643l1.618-2.852l1.388,0.023l0.058-0.021"/>
</g>
</svg>
