<?xml version="1.0" encoding="utf-8"?>
<!-- Generator: Adobe Illustrator 16.0.0, SVG Export Plug-In . SVG Version: 6.00 Build 0)  -->
<!DOCTYPE svg PUBLIC "-//W3C//DTD SVG 1.1//EN" "http://www.w3.org/Graphics/SVG/1.1/DTD/svg11.dtd">
<svg version="1.1" id="Layer_1" xmlns="http://www.w3.org/2000/svg" xmlns:xlink="http://www.w3.org/1999/xlink" x="0px" y="0px"
	 width="618px" height="331px" viewBox="0 0 618 331" enable-background="new 0 0 618 331" xml:space="preserve">
<g>
	
		<line fill="none" stroke="#262626" stroke-width="0.6667" stroke-linecap="square" stroke-linejoin="round" stroke-miterlimit="10" x1="79.998" y1="295" x2="558.893" y2="295"/>
	
		<line fill="none" stroke="#262626" stroke-width="0.6667" stroke-linecap="square" stroke-linejoin="round" stroke-miterlimit="10" x1="186.599" y1="295" x2="186.599" y2="290.211"/>
	
		<line fill="none" stroke="#262626" stroke-width="0.6667" stroke-linecap="square" stroke-linejoin="round" stroke-miterlimit="10" x1="338.061" y1="295" x2="338.061" y2="290.211"/>
	
		<line fill="none" stroke="#262626" stroke-width="0.6667" stroke-linecap="square" stroke-linejoin="round" stroke-miterlimit="10" x1="489.753" y1="295" x2="489.753" y2="290.211"/>
</g>
<g transform="translate(186.5992,301.9333)">
	<text transform="matrix(1 0 0 1 -32.5001 20.0003)" fill="#262626" font-family="'ArialMT'" font-size="21">100.36</text>
</g>
<g transform="translate(338.0603,301.9333)">
	<text transform="matrix(1 0 0 1 -37.9998 20.0003)" fill="#262626" font-family="'ArialMT'" font-size="21">100.365</text>
</g>
<g transform="translate(489.7527,301.9333)">
	<text transform="matrix(1 0 0 1 -32.4998 20.0003)" fill="#262626" font-family="'ArialMT'" font-size="21">100.37</text>
</g>
<g>
	<path fill="none" stroke="#000000" stroke-width="2.3333" stroke-linejoin="round" stroke-miterlimit="10" d="M79.941,149.519
		l0.52,0.744l1.619,2.293l1.387,1.624l1.619-0.394l1.388,0.244l1.619,0.995l1.387,2.354l1.619-0.201l1.619-1.618l1.388,0.428
		l1.619-1.203l1.387,1.277l1.619,2.798l1.388-4.251l1.619-1.699l1.387,3.888l1.619,1.253l1.619,3.904l1.388-5.046l1.619-5.774
		l1.387-2.986l1.619,0.199l1.388-1.954l1.619,2.991l1.387,4.51l1.619,1.683l1.619-1.063l1.388-2.477l1.619-0.453l1.387-2.256
		l1.619,1.99l1.388,4.552l1.619,4.051l1.387,3.237l1.619,1.38l1.619-2.608l1.388-1.942l1.619,5.287l1.387,1.816l1.619-0.137
		l1.388-5.321l1.619-1.823l1.387,1.317l1.619-3.099l1.619,2.342l1.388-1.375l1.619-7.444l1.387-3.63l1.619,7.34l1.388-3.629
		l1.619,0.786l1.387,2.939l1.619-6.297l1.619,1.671l1.388,1.871l1.619-1.741l1.387-1.798l1.619,1.323l1.387,2.812l1.619-0.177
		l1.387-1.058l1.619,4.187l1.388-0.346l1.619-1.759l1.619,2.258l1.387-2.602l1.619,0.436l1.388-1.1l1.619-0.057l1.387,2.484
		l1.619,0.561l1.388-1.328l1.619,1.054l1.619,4.692l1.387-2.5l1.619-2.691l1.388,3.14l1.619-1.682l1.387-2.344l1.619,0.684
		l1.388,5.14l1.618,0.872l1.619-0.37l1.387-1.307l1.619,0.498l1.388-1.023l1.619-2.726l1.387,2.58l1.619,0.576l1.387-1.066
		l1.619-0.62l1.619-0.885l1.387,1.645l1.619,1.586l1.388-1.934l1.619-1.116l1.387-6.117l1.619,5.095l1.388,5.508l1.619,2.959
		l1.619,0.411l1.387-8.562l1.619,1.326l1.388-0.49l1.618-5.12l1.388,2.289l1.619,2.386l1.388,0.212l1.619,0.214l1.619-1.014
		l1.387-1.067l1.619,3.861l1.387-2.895l1.619-0.604l1.387-3.616l1.619,1.835l1.388-0.136l1.619,2.617l1.387,0.953l1.619-1.929
		l1.619,0.793l1.388-1.409l1.619,1.728l1.387-2.24l1.619,3.54l1.388,0l1.619-1.539l1.387,2.328l1.619,1.964l1.619,1.113l1.388,1.559
		l1.619-2.377l1.387-3.709l1.619-1.244l1.388-1.866l1.619-0.868l1.387-0.619l1.619,4.125l1.619,0.787l1.388,0.556l1.619-5.999
		l1.387,1.351l1.619,2.589l1.387-3.112l1.619,0.751l1.387,1.571l1.619,2.432l1.619-2.374l1.388-2.421l1.619,0.193l1.387-2.526
		l1.619,1.239l1.388,5.793l1.618,1.727l1.388,2.34l1.618,0.676l1.619,0.694l1.388,2.377l1.618,1.088l1.388-1.484l1.618,3.659
		l1.389-2.798l1.618-6.204l1.388-2.276l1.618-1.359l1.618,4.444l1.388-3.998l1.619-0.664l1.388-4.747l1.618-1.421l1.388,6.034
		l1.619,2.346l1.387-0.5l1.619,2.863l1.387-0.283l1.619,1.122l1.619-2.787l1.387,1.069l1.619,0.645l1.387,0.344l1.619,0.549
		l1.387-3.714l1.619-0.829l1.388,0.969l1.618,1.996l1.619-1.883l1.387-1.529l1.619-3.758l1.388-1.326l1.618,5.11l1.388-1.556
		l1.618,4.205l1.389,6.059l1.618,7.686l1.618-1.278l1.388-11.861l1.618-3.972l1.388,2.824l1.619-3.368l1.388,0.401l1.618-1.591
		l1.388-1.21l1.619-0.286l1.618-0.552l1.388,2.157l1.618-0.429l1.388,0.019l1.619-2.079l1.387-6.612l1.619,5.172l1.387,3.085
		l1.619,4.586l1.618-1.516l1.388-1.569l1.619-2.573l1.387,0.296l1.619-0.787l1.388,2.416l1.618,0.952l1.388-0.462l1.618,0.472
		l1.619-5.167l1.387-4.731l1.619,6.94l1.388,5.179l1.618-3.441l1.388-2.056l1.619,1.595l1.387,0.668l1.619,2.427l1.388,0.228
		l1.618,2.328l1.618,2.537l1.388-0.441l1.619,1.726l1.388-1.756l1.618,0.673l1.388-1.252l1.618-2.753l1.388-0.438l1.619-1.664
		l1.618-3.989l1.388-1.495l1.618,0.435l1.388,0.38l1.619,3.441l1.387,5.551l1.619,1.426l1.387-5.491l1.619-2.865l1.619-1.343
		l1.387,0.84l1.619-0.318l1.387,5.1l1.619,0.719l1.388-1.056l1.618-3.995l1.388,5.682l1.618-0.458l1.619-4.405l1.388,1.525
		l1.618,0.336l1.388,1.411l1.619,2.149l1.387-7.627l1.619-2.983l1.388,2.477l1.618-1.823l1.618-2.504l1.388,1.546l1.619,4.944
		l1.388,2.823l1.618-1.694l1.388,4.148l1.618,1.019l1.388-7.623l1.619,1.397l1.618-1.42l1.388,3.463l1.618-2.385l1.388-0.169
		l1.619,1.994l1.387-1.398l1.619-0.594l1.387,0.438l1.619-0.472l1.388,1.579l1.618,2.185l1.619-4.068l1.387-0.101l1.619,3.581
		l1.388-2.748l1.618,2.187l1.388,0.892l1.618-1.053l1.388-3.667l1.619,1.537l1.618-1.382l1.388,4.682l1.618-4.63l1.388-0.272
		l1.619,9.446l1.387-0.576l1.619,3.097l1.388,0.77l1.618-0.42l1.619-1.175l1.388,1.655l1.618-2.319l1.388-2.757l1.618-3.256
		l1.388,1.825l1.619-3.104l1.387-2.319l1.619-3.394l1.618,2.076l0.982,0.573"/>
	<path fill="none" stroke="#000000" stroke-width="2.3333" stroke-linejoin="round" stroke-miterlimit="10" d="M79.941,64.74
		l0.52-0.117l1.619,3.011l1.387-2.553l1.619-0.544l1.388,0.444l1.619-4.103l1.387-0.543l1.619,3.565l1.619-1.112l1.388,2.405
		l1.619,0.259l1.387,3.956l1.619-3.526l1.388-1.021l1.619,5.229l1.387,0.982l1.619-1.166l1.619-2.117l1.388-0.585l1.619-4.747
		l1.387-3.567l1.619-1.173l1.388-0.394l1.619,3.4l1.387-1.464l1.619-1.62l1.619,10.364l1.388,15.954l1.619,0.933l1.387,0.296
		l1.619,1.168l1.388-1.476l1.619-4.805l1.387-7.798l1.619-2.485l1.619-5.002l1.388-2.998l1.619-1.009l1.387-0.6l1.619-3.291
		l1.388-2.125l1.619,4.398l1.387-2.512l1.619,0.83l1.619,0.526l1.388,1.689l1.619-1.848l1.387,2.755l1.619,3.716l1.388,0.598
		l1.619-2.219l1.387-0.132l1.619,0.455l1.619-0.889l1.388-1.413l1.619-0.125l1.387,3.998l1.619,3.788l1.387-1.515l1.619,0.603
		l1.387,4.482l1.619,13.384l1.388,16.111l1.619-4.08l1.619-24.508l1.387-20.502l1.619-4.847l1.388,3.134l1.619-0.697l1.387-0.288
		l1.619,3.597l1.388,2.559l1.619,4.198l1.619-0.533l1.387-0.292l1.619,0.891l1.388,3.086l1.619-0.72l1.387,1.115l1.619,0.293
		l1.388-0.887l1.618,3.305l1.619-0.907l1.387,1.237l1.619,1.577l1.388,0.184l1.619,1.349l1.387,0.223l1.619-0.502l1.387-0.026
		l1.619,1.844l1.619-0.385l1.387-0.707l1.619-4.373l1.388-1.012l1.619-3.365l1.387,1.608l1.619,3.981l1.388,3.821l1.619-0.542
		l1.619,2.111l1.387-2.69l1.619,0.267l1.388-0.217l1.618-0.548l1.388-2.144l1.619,3.07l1.388-1.524l1.619-1.029l1.619,1.898
		l1.387-1.168l1.619,0.399l1.387,0.301l1.619-2.132l1.387,0.497l1.619-1.835l1.388,1.747l1.619-0.892l1.387-1.287l1.619,3.222
		l1.619,3.516l1.388-0.281l1.619-3.366l1.387,0.313l1.619-0.147l1.388-3.242l1.619,2.979L272.851,71l1.619,0.746l1.619-2.129
		L277.476,68l1.619,0.124l1.387,1.937l1.619-3.407l1.388-1.026l1.619,1.076l1.387-1.77l1.619,0.887l1.619,5.365l1.388,1.41
		l1.619-4.043l1.387,2.514l1.619,3.31l1.387-3.074l1.619-0.45l1.387-1.15l1.619-0.719l1.619-0.917l1.388-0.478l1.619-1.295
		l1.387,2.072l1.619,0.707l1.388,1.321l1.618-1.332l1.388-2.072l1.618,2.782l1.619,2.105l1.388-2.797l1.618-0.196l1.388-0.518
		l1.618,0.327l1.389-0.945l1.618,2.446l1.388,1.216l1.618-2l1.618,2.007l1.388,0.749l1.619,0.286l1.388-1.973l1.618-3.839
		l1.388-2.344l1.619,4.269l1.387,0.295l1.619-2.479l1.387,0.359l1.619,4.964l1.619-0.302l1.387,0.916l1.619,2.528l1.387,2.058
		l1.619-2.384l1.387-1.442l1.619-0.501l1.388,0.761l1.618,1.919l1.619,1.81l1.387-1.539l1.619-0.621l1.388-1.897l1.618,1.221
		l1.388-3.243l1.618,2.445l1.389,2.38l1.618-1.277l1.618-1.967l1.388,0.879l1.618-4.284l1.388-3.076l1.619,0.81l1.388-2.592
		l1.618,4.221l1.388,6.55l1.619,0.094l1.618-0.544l1.388-1.766l1.618,4.144l1.388-0.37l1.619,0.095l1.387,1.77l1.619-1.859
		l1.387-1.685l1.619,0.808l1.618-2.709l1.388-2.373l1.619-2.014l1.387-0.15l1.619,2.739l1.388,0.232l1.618,0.819l1.388,1.719
		l1.618-1.923l1.619,0.179l1.387-1.776l1.619,0.363l1.388,2.001l1.618,1.642l1.388,7.288l1.619,3.247l1.387-1.592l1.619-6.986
		l1.388,0.927l1.618-3.55l1.618-3.318l1.388-4.983l1.619-1.902l1.388-1.801l1.618-2.737l1.388,4.799l1.618-1.346l1.388-1.573
		l1.619,2.133l1.618,3.229l1.388-0.148l1.618-4.012l1.388-1.14l1.619-2.434l1.387-0.751l1.619,0.409l1.387,3.973l1.619,3.669
		l1.619,0.392l1.387-2.411l1.619-1.817l1.387-0.139l1.619,2.185l1.388-0.732l1.618,1.466l1.388,3.688l1.618,1.153l1.619,0.6
		l1.388,2.26l1.618-0.567l1.388-1.602l1.619-0.592l1.387,2.738l1.619-2.03l1.388,2.839l1.618-0.202l1.618-1.029l1.388-1.435
		l1.619-0.971l1.388,1.596l1.618-2.193l1.388-1.192l1.618,0.596l1.388,3.955l1.619,1.487l1.618-0.103l1.388,3.708l1.618,0.477
		l1.388-1.384l1.619-0.853l1.387-0.226l1.619-1.886l1.387,0.948l1.619,0.777l1.388-0.709l1.618,2.854l1.619-3.347l1.387-2.646
		l1.619,1.714l1.388,0.608l1.618,2.265l1.388-0.554l1.618-0.909l1.388,2.081l1.619,0.814l1.618-0.018l1.388-0.647l1.618-5.156
		l1.388-6.927l1.619,3.108l1.387,3.99l1.619-0.835l1.388-1.797l1.618-0.229l1.619,3.828l1.388,4.187l1.618-2.992l1.388-0.787
		l1.618-1.125l1.388-3.537l1.619-0.739l1.387,2.529l1.619,2.759l1.618-0.355l0.982-0.198"/>
	<path fill="none" stroke="#000000" stroke-width="2.3333" stroke-linejoin="round" stroke-miterlimit="10" d="M79.941,239.193
		l0.52-2.538l1.619-2.929l1.387,5.127l1.619,2.85l1.388-2.756l1.619-1.23l1.387-0.906l1.619-4.067l1.619,1.884l1.388-2.506
		l1.619-1.459l1.387-0.753l1.619,3.085l1.388,5.612l1.619,0.932l1.387,1.677l1.619-2.442l1.619,0.876l1.388,1.297l1.619,3.367
		l1.387,0.504l1.619-2.297l1.388,1.334l1.619-0.643l1.387-3.852l1.619-3.006l1.619,2.026l1.388-0.957l1.619,3.009l1.387-0.342
		l1.619-1.885l1.388,0.24l1.619-0.21l1.387,1.269l1.619,0.207l1.619,3.961l1.388,1.397l1.619,1.138l1.387-1.343l1.619-0.765
		l1.388-1.4l1.619-1.006l1.387-2.657l1.619,2.326l1.619,1.552l1.388,4.98l1.619,3.002l1.387,1.889l1.619-4.373l1.388-2.721
		l1.619-2.037l1.387-0.079l1.619-1.8l1.619-0.693l1.388,1.627l1.619,2.139l1.387-0.627l1.619,2.051l1.387-0.119l1.619,2.884
		l1.387,0.1l1.619-4.87l1.388,0.342l1.619-1.245l1.619,0.985l1.387,0.619l1.619-0.058l1.388-3.626l1.619-0.673l1.387,1.476
		l1.619,3.404l1.388-1.491l1.619-0.274l1.619,3.428l1.387,12.748l1.619,6.412l1.388,5.695l1.619-4.916l1.387-8.713l1.619-6.686
		l1.388-6.002l1.618,0.166l1.619-0.955l1.387-2.29l1.619-2.081l1.388-7.301l1.619-0.465l1.387-2.102l1.619-1.831l1.387,1.067
		l1.619-2.16l1.619,2.149l1.387,3.228l1.619,1.512l1.388-1.049l1.619,3.115l1.387,2.172l1.619,0.843l1.388,0.517l1.619-0.236
		l1.619-0.363l1.387-1.404l1.619-1.594l1.388-0.002l1.618,0.377l1.388,1.171l1.619,0.302l1.388,2.808l1.619,0.61l1.619-2.9
		l1.387-2.67l1.619,4.873l1.387,3.473l1.619,0.307l1.387,0.469l1.619,1.847l1.388,0.604l1.619,0.651l1.387-0.948l1.619-2.425
		l1.619-0.611l1.388-0.554l1.619-2.83l1.387,0.577l1.619,1.104l1.388-1.093l1.619-1.298l1.387,1.48l1.619,2.541l1.619-2.574
		l1.388-4.043l1.619-3.544l1.387,0.507l1.619,3.493l1.388-0.364l1.619-4.161l1.387-2.55l1.619,2.817l1.619-0.011l1.388,4.268
		l1.619,2.77l1.387,0.796l1.619,2.588l1.387,0.146l1.619,0.289l1.387,1.824l1.619-0.932l1.619,0.91l1.388-1.959l1.619,1.4
		l1.387,1.773l1.619-4.002l1.388-0.605l1.618-1.737l1.388,3.681l1.618,1.84l1.619-4.705l1.388,5.438l1.618-0.171l1.388,1.358
		l1.618-0.717l1.389-2.683l1.618-2.896l1.388,2.699l1.618,1.708l1.618-0.683l1.388-1.868l1.619-2.376l1.388,0.771l1.618,4.947
		l1.388-4.399l1.619-1.141l1.387-2.886l1.619,0.298l1.387,4.684l1.619-0.313l1.619,1.244l1.387-3.181l1.619,2.056l1.387,0.843
		l1.619-1.468l1.387-0.665l1.619-1.591l1.388,1.622l1.618,0.345l1.619-1.533l1.387-0.986l1.619-1.409l1.388-0.144l1.618-2.407
		l1.388,1.095l1.618-2.988l1.389,1.088l1.618-1.332l1.618,3.938l1.388-2.285l1.618-1.996l1.388,1.196l1.619-2.827l1.388,1.961
		l1.618,2.748l1.388,1.783l1.619,0.698l1.618-2.071l1.388-5.01l1.618,0.573l1.388,0.763l1.619,3.483l1.387,2.045l1.619-4.022
		l1.387,0.109l1.619-1.604l1.618-2.039l1.388,2.393l1.619-0.934l1.387,0.102l1.619,0.554l1.388-0.071l1.618,0.542l1.388-2.014
		l1.618,2.71l1.619,2.99l1.387,2.975l1.619-3.289l1.388,1.43l1.618,1.57l1.388-0.752l1.619,0.705l1.387,1.879l1.619,0.496
		l1.388,1.783l1.618,3.52l1.618,6.036l1.388-1.806l1.619-6.255l1.388-0.596l1.618-0.966l1.388-0.779l1.618-0.019l1.388-2.106
		l1.619,1.086l1.618,1.098l1.388,0.438l1.618-2.243l1.388-3.629l1.619,1.59l1.387,0.217l1.619-0.284l1.387,1.994l1.619,1.981
		l1.619-1.369l1.387,7.388l1.619,6.37l1.387,5.795l1.619-2.58l1.388-6.641l1.618-4.697l1.388-2.819l1.618-5.948l1.619-4.572
		l1.388-3.794l1.618-0.461l1.388,1.248l1.619,0.765l1.387,3.917l1.619,0.503l1.388-1.539l1.618-0.873l1.618,2.124l1.388,2.333
		l1.619-1.586l1.388,0.25l1.618,1.917l1.388,2.269l1.618,1.273l1.388,1.482l1.619-4.919l1.618-2.786l1.388-3.51l1.618-0.643
		l1.388,2.258l1.619-0.29l1.387-1.229l1.619-0.16l1.387-1.301l1.619,5.976l1.388-0.359l1.618-0.871l1.619-0.109l1.387-4.755
		l1.619,6.029l1.388,0.042l1.618-2.743l1.388,3.481l1.618,1.978l1.388-2.875l1.619-3.414l1.618,5.906l1.388-0.143l1.618,1.986
		l1.388-0.484l1.619-5.742l1.387,1.553l1.619-1.537l1.388,0.596l1.618,3.072l1.619,2.059l1.388,1.734l1.618,1.572l1.388-2.138
		l1.618,1.634l1.388-0.129l1.619-0.332l1.387,1.943l1.619,4.25l1.618,3.863l0.982-2.926"/>
</g>
</svg>
