<?xml version="1.0" encoding="utf-8"?>
<!-- Generator: Adobe Illustrator 16.0.0, SVG Export Plug-In . SVG Version: 6.00 Build 0)  -->
<!DOCTYPE svg PUBLIC "-//W3C//DTD SVG 1.1//EN" "http://www.w3.org/Graphics/SVG/1.1/DTD/svg11.dtd">
<svg version="1.1" id="Layer_1" xmlns="http://www.w3.org/2000/svg" xmlns:xlink="http://www.w3.org/1999/xlink" x="0px" y="0px"
	 width="618px" height="331px" viewBox="0 0 618 331" enable-background="new 0 0 618 331" xml:space="preserve">
<g>
	
		<line fill="none" stroke="#262626" stroke-width="0.6667" stroke-linecap="square" stroke-linejoin="round" stroke-miterlimit="10" x1="79.928" y1="295" x2="559.054" y2="295"/>
	
		<line fill="none" stroke="#262626" stroke-width="0.6667" stroke-linecap="square" stroke-linejoin="round" stroke-miterlimit="10" x1="138.431" y1="295" x2="138.431" y2="290.209"/>
	
		<line fill="none" stroke="#262626" stroke-width="0.6667" stroke-linecap="square" stroke-linejoin="round" stroke-miterlimit="10" x1="199.015" y1="295" x2="199.015" y2="290.209"/>
	
		<line fill="none" stroke="#262626" stroke-width="0.6667" stroke-linecap="square" stroke-linejoin="round" stroke-miterlimit="10" x1="259.6" y1="295" x2="259.6" y2="290.209"/>
	
		<line fill="none" stroke="#262626" stroke-width="0.6667" stroke-linecap="square" stroke-linejoin="round" stroke-miterlimit="10" x1="320.184" y1="295" x2="320.184" y2="290.209"/>
	
		<line fill="none" stroke="#262626" stroke-width="0.6667" stroke-linecap="square" stroke-linejoin="round" stroke-miterlimit="10" x1="380.769" y1="295" x2="380.769" y2="290.209"/>
	
		<line fill="none" stroke="#262626" stroke-width="0.6667" stroke-linecap="square" stroke-linejoin="round" stroke-miterlimit="10" x1="441.354" y1="295" x2="441.354" y2="290.209"/>
	
		<line fill="none" stroke="#262626" stroke-width="0.6667" stroke-linecap="square" stroke-linejoin="round" stroke-miterlimit="10" x1="501.938" y1="295" x2="501.938" y2="290.209"/>
</g>
<g transform="translate(138.4309,301.9333)">
	<text transform="matrix(1 0 0 1 -38.0002 20.0003)" fill="#262626" font-family="'ArialMT'" font-size="21">100.356</text>
</g>
<g transform="translate(259.5998,301.9333)">
	<text transform="matrix(1 0 0 1 -32.5002 20.0003)" fill="#262626" font-family="'ArialMT'" font-size="21">100.36</text>
</g>
<g transform="translate(380.7687,301.9333)">
	<text transform="matrix(1 0 0 1 -38.0001 20.0003)" fill="#262626" font-family="'ArialMT'" font-size="21">100.364</text>
</g>
<g transform="translate(501.9376,301.9333)">
	<text transform="matrix(1 0 0 1 -38.0001 20.0003)" fill="#262626" font-family="'ArialMT'" font-size="21">100.368</text>
</g>
<g>
	<path fill="none" stroke="#000000" stroke-width="2.3333" stroke-linejoin="round" stroke-miterlimit="10" d="M79.871,164.221
		l0.982,1.204l1.387-5.224l1.619-2.006l1.388,2.004l1.619-2.377l1.387-1.496l1.619-1.718l1.388-3.563l1.619-0.514l1.619-1.377
		l1.387,5.605l1.619,0.32l1.387-0.328l1.619-3.365l1.387-3.029l1.619-3.244l1.388,2.226l1.619,0.343l1.619,1.651l1.387,1.271
		l1.619,3.396l1.388-2.368l1.619,1.561l1.387-1.504l1.619-1.005l1.388-3.927l1.619,3.179l1.619,2.601l1.387,0.545l1.619-0.656
		l1.388,1.042l1.619-0.419l1.387-1.439l1.619,3.985l1.388,2.438l1.619,4.456l1.619,3.992l1.387-2.475l1.619,3.544l1.388,2.122
		l1.619,6.131l1.387-3.803l1.619-7.259l1.388-2.212l1.619-9.532l1.619-1.747l1.387-1.579l1.619-0.394l1.388,1.986l1.619,2.293
		l1.387,1.624l1.619-0.394l1.388,0.244l1.619,0.995l1.387,2.354l1.619-0.201l1.619-1.618l1.388,0.428l1.619-1.203l1.387,1.277
		l1.619,2.798l1.388-4.251l1.619-1.699l1.387,3.888l1.619,1.253l1.619,3.904l1.387-5.046l1.619-5.774l1.387-2.986l1.619,0.199
		l1.388-1.954l1.619,2.991l1.387,4.51l1.619,1.683l1.619-1.063l1.388-2.477l1.619-0.453l1.387-2.256l1.619,1.99l1.388,4.552
		l1.619,4.051l1.387,3.237l1.619,1.38l1.619-2.608l1.388-1.942l1.619,5.286l1.387,1.816l1.619-0.137l1.388-5.321l1.619-1.823
		l1.387,1.317l1.619-3.099l1.619,2.342l1.388-1.375l1.619-7.444l1.387-3.63l1.619,7.34l1.387-3.629l1.619,0.786l1.387,2.939
		l1.619-6.297l1.619,1.671l1.388,1.871l1.619-1.741l1.387-1.798l1.619,1.323l1.388,2.812l1.619-0.177l1.387-1.058l1.619,4.187
		l1.388-0.346l1.619-1.759l1.619,2.258l1.387-2.602l1.619,0.436l1.388-1.1l1.619-0.057l1.387,2.484l1.619,0.561l1.388-1.328
		l1.619,1.054l1.619,4.692l1.387-2.5l1.619-2.691l1.388,3.14l1.619-1.682l1.387-2.344l1.619,0.684l1.388,5.14l1.619,0.872
		l1.619-0.37l1.387-1.307l1.619,0.498l1.388-1.023l1.619-2.726l1.387,2.58l1.619,0.576l1.388-1.066l1.619-0.62l1.619-0.885
		l1.387,1.645l1.619,1.586l1.388-1.934l1.619-1.116l1.387-6.117l1.619,5.095l1.388,5.508l1.619,2.959l1.619,0.411l1.387-8.562
		l1.619,1.326l1.387-0.49l1.619-5.12l1.387,2.289l1.619,2.386l1.388,0.212l1.618,0.214l1.619-1.014l1.387-1.067l1.619,3.861
		l1.388-2.895l1.618-0.604l1.388-3.616l1.618,1.835l1.389-0.136l1.618,2.617l1.388,0.953l1.618-1.929l1.618,0.793l1.389-1.409
		l1.618,1.728l1.388-2.24l1.618,3.54l1.388,0l1.619-1.539l1.387,2.328l1.619,1.964l1.618,1.113l1.388,1.559l1.619-2.377l1.387-3.709
		l1.619-1.244l1.387-1.866l1.619-0.868l1.387-0.619l1.619,4.125l1.619,0.787l1.387,0.556l1.619-5.999l1.387,1.351l1.619,2.589
		l1.388-3.112l1.618,0.751l1.388,1.571l1.618,2.432l1.619-2.374l1.388-2.421l1.618,0.193l1.388-2.526l1.618,1.239l1.389,5.793
		l1.618,1.727l1.388,2.34l1.618,0.676l1.618,0.694l1.389,2.377l1.618,1.088l1.388-1.484l1.618,3.659l1.388-2.798l1.618-6.204
		l1.388-2.276l1.619-1.359l1.618,4.444l1.388-3.998l1.618-0.664l1.388-4.747l1.619-1.421l1.387,6.034l1.619,2.346l1.388-0.5
		l1.618,2.863l1.388-0.283l1.618,1.122l1.619-2.787l1.388,1.069l1.618,0.645l1.388,0.344l1.618,0.549l1.388-3.714l1.619-0.829
		l1.387,0.969l1.619,1.996l1.618-1.883l1.388-1.529l1.619-3.758l1.387-1.326l1.619,5.11l1.388-1.556l1.618,4.205l1.388,6.059
		l1.618,7.686l1.619-1.278l1.388-11.861l1.618-3.972l1.388,2.824l1.618-3.368l1.388,0.401l1.619-1.591l1.387-1.21l1.619-0.286
		l1.618-0.552l1.388,2.157l1.619-0.429l1.387,0.019l1.619-2.079l1.388-6.612l1.618,5.172l1.388,3.085l1.618,4.586l1.619-1.516
		l1.388-1.569l1.618-2.573l1.388,0.296l1.618-0.787l1.388,2.416l1.619,0.952l1.387-0.462l1.619,0.472l1.618-5.167l1.388-4.731
		l1.619,6.94l1.387,5.179l1.619-3.441l1.388-2.056l1.618,1.595l1.388,0.668l1.618,2.427l1.388,0.228l1.619,2.328l1.618,2.537
		l1.388-0.441l1.618,1.726l1.388-1.756l1.619,0.673l1.387-1.252l1.619-2.753l1.388-0.438l1.618-1.664l1.619-3.989l1.387-1.495
		l1.619,0.435l1.388,0.38l1.618,3.441l1.388,5.551l1.618,1.426l1.388-5.491l1.619-2.865l1.618-1.343l1.388,0.84l1.618-0.318
		l1.388,5.1l1.619,0.719l1.387-1.056l1.619-3.995l1.388,5.682l1.618-0.458l1.619-4.405l1.387,1.525l1.619,0.336l1.388,1.411
		l1.618,2.149l1.388-7.627l1.618-2.983l1.388,2.477l1.619-1.823l0.981-1.52"/>
	<path fill="none" stroke="#000000" stroke-width="2.3333" stroke-linejoin="round" stroke-miterlimit="10" d="M79.871,65.393
		l0.982,3.319l1.387,3.173l1.619,1.929l1.388,0.531l1.619-1.864l1.387-1.591l1.619-3.546l1.388-1.857l1.619-3.565l1.619-1.066
		l1.387,0.384l1.619-1.004l1.387,3.239l1.619,2.97l1.387,9.251l1.619,8.999l1.388,1.181l1.619-2.573l1.619-4.036l1.387-3.455
		l1.619-0.736l1.388-0.344l1.619-3.505l1.387,1.691l1.619-2.814l1.388-1.137l1.619-1.021l1.619-1.671l1.387-4.69l1.619,1.375
		l1.388-1.995l1.619,1.814l1.387,2.447l1.619,2.018l1.388,2.445l1.619,2.777l1.619-5.229l1.387-2.274l1.619-2.452l1.388-2.267
		l1.619,0.453l1.387,0.576l1.619,3.24l1.388-0.239l1.619,0.913l1.619,1.076l1.387-2.717l1.619,2.389l1.388-0.311l1.619,3.011
		l1.387-2.553l1.619-0.544l1.388,0.444l1.619-4.103l1.387-0.543l1.619,3.565l1.619-1.112l1.388,2.405l1.619,0.259l1.387,3.956
		l1.619-3.526l1.388-1.021l1.619,5.229l1.387,0.982l1.619-1.166l1.619-2.117l1.387-0.585l1.619-4.747l1.387-3.567l1.619-1.173
		l1.388-0.394l1.619,3.4l1.387-1.464l1.619-1.62l1.619,10.364l1.388,15.954l1.619,0.933l1.387,0.296l1.619,1.168l1.388-1.476
		l1.619-4.805l1.387-7.798l1.619-2.485l1.619-5.002l1.388-2.998l1.619-1.009l1.387-0.6l1.619-3.291l1.388-2.125l1.619,4.398
		l1.387-2.512l1.619,0.83l1.619,0.526l1.388,1.689l1.619-1.848l1.387,2.755l1.619,3.716l1.387,0.598l1.619-2.219l1.387-0.132
		l1.619,0.455l1.619-0.889l1.388-1.413l1.619-0.125l1.387,3.998l1.619,3.788l1.388-1.515l1.619,0.603l1.387,4.482l1.619,13.384
		l1.388,16.111l1.619-4.08l1.619-24.508l1.387-20.502l1.619-4.847l1.388,3.134l1.619-0.697l1.387-0.288l1.619,3.597l1.388,2.559
		l1.619,4.198l1.619-0.533l1.387-0.292l1.619,0.891l1.388,3.086l1.619-0.72l1.387,1.115l1.619,0.293l1.388-0.887l1.619,3.305
		l1.619-0.907l1.387,1.237l1.619,1.577l1.388,0.184l1.619,1.349l1.387,0.223l1.619-0.502l1.388-0.026l1.619,1.844l1.619-0.385
		l1.387-0.707l1.619-4.373l1.388-1.012l1.619-3.365l1.387,1.608l1.619,3.981l1.388,3.821l1.619-0.542l1.619,2.111l1.387-2.69
		l1.619,0.267l1.387-0.217l1.619-0.548l1.387-2.144l1.619,3.07l1.388-1.524l1.618-1.029l1.619,1.898l1.387-1.168l1.619,0.399
		l1.388,0.301l1.618-2.132l1.388,0.497l1.618-1.835l1.389,1.747l1.618-0.892l1.388-1.287l1.618,3.222l1.618,3.516l1.389-0.281
		l1.618-3.366l1.388,0.313l1.618-0.147l1.388-3.242l1.619,2.979L345.852,72l1.619,0.746l1.618-2.129L350.477,69l1.619,0.124
		l1.387,1.937l1.619-3.407l1.387-1.026l1.619,1.076l1.387-1.77l1.619,0.887l1.619,5.365l1.387,1.41l1.619-4.043l1.387,2.514
		l1.619,3.31l1.388-3.074l1.618-0.45l1.388-1.15l1.618-0.719l1.619-0.917l1.388-0.478l1.618-1.295l1.388,2.072l1.618,0.707
		l1.389,1.321l1.618-1.332l1.388-2.072l1.618,2.782l1.618,2.105l1.389-2.797l1.618-0.196l1.388-0.518l1.618,0.327l1.388-0.945
		l1.618,2.446l1.388,1.216l1.619-2l1.618,2.007l1.388,0.749l1.618,0.286l1.388-1.973l1.619-3.839l1.387-2.344l1.619,4.269
		l1.388,0.295l1.618-2.479l1.388,0.359l1.618,4.964l1.619-0.302l1.388,0.916l1.618,2.528l1.388,2.058l1.618-2.384l1.388-1.442
		l1.619-0.501l1.387,0.761l1.619,1.919l1.618,1.81l1.388-1.539l1.619-0.621l1.387-1.897l1.619,1.221l1.388-3.243l1.618,2.445
		l1.388,2.38l1.618-1.277l1.619-1.967l1.388,0.879l1.618-4.284l1.388-3.076l1.618,0.81l1.388-2.592l1.619,4.221l1.387,6.55
		l1.619,0.094l1.618-0.544l1.388-1.766l1.619,4.144l1.387-0.37l1.619,0.095l1.388,1.77l1.618-1.859l1.388-1.685l1.618,0.808
		l1.619-2.709l1.388-2.373l1.618-2.014l1.388-0.15l1.618,2.739l1.388,0.232l1.619,0.819l1.387,1.719l1.619-1.923l1.618,0.179
		l1.388-1.776l1.619,0.363l1.387,2.001l1.619,1.642l1.388,7.288l1.618,3.247l1.388-1.592l1.618-6.986l1.388,0.927l1.619-3.55
		l1.618-3.318l1.388-4.983l1.618-1.902l1.388-1.801l1.619-2.737l1.387,4.799l1.619-1.346l1.388-1.573l1.618,2.133l1.619,3.229
		l1.387-0.148l1.619-4.012l1.388-1.14l1.618-2.434l1.388-0.751l1.618,0.409l1.388,3.973l1.619,3.669l1.618,0.392l1.388-2.411
		l1.618-1.817l1.388-0.139l1.619,2.185l1.387-0.732l1.619,1.466l1.388,3.688l1.618,1.153l1.619,0.6l1.387,2.26l1.619-0.567
		l1.388-1.602l1.618-0.592l1.388,2.738l1.618-2.03l1.388,2.839l1.619-0.202l0.981-0.624"/>
	<path fill="none" stroke="#000000" stroke-width="2.3333" stroke-linejoin="round" stroke-miterlimit="10" d="M79.871,246.768
		l0.982,0.751l1.387,0.274l1.619-3.967l1.388,0.332l1.619,0.818l1.387-0.833l1.619,1.917l1.388-2.951l1.619-0.574l1.619-1.6
		l1.387-0.046l1.619,0.457l1.387,1.425l1.619,0.363l1.387-2.555l1.619,1.006l1.388-0.87l1.619,0.558l1.619,1.117l1.387,1.01
		l1.619-2.514l1.388,0.789l1.619,0.953l1.387,2.098l1.619-0.423l1.388-0.813l1.619,2.418l1.619,4.66l1.387,5.115l1.619,1.705
		l1.388-3.716l1.619,2.552l1.387-1.096l1.619-5.137l1.388-3.561l1.619-4.204l1.619-3.215l1.387-1.452l1.619,3.52l1.388,5.133
		l1.619,5.446l1.387,7.479l1.619,2.613l1.388-2.773l1.619-5.775l1.619-5.853l1.387-1.722l1.619-1.197l1.388-6.776l1.619-2.929
		l1.387,5.127l1.619,2.85l1.388-2.756l1.619-1.23l1.387-0.906l1.619-4.067l1.619,1.884l1.388-2.506l1.619-1.459l1.387-0.753
		l1.619,3.085l1.388,5.612l1.619,0.932l1.387,1.677l1.619-2.442l1.619,0.876l1.387,1.297l1.619,3.367l1.387,0.504l1.619-2.297
		l1.388,1.334l1.619-0.643l1.387-3.852l1.619-3.006l1.619,2.026l1.388-0.957l1.619,3.009l1.387-0.342l1.619-1.885l1.388,0.24
		l1.619-0.21l1.387,1.269l1.619,0.207l1.619,3.961l1.388,1.397l1.619,1.138l1.387-1.343l1.619-0.765l1.388-1.4l1.619-1.006
		l1.387-2.657l1.619,2.326l1.619,1.552l1.388,4.98l1.619,3.002l1.387,1.889l1.619-4.373l1.387-2.721l1.619-2.037l1.387-0.079
		l1.619-1.8l1.619-0.693l1.388,1.627l1.619,2.139l1.387-0.627l1.619,2.051l1.388-0.119l1.619,2.884l1.387,0.1l1.619-4.87
		l1.388,0.342l1.619-1.245l1.619,0.985l1.387,0.619l1.619-0.058l1.388-3.626l1.619-0.673l1.387,1.476l1.619,3.404l1.388-1.491
		l1.619-0.274l1.619,3.428l1.387,12.748l1.619,6.412l1.388,5.695l1.619-4.916l1.387-8.713l1.619-6.686l1.388-6.002l1.619,0.166
		l1.619-0.955l1.387-2.29l1.619-2.081l1.388-7.301l1.619-0.465l1.387-2.102l1.619-1.831l1.388,1.067l1.619-2.16l1.619,2.149
		l1.387,3.228l1.619,1.512l1.388-1.049l1.619,3.115l1.387,2.172l1.619,0.843l1.388,0.517l1.619-0.236l1.619-0.363l1.387-1.404
		l1.619-1.594l1.387-0.002l1.619,0.377l1.387,1.171l1.619,0.302l1.388,2.808l1.618,0.61l1.619-2.9l1.387-2.67l1.619,4.873
		l1.388,3.473l1.618,0.307l1.388,0.469l1.618,1.847l1.389,0.604l1.618,0.651l1.388-0.948l1.618-2.425l1.618-0.611l1.389-0.554
		l1.618-2.83l1.388,0.577l1.618,1.104l1.388-1.093l1.619-1.298l1.387,1.48l1.619,2.541l1.618-2.574l1.388-4.043l1.619-3.544
		l1.387,0.507l1.619,3.493l1.387-0.364l1.619-4.161l1.387-2.55l1.619,2.817l1.619-0.011l1.387,4.268l1.619,2.77l1.387,0.796
		l1.619,2.588l1.388,0.146l1.618,0.289l1.388,1.824l1.618-0.932l1.619,0.91l1.388-1.959l1.618,1.4l1.388,1.773l1.618-4.002
		l1.389-0.605l1.618-1.737l1.388,3.681l1.618,1.84l1.618-4.705l1.389,5.438l1.618-0.171l1.388,1.358l1.618-0.717l1.388-2.683
		l1.618-2.896l1.388,2.699l1.619,1.708l1.618-0.683l1.388-1.868l1.618-2.376l1.388,0.771l1.619,4.947l1.387-4.399l1.619-1.141
		l1.388-2.886l1.618,0.298l1.388,4.684l1.618-0.313l1.619,1.244l1.388-3.181l1.618,2.056l1.388,0.843l1.618-1.468l1.388-0.665
		l1.619-1.591l1.387,1.622l1.619,0.345l1.618-1.533l1.388-0.986l1.619-1.409l1.387-0.144l1.619-2.407l1.388,1.095l1.618-2.988
		l1.388,1.088l1.618-1.332l1.619,3.938l1.388-2.285l1.618-1.996l1.388,1.196l1.618-2.827l1.388,1.961l1.619,2.748l1.387,1.783
		l1.619,0.698l1.618-2.071l1.388-5.01l1.619,0.573l1.387,0.763l1.619,3.483l1.388,2.045l1.618-4.022l1.388,0.109l1.618-1.604
		l1.619-2.039l1.388,2.393l1.618-0.934l1.388,0.102l1.618,0.554l1.388-0.071l1.619,0.542l1.387-2.014l1.619,2.71l1.618,2.99
		l1.388,2.975l1.619-3.289l1.387,1.43l1.619,1.57l1.388-0.752l1.618,0.705l1.388,1.879l1.618,0.496l1.388,1.783l1.619,3.52
		l1.618,6.036l1.388-1.806l1.618-6.255l1.388-0.596l1.619-0.966l1.387-0.779l1.619-0.019l1.388-2.106l1.618,1.086l1.619,1.098
		l1.387,0.438l1.619-2.243l1.388-3.629l1.618,1.59l1.388,0.217l1.618-0.284l1.388,1.994l1.619,1.981l1.618-1.369l1.388,7.388
		l1.618,6.37l1.388,5.795l1.619-2.58l1.387-6.641l1.619-4.697l1.388-2.819l1.618-5.948l1.619-4.572l1.387-3.794l1.619-0.461
		l1.388,1.248l1.618,0.765l1.388,3.917l1.618,0.503l1.388-1.539l1.619-0.873l0.981,1.289"/>
</g>
</svg>
